<?xml version="1.0" encoding="utf-8"?>
<!-- Generator: Adobe Illustrator 26.3.1, SVG Export Plug-In . SVG Version: 6.00 Build 0)  -->
<svg version="1.1" id="Layer_1" xmlns="http://www.w3.org/2000/svg" xmlns:xlink="http://www.w3.org/1999/xlink" x="0px" y="0px"
	 viewBox="0 0 565.28 534.64" style="enable-background:new 0 0 565.28 534.64;" xml:space="preserve">
<style type="text/css">
	.st0{fill:#FFFFFF;stroke:#FFFFFF;stroke-width:13;stroke-miterlimit:10;}
	.st1{fill-rule:evenodd;clip-rule:evenodd;fill:#7294B2;}
	.st2{fill:#7294B2;}
	.st3{fill-rule:evenodd;clip-rule:evenodd;fill:#D6B6C2;}
	.st4{fill:#D6B6C2;}
</style>
<g>
	<g>
		<path class="st0" d="M505.36,81.77c-0.24,0-0.48,0.01-0.71,0.02v-0.02h-137.6c-1.12-2.75-2.58-5.33-4.33-7.69h25.15v-20h-92.2
			c1.39-2.14,2.88-4.24,4.49-6.29c5.97-7.6,13.02-14.32,15.7-23.91c1.22-4.37,1.92-9.91-0.62-13.97c-2.49-3.97-7.33-4.17-11.29-2.49
			c-8.66,3.68-14.15,13.21-15.71,22.17c-0.06,0.38-0.12,0.75-0.14,0.88c-1.09,7.82-1.09,15.7-0.86,23.59h-11.08
			c0.4-7.72,0.55-15.45-0.35-23.13c-0.02-0.13-0.07-0.5-0.12-0.88c-1.35-9-6.63-18.65-15.2-22.52c-3.93-1.78-8.77-1.68-11.35,2.23
			c-2.63,4-2.06,9.55-0.94,13.95c2.47,9.65,9.36,16.52,15.16,24.26c1.5,2,2.88,4.03,4.18,6.11h-91.19v20h24.64
			c-1.67,2.37-3.03,4.96-4.08,7.69H59.23v0.01c-0.13,0-0.25-0.01-0.38-0.01c-27.82,0-50.38,22.55-50.38,50.38
			s22.55,50.38,50.38,50.38s50.38-22.55,50.38-50.38c0-8.11-1.93-15.76-5.33-22.55h14.45c0.39,3.85,0.71,7.71,1.28,11.46
			c1.68,11.1,7.17,22.49,18.01,27.12c0.1,0.04,0.18,0.07,0.18,0.08c6.53,2.52,13.92,1.97,19.82-1.94c6.17-4.09,9.34-11.5,7.67-18.75
			c-1.53-6.64-6.99-12.17-13.96-12.72c-3.11-0.24-7.01,0.45-9.06,3.05c-2.39,3.06,3.39,3.62,5.13,4.3c2.99,1.17,5.38,3.41,5.88,6.7
			c0.54,3.52-1.47,6.25-4.59,7.67c-7.04,3.19-14.33-1.4-18.54-7c-4.5-5.92-6.67-12.9-8.66-19.97h76.32c1.48,3.18,3.43,6.1,5.78,8.59
			h-6.18v0.11c-8.82,0.96-15.68,8.43-15.68,17.51c0,9.73,7.89,17.62,17.62,17.62c8.92,0,16.27-6.63,17.44-15.23h10.79v326.36
			c-0.33,0.09-0.65,0.17-0.97,0.27c-4.1,1.34-7.61,4.68-6.88,9.3c0.7,4.37,4.31,7.88,7.85,10.35v15.89h-30.67v20h22.96
			c0.8,3.06,3.59,5.28,6.74,6.3c8.9,2.9,19.24-0.61,26.31-6.3h58.33c7.07,5.69,17.41,9.2,26.31,6.3c3.15-1.03,5.94-3.24,6.74-6.3
			h23.12v-20H336.6v-15.89c3.54-2.47,7.15-5.97,7.85-10.35c0.73-4.62-2.78-7.96-6.88-9.3c-0.32-0.1-0.65-0.18-0.97-0.27V138.19
			h10.79c1.17,8.6,8.52,15.23,17.44,15.23c9.73,0,17.62-7.89,17.62-17.62c0-8.66-6.26-15.85-14.5-17.32v-0.29h-6.72
			c2.23-2.52,4.06-5.43,5.45-8.59H442c-1.99,7.07-4.16,14.05-8.66,19.97c-4.2,5.6-11.5,10.19-18.54,7
			c-3.13-1.42-5.13-4.15-4.59-7.67c0.5-3.28,2.89-5.52,5.88-6.7c1.74-0.68,7.53-1.24,5.13-4.3c-2.04-2.6-5.95-3.3-9.06-3.05
			c-6.96,0.55-12.43,6.08-13.96,12.72c-1.67,7.26,1.5,14.66,7.67,18.75c5.89,3.91,13.29,4.46,19.82,1.94
			c0.01-0.01,0.08-0.04,0.18-0.08c10.85-4.63,16.33-16.02,18.01-27.12c0.57-3.76,0.9-7.61,1.28-11.46h15.13
			c-3.4,6.79-5.33,14.44-5.33,22.55c0,27.82,22.55,50.38,50.38,50.38s50.38-22.55,50.38-50.38S533.18,81.77,505.36,81.77z
			 M261.45,74.08h41.65c-2.12,2.38-4,4.96-5.66,7.69H266.9C265.3,79.05,263.49,76.47,261.45,74.08z M307.6,498.61
			c-3.69-0.73-7.28-1.67-10.75-2.87c3.48-1.2,7.06-2.14,10.75-2.87V498.61z M256.6,492.87c3.69,0.73,7.28,1.67,10.75,2.87
			c-3.48,1.2-7.06,2.14-10.75,2.87V492.87z M276.62,118.19c-0.12-2.86-0.35-5.73-0.72-8.59h12.04c-0.41,2.85-0.7,5.72-0.86,8.59
			H276.62z M225.79,112.88c-1.47-0.94-2.82-2.04-4-3.28h40.44c1.11,2.82,2.04,5.68,2.83,8.59h-30.45
			C232.68,115.79,227.71,114.11,225.79,112.88z M267.11,138.19c-4.35,6.32-7.09,15.38-7.09,25.48c0,10.48,2.94,19.86,7.59,26.19
			v296.39c-3.48-4.13-7.08-8.15-11-11.86v-336.2H267.11z M307.6,474.39c-3.92,3.71-7.52,7.72-11,11.86V189.06
			c4.31-6.32,7.02-15.35,7.02-25.4c0-10.04-2.71-19.08-7.02-25.39v-0.08h11V474.39z M338.02,113.59c-1.8,1.09-6.25,2.52-8.46,4.6
			h-30.97c0.85-2.91,1.84-5.77,3.01-8.59h41.25C341.47,111.15,339.84,112.48,338.02,113.59z"/>
		<path class="st0" d="M137.77,148.25c-0.04-0.02-0.08-0.04-0.12-0.06C137.22,148,136.31,147.63,137.77,148.25z"/>
		<path class="st0" d="M137.83,148.27c-0.02-0.01-0.04-0.01-0.06-0.02C137.82,148.27,137.83,148.27,137.83,148.27z"/>
		<path class="st0" d="M115,128.85c0.49,4.78,0.43,9.53-0.7,14.23c-1.12,4.65-2.88,9.05-4.89,13.37c-2.12,4.92-4.14,9.74-5.25,15.02
			c-0.5,2.4-1.22,7.53,2.16,8.21c3.14,0.63,6.36-2.55,8.15-4.72c8.09-9.78,6.83-23.27,3.93-34.77
			C117.47,136.35,116.27,132.59,115,128.85z"/>
		<path class="st0" d="M132.43,155.72c-3.45-3.26-6.3-6.84-8.36-11.14c0.93,7.13,1.31,14.39,3.37,21.31
			c0.03,0.09,0.08,0.24,0.13,0.4c1.53,4.62,5.2,9.22,10.07,10.48c2.23,0.58,4.77,0.08,5.77-2.21c1.02-2.35,0.21-5.22-0.78-7.43
			C140.45,162.25,136.19,159.26,132.43,155.72z"/>
		<path class="st0" d="M127.49,166.04c-0.02-0.05-0.03-0.11-0.04-0.16C127.41,165.75,127.4,165.75,127.49,166.04z"/>
		<path class="st0" d="M127.57,166.28c-0.03-0.08-0.06-0.16-0.08-0.24C127.88,167.26,127.72,166.76,127.57,166.28z"/>
		<path class="st0" d="M276.31,29c-0.32-2.37-0.2-1.4-0.08-0.47C276.26,28.69,276.29,28.84,276.31,29z"/>
		<path class="st0" d="M276.31,29c0.02,0.14,0.03,0.28,0.04,0.42C276.38,29.53,276.37,29.45,276.31,29z"/>
		<path class="st0" d="M425.76,148.25c-0.02,0.01-0.04,0.01-0.06,0.02C425.69,148.27,425.71,148.27,425.76,148.25z"/>
		<path class="st0" d="M425.88,148.19c-0.04,0.02-0.08,0.04-0.12,0.06C427.22,147.63,426.31,148,425.88,148.19z"/>
		<path class="st0" d="M454.13,156.46c-2.01-4.32-3.77-8.73-4.89-13.37c-1.14-4.7-1.19-9.45-0.7-14.23
			c-1.28,3.74-2.47,7.5-3.4,11.35c-2.9,11.49-4.16,24.99,3.93,34.77c1.79,2.17,5.01,5.35,8.15,4.72c3.38-0.67,2.67-5.8,2.16-8.21
			C458.27,166.2,456.24,161.38,454.13,156.46z"/>
		<path class="st0" d="M436.08,165.88c-0.02,0.05-0.03,0.11-0.04,0.16C436.12,165.75,436.12,165.75,436.08,165.88z"/>
		<path class="st0" d="M436.04,166.04c-0.03,0.08-0.06,0.16-0.08,0.24C435.8,166.76,435.65,167.26,436.04,166.04z"/>
		<path class="st0" d="M431.09,155.72c-3.76,3.55-8.02,6.54-10.2,11.39c-0.99,2.22-1.8,5.09-0.78,7.43c1,2.29,3.54,2.79,5.77,2.21
			c4.87-1.26,8.53-5.86,10.07-10.48c0.05-0.16,0.1-0.31,0.13-0.4c2.06-6.92,2.45-14.18,3.37-21.31
			C437.4,148.87,434.55,152.46,431.09,155.72z"/>
	</g>
	<g>
		<path class="st1" d="M275.54,28.18c0.02,0.15,0.05,0.31,0.08,0.47C275.3,26.28,275.42,27.25,275.54,28.18z"/>
		<path class="st1" d="M275.62,28.65c0.02,0.14,0.03,0.28,0.04,0.42C275.68,29.18,275.68,29.11,275.62,28.65z"/>
		<path class="st1" d="M288,28.19c0.02-0.15,0.06-0.31,0.09-0.47C288.23,26.8,288.38,25.83,288,28.19z"/>
		<path class="st1" d="M287.95,28.61c0.02-0.14,0.03-0.28,0.05-0.42C287.94,28.65,287.93,28.72,287.95,28.61z"/>
		<path class="st2" d="M310.14,518.39c-0.12-0.1-0.25-0.19-0.37-0.29C311.61,519.64,310.86,519,310.14,518.39z"/>
		<rect x="175.65" y="53.73" class="st2" width="211.53" height="20"/>
		<rect x="196.24" y="500.01" class="st2" width="170.5" height="20"/>
		
			<rect x="94.81" y="303.03" transform="matrix(2.974072e-11 -1 1 2.974072e-11 -36.1216 598.9437)" class="st2" width="373.21" height="29"/>
		
			<rect x="134.81" y="302.41" transform="matrix(2.974072e-11 -1 1 2.974072e-11 4.4997 638.3224)" class="st2" width="373.21" height="29"/>
		
			<rect x="54.81" y="302.41" transform="matrix(2.974072e-11 -1 1 2.974072e-11 -75.5003 558.3224)" class="st2" width="373.21" height="29"/>
		<g>
			<path class="st2" d="M504.66,109.42c12.34,0,22.38,10.04,22.38,22.38s-10.04,22.38-22.38,22.38c-12.34,0-22.38-10.04-22.38-22.38
				S492.32,109.42,504.66,109.42 M504.66,81.42c-27.82,0-50.38,22.55-50.38,50.38c0,27.82,22.55,50.38,50.38,50.38
				c27.82,0,50.38-22.55,50.38-50.38C555.04,103.98,532.48,81.42,504.66,81.42L504.66,81.42z"/>
		</g>
		<rect x="58.54" y="81.42" class="st2" width="445.41" height="27.83"/>
		<g>
			<path class="st2" d="M58.16,109.42c12.34,0,22.38,10.04,22.38,22.38s-10.04,22.38-22.38,22.38s-22.38-10.04-22.38-22.38
				S45.82,109.42,58.16,109.42 M58.16,81.42c-27.82,0-50.38,22.55-50.38,50.38c0,27.82,22.55,50.38,50.38,50.38
				s50.38-22.55,50.38-50.38C108.54,103.98,85.98,81.42,58.16,81.42L58.16,81.42z"/>
		</g>
		<rect x="196.76" y="117.84" class="st2" width="170.5" height="20"/>
		<circle class="st2" cx="198.69" cy="135.45" r="17.62"/>
		<circle class="st2" cx="364.13" cy="135.45" r="17.62"/>
		<g>
			<path class="st1" d="M137.08,147.9c-10.93-4.59-16.45-16.04-18.14-27.18c-1.71-11.3-1.23-23.49-6.76-33.84
				c0.26,0.39,0.51,0.78,0.76,1.18c7.86,12.72,7.42,29.12,16.56,41.16c4.2,5.6,11.5,10.19,18.54,7c3.13-1.42,5.13-4.15,4.59-7.67
				c-0.5-3.28-2.89-5.52-5.88-6.7c-1.74-0.68-7.53-1.24-5.13-4.3c2.04-2.6,5.95-3.3,9.06-3.05c6.96,0.55,12.43,6.08,13.96,12.72
				c1.67,7.26-1.5,14.66-7.67,18.75C151.04,149.9,143.62,150.44,137.08,147.9C135.06,147.05,137.57,148.09,137.08,147.9z"/>
			<path class="st1" d="M113.6,142.73c1.14-4.7,1.19-9.45,0.7-14.23c1.28,3.74,2.47,7.5,3.4,11.35c2.9,11.49,4.16,24.99-3.93,34.77
				c-1.79,2.17-5.01,5.35-8.15,4.72c-3.38-0.67-2.67-5.8-2.16-8.21c1.1-5.28,3.13-10.1,5.25-15.02
				C110.72,151.78,112.48,147.38,113.6,142.73z"/>
			<path class="st1" d="M126.8,165.69c-2.1-6.96-2.48-14.29-3.41-21.47c2.06,4.3,4.91,7.89,8.36,11.14
				c3.76,3.55,8.02,6.54,10.2,11.39c0.99,2.22,1.8,5.09,0.78,7.43c-1,2.29-3.54,2.79-5.77,2.21
				C131.99,175.12,128.28,170.39,126.8,165.69C126.46,164.56,127.49,167.87,126.8,165.69z"/>
		</g>
		<path class="st1" d="M250.81,63.62c0.03,0.02,0.07,0.04,0.1,0.06C250.82,63.62,250.8,63.61,250.81,63.62z"/>
		<path class="st1" d="M250.91,63.68c0.15,0.1,0.29,0.21,0.44,0.31C252.11,64.5,253.16,65.2,250.91,63.68z"/>
		<path class="st1" d="M311.88,63.77c0.03-0.02,0.07-0.04,0.1-0.06C311.99,63.71,311.97,63.72,311.88,63.77z"/>
		<path class="st1" d="M311.44,64.07c0.15-0.1,0.29-0.2,0.44-0.3C309.59,65.24,310.66,64.57,311.44,64.07z"/>
		<g>
			<path class="st1" d="M425.06,147.9c10.93-4.59,16.45-16.04,18.14-27.18c1.71-11.3,1.23-23.49,6.76-33.84
				c-0.26,0.39-0.51,0.78-0.76,1.18c-7.86,12.72-7.42,29.12-16.56,41.16c-4.2,5.6-11.5,10.19-18.54,7
				c-3.13-1.42-5.13-4.15-4.59-7.67c0.5-3.28,2.89-5.52,5.88-6.7c1.74-0.68,7.53-1.24,5.13-4.3c-2.04-2.6-5.95-3.3-9.06-3.05
				c-6.96,0.55-12.43,6.08-13.96,12.72c-1.67,7.26,1.5,14.66,7.67,18.75C411.1,149.9,418.52,150.44,425.06,147.9
				C427.08,147.05,424.57,148.09,425.06,147.9z"/>
			<path class="st1" d="M448.54,142.73c-1.14-4.7-1.19-9.45-0.7-14.23c-1.28,3.74-2.47,7.5-3.4,11.35
				c-2.9,11.49-4.16,24.99,3.93,34.77c1.79,2.17,5.01,5.35,8.15,4.72c3.38-0.67,2.67-5.8,2.16-8.21c-1.1-5.28-3.13-10.1-5.25-15.02
				C451.42,151.78,449.66,147.38,448.54,142.73z"/>
			<path class="st1" d="M435.34,165.69c2.1-6.96,2.48-14.29,3.41-21.47c-2.06,4.3-4.91,7.89-8.36,11.14
				c-3.76,3.55-8.02,6.54-10.2,11.39c-0.99,2.22-1.8,5.09-0.78,7.43c1,2.29,3.54,2.79,5.77,2.21
				C430.15,175.12,433.86,170.39,435.34,165.69C435.68,164.56,434.65,167.87,435.34,165.69z"/>
		</g>
		<path class="st2" d="M309.77,469.61c0.12-0.1,0.25-0.19,0.37-0.29C310.86,468.72,311.6,468.08,309.77,469.61z"/>
		<path class="st2" d="M309.54,469.82c0.08-0.07,0.15-0.14,0.23-0.21C309.34,469.98,309.35,469.98,309.54,469.82z"/>
		<path class="st2" d="M252.02,469.32c0.12,0.1,0.25,0.19,0.37,0.29C250.56,468.08,251.3,468.72,252.02,469.32z"/>
		<path class="st2" d="M252.39,469.61c0.08,0.07,0.15,0.14,0.23,0.21C252.81,469.98,252.82,469.98,252.39,469.61z"/>
		<path class="st2" d="M309.77,518.1c-0.08-0.07-0.15-0.14-0.23-0.21C309.35,517.74,309.34,517.73,309.77,518.1z"/>
		<path class="st2" d="M252.62,517.9c-0.08,0.07-0.15,0.14-0.23,0.21C252.82,517.73,252.81,517.74,252.62,517.9z"/>
		<path class="st2" d="M252.39,518.1c-0.12,0.1-0.25,0.19-0.37,0.29C251.3,519,250.56,519.64,252.39,518.1z"/>
	</g>
	<g>
		<g>
			<path class="st3" d="M263.35,47.98c5.32,7.1,9.43,14.63,11.84,23.21c0.57-13.39,2.17-26.87,0.61-40.24
				c-0.02-0.13-0.07-0.5-0.12-0.88c-1.35-9-6.63-18.65-15.2-22.52c-3.93-1.78-8.77-1.68-11.35,2.23c-2.63,4-2.06,9.55-0.94,13.95
				C250.66,33.37,257.56,40.24,263.35,47.98z"/>
			<path class="st3" d="M287.79,70.73c2.61-8.52,6.88-15.95,12.36-22.93c5.97-7.6,13.02-14.32,15.7-23.91
				c1.22-4.37,1.92-9.91-0.62-13.97c-2.49-3.97-7.33-4.17-11.29-2.49c-8.66,3.68-14.15,13.21-15.71,22.17
				c-0.06,0.38-0.12,0.75-0.14,0.88C286.23,43.82,287.53,57.33,287.79,70.73z"/>
		</g>
		<path class="st3" d="M350.2,63.58c-11.99-5.89-25.82-4.81-37.2,2.02c-0.02,0.02-0.26,0.17-0.55,0.36
			c-18.61,12.25-25.53,35.96-25.56,58c0,2.04,0.03,4.08,0.09,6.14c-1.66-0.64-3.39-0.99-5.17-0.99c-1.84,0-3.63,0.37-5.34,1.05
			c0.09-1.9,0.16-3.8,0.2-5.69c0.44-22.03-5.97-45.9-24.31-58.59c-0.28-0.19-0.52-0.35-0.54-0.37c-11.22-7.09-25.03-8.51-37.15-2.9
			c-12.68,5.87-20.89,19.19-20.12,33.84c0.7,13.41,9,25.99,21.66,29.4c5.64,1.52,13.07,1.48,17.67-2.88
			c5.39-5.13-5.1-8.17-8.09-10.08c-5.13-3.29-8.83-8.44-8.7-14.99c0.14-7.02,4.7-11.64,10.92-13.35
			c13.99-3.83,25.97,7.55,31.93,19.84c4.95,10.07,7.14,20.91,8.52,31.97c-5.14,6.32-8.44,16.2-8.44,27.31
			c0,19.09,9.76,34.57,21.8,34.57s21.8-15.48,21.8-34.57c0-11.33-3.44-21.38-8.75-27.69c1.62-11.01,4.04-21.76,9.2-31.7
			c6.22-12.14,18.44-23.24,32.34-19.07c6.17,1.85,10.64,6.58,10.63,13.6c-0.01,6.55-3.81,11.61-9.02,14.78
			c-3.03,1.84-13.58,4.63-8.3,9.89c4.5,4.47,11.92,4.68,17.6,3.3c12.73-3.11,21.3-15.49,22.28-28.88
			C370.67,83.25,362.75,69.74,350.2,63.58z"/>
		<path class="st4" d="M335.74,506.42c-8.33-5.46-18.05-5.89-27.55-7.69c-3.9-0.74-7.68-1.73-11.34-2.99
			c3.66-1.27,7.44-2.25,11.34-2.99c9.5-1.8,19.22-2.23,27.55-7.69c3.8-2.49,7.96-6.2,8.71-10.93c0.73-4.62-2.78-7.96-6.88-9.3
			c-8.94-2.92-19.35,0.65-26.42,6.38c-0.23,0.2-0.46,0.39-0.6,0.5c-7.41,6.41-13.61,14-19.76,21.62c-0.09-0.04-0.17-0.08-0.26-0.12
			c-0.99-7.78-4.39-13.53-8.44-13.53c-4.05,0-7.45,5.74-8.44,13.53c-0.09,0.04-0.17,0.08-0.26,0.12
			c-6.15-7.62-12.35-15.21-19.76-21.62c-0.14-0.11-0.36-0.3-0.6-0.5c-7.07-5.73-17.47-9.3-26.41-6.38c-4.1,1.34-7.61,4.68-6.88,9.3
			c0.75,4.73,4.92,8.44,8.71,10.93c8.33,5.46,18.05,5.89,27.55,7.69c3.9,0.74,7.68,1.73,11.34,2.99c-3.66,1.27-7.44,2.25-11.34,2.99
			c-9.5,1.8-19.22,2.23-27.55,7.69c-3.8,2.49-7.96,6.2-8.71,10.93c-0.73,4.62,2.78,7.96,6.88,9.3c8.94,2.92,19.35-0.65,26.42-6.38
			c0.23-0.2,0.46-0.39,0.6-0.5c7.39-6.4,13.59-13.97,19.72-21.57c0.08,9.91,3.96,17.89,8.74,17.89c4.78,0,8.65-7.98,8.74-17.89
			c6.14,7.6,12.33,15.17,19.73,21.57c0.14,0.11,0.36,0.3,0.6,0.5c7.07,5.74,17.47,9.3,26.42,6.38c4.1-1.34,7.61-4.68,6.88-9.3
			C343.7,512.63,339.54,508.92,335.74,506.42z"/>
	</g>
</g>
</svg>
