<?xml version="1.0" standalone="no"?>
<!DOCTYPE svg PUBLIC "-//W3C//DTD SVG 20010904//EN"
 "http://www.w3.org/TR/2001/REC-SVG-20010904/DTD/svg10.dtd">
<svg version="1.0" xmlns="http://www.w3.org/2000/svg"
 width="512.000000pt" height="200.000000pt" viewBox="0 0 512.000000 200.000000"
 preserveAspectRatio="xMidYMid meet">
<metadata>
Created by potrace 1.16, written by Peter Selinger 2001-2019
</metadata>
<g transform="translate(0.000000,200.000000) scale(0.064000,-0.033333)"
fill="#000000" stroke="none">
<path d="M0 3000 l0 -3000 4000 0 4000 0 0 3000 0 3000 -4000 0 -4000 0 0
-3000z m4145 2159 c178 -22 368 -95 519 -199 86 -59 237 -211 293 -295 140
-209 212 -461 199 -700 -5 -90 -41 -290 -45 -248 -2 19 -239 224 -244 210 -3
-7 -6 25 -6 69 -3 252 -98 466 -283 639 -121 113 -272 188 -435 216 -92 16
-280 6 -368 -20 -292 -86 -518 -315 -596 -607 -29 -108 -32 -317 -5 -419 25
-95 76 -203 133 -283 45 -64 290 -327 304 -327 9 0 91 76 392 364 225 215 261
254 290 311 28 56 32 75 32 140 0 65 -5 85 -33 142 -57 115 -141 169 -274 176
-76 4 -92 1 -141 -21 -74 -34 -131 -88 -164 -155 -24 -48 -28 -70 -28 -137 0
-108 20 -155 108 -255 l72 -82 -105 -104 -105 -105 -85 89 c-138 142 -194 271
-194 442 1 115 21 198 74 306 81 166 248 287 444 323 242 44 496 -64 629 -267
85 -130 113 -233 105 -390 -10 -197 -71 -306 -290 -514 -79 -74 -278 -264
-442 -421 l-299 -286 -41 47 c-22 26 -94 103 -161 172 -280 290 -350 376 -427
526 -88 172 -120 306 -120 499 1 473 270 898 677 1069 210 88 418 120 620 95z
m610 -2349 c59 -63 137 -153 172 -200 83 -110 166 -279 199 -405 24 -88 27
-119 27 -260 1 -174 -9 -237 -64 -399 -149 -445 -504 -722 -998 -776 -166 -18
-354 10 -527 80 -365 146 -640 494 -705 890 -23 139 -5 420 31 478 9 14 10 15
8 1 -3 -14 155 -164 220 -211 15 -10 20 -32 26 -108 17 -230 96 -416 241 -564
248 -255 595 -333 921 -207 204 79 360 222 454 416 70 145 85 211 85 385 -1
166 -13 227 -75 356 -51 106 -106 178 -255 332 l-122 126 -144 -134 c-271
-253 -516 -496 -534 -531 -69 -131 -41 -297 67 -394 162 -146 417 -96 509 100
24 49 29 74 29 132 0 104 -26 165 -107 253 l-66 71 102 103 c56 56 98 106 94
111 -4 5 14 -9 41 -31 64 -51 137 -142 181 -225 152 -289 26 -682 -264 -829
-198 -99 -390 -102 -579 -10 -150 74 -259 199 -316 360 -27 76 -30 98 -30 200
0 131 15 195 71 303 49 93 39 83 897 898 l59 56 122 -126 c67 -69 170 -178
230 -241z"/>
</g>
</svg>
