<?xml version="1.0" encoding="UTF-8"?><svg id="OBJECTS" xmlns="http://www.w3.org/2000/svg" viewBox="0 0 330.29 165.89"><defs><style>.cls-1{fill:#555b6e;}.cls-2{fill:#c9c3a6;}.cls-3,.cls-4{fill:#4a4e69;}.cls-5,.cls-6,.cls-4,.cls-7,.cls-8,.cls-9{isolation:isolate;}.cls-5,.cls-7{opacity:.6;}.cls-5,.cls-8,.cls-9,.cls-10{fill:#9ea483;}.cls-6{opacity:.4;}.cls-6,.cls-11{fill:#cbd4ad;}.cls-4{opacity:.25;}.cls-7{fill:#7d9959;}.cls-8{opacity:.5;}.cls-12{fill:#717558;}.cls-12,.cls-13{font-family:Bacem, Bacem;font-size:15.95px;}.cls-14{fill:#bc865e;}.cls-15{fill:#bfc6a3;stroke:#969b81;stroke-miterlimit:10;}.cls-16{fill:#fdf9df;}.cls-9{opacity:.9;}.cls-17{fill:none;}.cls-18{fill:#3b414f;}.cls-19{fill:#d3a273;}.cls-20{fill:#95b27b;}.cls-13{fill:#fff;}.cls-21{fill:#f3c2a1;}.cls-22{fill:#e1e8c4;}.cls-23{fill:#5c7242;}</style></defs><g><g><path class="cls-17" d="M100.66,72.45c.1-.06,.22-.11,.37-.15,.41-.1,.81-.26,1.21-.42,1.52-.61,2.62-1.72,3.57-3.02,.58-.8,.86-.77,1.44,.04,.3,.41,.54,.86,.87,1.26,.09,.11,.14,.21,.18,.31-.1,.04-6.42,2.42-6.58,2.41-.16-.03-1.01-.41-1.05-.43Z"/><path class="cls-17" d="M90.97,73.74c.11-1.63,1.53-2.99,3.18-3.06,.51-.03,.91,.17,1.16,.52l-4.31,2.75c-.03-.08-.04-.15-.03-.21Z"/><path class="cls-17" d="M81.87,71.56h0c.08-.24,.3-.39,.68-.5,.81-.23,1.21-.1,1.47,.64,.19,.53,.29,1.09,.46,1.62,.59,1.9,2.3,3.11,4.05,2.51,.06-.02,.12-.04,.18-.06l-.32,2.2-6.53-6.41Z"/><path class="cls-17" d="M95.78,73.78c.14,1.3,.39,2.59,.66,3.86,.04,.21,.27,.64-.4,.57-.11-.04-.32-.07-.52-.16-1.89-.85-3.26-2.3-4.45-3.94-.04-.04-.06-.11-.08-.17l4.31-2.75c.14,.2,.24,.46,.26,.76,.06,.6,.16,1.22,.22,1.82Z"/><path class="cls-23" d="M148.67,59.52c-1.16-.85-2.45-1.1-3.86-.96-.02-.07-.05-.11-.04-.15,.58-1.76-.02-2.31-1.81-2.74-1.62-.39-3.17,0-4.72,.38-.28,.07-.62,.26-.79-.02-.18-.32,.12-.59,.34-.82,.51-.55,1.04-1.09,1.5-1.67,.81-1.03,.54-2.23-.65-2.79-1.78-.81-3.63-.69-5.47-.21-2.66,.69-4.85,2.11-6.58,4.24-.15,.18-.26,.44-.57,.25-.89-.53-1.88-.57-2.87-.67-.75-.07-.96-.38-.6-1,1.21-2.09-.32-4.16-1.84-4.88-.37-.17-.74-.3-1.11-.46-.23-.1-.47-.22-.46-.5,.02-.31,.26-.47,.53-.53,1-.18,2-.37,3.01-.51,1.46-.21,2.92-.44,4.31-.93,3.19-1.13,4.3-3.26,3.45-6.55-.04-.15-.07-.31-.11-.47,1.69-.31,3.33-.68,4.92-1.3,2.48-.96,2.62-3.15,1.06-4.9-1.67-1.88-3.79-2.59-6.27-2.04-.52,.11-.6-.08-.82-.42-.86-1.39-2-2.4-3.73-2.52-1.02-.07-1.57,.59-2.08,1.27-.36,.48-.6,1.06-.94,1.65-1.23-1.35-2.7-1.41-4.3-.82-1.61,.6-2.16,1.67-1.51,3.25,.24,.56,.1,.72-.39,.9-.85,.32-1.67,.73-2.52,1.06-1.04,.4-1.45,.23-1.94-.75-.13-.26-.24-.54-.4-.79-.4-.59-.45-1.1,0-1.74,.49-.71,.26-1.5-.21-2.18-.34-.48-.74-.93-1.05-1.42-.93-1.45-.61-2.39,.97-3.02,1.06-.42,2.19-.52,3.29-.74,.79-.16,1.67-.26,1.95-1.18,.27-.88-.25-1.56-.79-2.16-1.65-1.83-3.69-2.82-6.2-2.68-.46,.03-.7,.02-.53-.58,.25-.89,.18-1.81,0-2.71-.4-2.13-2.23-3.38-4.85-3.28-.64,.03-1.28,.12-1.91,.24-.54,.1-.76-.08-.73-.62,.05-.84-.66-1.59-.57-2.26,.09-.6,1.15-.92,1.55-1.62,.67-1.17,.68-2.43-.05-3.31-.79-.96-2.33-1.24-3.78-.7-.79-2.52-2.5-3.54-5.07-3.01-1.45,.3-2.2,1.31-2.08,2.79,.12,1.44,.75,2.66,1.65,3.78,.13,.17,.44,.32,.29,.6-.11,.2-.39,.12-.6,.15-.37,.04-.74,.08-1.12,.1-2.64,.13-4.05,2.64-2.79,4.96,.51,.93,1.25,1.67,1.99,2.41,.6,.6,.53,.85-.27,1.08-.44,.12-.89,.18-1.34,.27-1.4,.27-2.6,.87-3.32,2.16-.23,.41-.5,.32-.8,.23-2.25-.75-4.57-1.04-6.91-.92-1.38,.07-2.74,.27-3.99,.96-1.36,.74-1.55,1.73-.6,2.93,.44,.55,.98,.98,1.52,1.41,.17,.13,.38,.21,.39,.49-1.25-.19-2.5-.27-3.74,0-.3,.06-.55,.18-.81,.32-1.24,.67-1.47,1.67-.67,2.85,.31,.44,.64,.85,1.03,1.26-1.25-.39-2.52-.65-3.8-.8-1.45-.17-2.87-.12-4.22,.53-1.37,.67-1.56,1.75-.55,2.89,.86,.97,1.93,1.67,3.06,2.37-.53,.46-1.04,.89-1.54,1.33-.59,.53-1.14,1.13-1.38,1.86-.29,.91-.85,.87-1.56,.74-3.53-.65-6.98-.39-10.32,1.01-.87,.36-1.67,.84-2.36,1.49-1.22,1.13-1.12,2.35,.23,3.32,.91,.66,1.95,1.09,2.95,1.56,.21,.1,.55,.11,.57,.36,.02,.29-.34,.36-.55,.49-1.07,.64-2.27,1.05-3.15,2-1.24,1.34-.96,2.87,.72,3.6,1.34,.59,2.71,.38,4.07,.11,.62-.12,1.24-.35,2.02-.18-.78,1.12-.49,2.09,.5,2.91-.83,.38-1.57,.76-2.23,1.34-.63,.55-1.38,.08-2.05-.05-1.89-.38-3.79-.61-5.7-.22-2.12,.44-4.26,2.5-4.6,4.31-.17,.91,.22,1.62,.75,2.25,1.45,1.69,1.08,1.57-.45,2.4-1.25,.68-2.39,1.49-3.37,2.54-1.59,1.74-1.43,3.49,.48,4.89,1.27,.94,2.7,1.58,4.09,2.28,.22,.11,.61,.16,.56,.47-.04,.27-.4,.27-.65,.34-3.57,1.11-6.8,2.87-9.63,5.28-1.56,1.33-3.02,2.79-3.87,4.74-1.34,3.05,.61,5.51,3.72,5.71,2.6,.17,4.97-.67,7.29-1.72,2.54-1.14,5.08-2.28,7.63-3.39,.19-.09,.44-.34,.65-.11,.16,.18,.05,.45,0,.69-.45,2.02-.63,3.99,.68,5.8,1.06,1.45,3.39,2.36,5.16,2.04,4.78-.86,7.23-4.1,8.69-8.38,.27-.79,.48-1.59,.75-2.49,.67,.82,1.34,1.53,2.15,2.12,4.23,3.08,8.47,1.55,10.61-3.09,.89-1.95,1.08-4.05,.97-6.17-.03-.54,.1-.9,.64-1.12,.39-.16,.74-.45,1.08-.69,.46-.32,.63-.46,.74-.28l1.72-1.43c.08-.24,.3-.39,.67-.5,.81-.23,1.21-.1,1.47,.64,.19,.53,.29,1.09,.46,1.62,.59,1.9,2.3,3.11,4.05,2.51,.06-.03,.12-.04,.18-.06,.93-.25,1.5-.7,1.83-1.09,.33-.39,.44-.73,.44-.73l.03-.02c-.02-.07-.03-.14-.03-.2,.11-1.63,1.53-2.99,3.18-3.06,.51-.03,.91,.17,1.16,.52,.82,.61,2.16,.93,3.29,1.09,1.13,.17,2.06,.18,2.06,.18h0c.1-.06,.22-.11,.37-.15,.41-.1,.81-.26,1.21-.42,1.52-.61,2.62-1.72,3.57-3.02,.58-.8,.86-.76,1.44,.04,.3,.41,.54,.86,.87,1.26,.09,.11,.15,.21,.18,.31h0s2.49,2.39,2.52,2.41c.23,.09,.43,.37,.65,.46,.6,.23,.11,.47-.05,.68-.86,1.13-.78,2.79,.18,3.91,2.08,2.42,5.43,3.18,8.76,1.99,.77-.28,1.53-.59,2.31-.82,1.02-.31,1.3-.1,1.38,.95,.18,2.61,2.8,5.44,5.49,6.06,1.77,.41,3.22-.26,4.67-1.1,.59-.34,1.06-1.1,1.73-1.03,.68,.07,.97,.92,1.48,1.39,1,.94,2.08,1.53,3.51,1.21,2.25-.51,3.23-2.16,2.52-4.36-.22-.67-.53-1.32-.83-2.05,1.03-.16,2.07,.07,3.07-.21,.78-.22,1.52-.46,2.09-1.1,.52-.59,.6-1.31,.18-1.97-.68-1.06-1.7-1.74-2.71-2.44-3.01-2.09-6.44-3.08-9.96-3.82-.64-.13-1.3-.22-2.03-.53,.95-.22,1.78-.38,2.59-.6,.71-.21,1.39-.51,1.95-1.04,1.24-1.2,1.32-2.57,.25-3.91-.06-.08-.11-.17-.19-.3,2.13-.26,4.21-.39,6.29-.37,1.2,0,2.39-.14,3.51-.64,.67-.3,1.24-.74,1.59-1.4,.45-.89,.25-1.77-.53-2.35Z"/><path class="cls-20" d="M88.64,54.38c-.29,.27-.62,.51-.96,.73-.75,.52-1.53,.98-2.27,1.52-1.32,.97-2.41,2.15-2.88,3.76-.15,.53-.39,.63-.89,.65-1.87,.06-3.67,.47-5.34,1.34-1.33,.68-1.63,1.61-1.1,3.01,.08,.2,.29,.39,.11,.7-1.62-.81-3.28-1.51-5.1-1.62-2.62-.16-5.09,.18-7,2.26-.08,.09-.24,.21-.32,.18-1.05-.26-2.16-.06-3.38-.28,1.06-.65,1.99-1.22,2.91-1.79,.62-.38,1.19-.81,1.62-1.4,.53-.71,.41-1.39-.31-1.91-.59-.42-1.27-.64-1.94-.89-.83-.32-1.76-.35-2.64-.85,.41-.37,.83-.46,1.23-.59,1.68-.56,3.4-1.05,4.85-2.15,.53-.39,1.07-.89,.87-1.59-.19-.69,.18-.87,.64-1.07,.14-.06,.3-.12,.42-.22,.38-.3,.56-.32,.77,.22,.76,1.93,2.56,3.02,4.63,2.94,1.21-.04,2.3-.47,3.37-.97,1.81-.83,3.42-2.01,5.13-3.01,1.36-.8,2.8-1.36,4.39-1.45,1.03-.06,2.04,.03,2.95,.57,.89,.53,.97,1.17,.24,1.88Z"/><path class="cls-20" d="M91.7,27.77c-1.38,.25-1.98,1.16-1.57,2.5,.14,.46,.37,.89,.59,1.31,.33,.64,.71,1.26,1.04,1.9,.3,.56,.25,1.15-.25,1.53-1.19,.91-1.95,2.12-2.52,3.46-.18,.39-.34,.43-.58,.04-.46-.73-1.01-1.38-1.61-2-.21-.21-.28-.45-.23-.73,.53-2.78-.67-4.78-2.85-6.35-.19-.13-.48-.18-.54-.45-.14-.72-.55-1.31-.9-1.94-.32-.59-.06-.71,.46-.67,.71,.07,1.42,.2,2.14,.25,1.59,.11,3.2,.27,4.69-.5,.22-.11,.36-.15,.56,0,.67,.47,1.36,.94,2.23,1.52-.34,.07-.5,.09-.66,.11Z"/><path class="cls-7" d="M148.67,59.51c-1.16-.85-2.45-1.11-3.86-.96-.02-.07-.05-.11-.04-.15,.58-1.76-.02-2.31-1.81-2.74-1.62-.39-3.17,0-4.72,.38-.28,.07-.62,.26-.79-.02-.18-.32,.12-.59,.34-.82,.51-.55,1.04-1.09,1.5-1.67,.81-1.03,.54-2.23-.65-2.79-1.78-.81-3.63-.69-5.47-.21-2.66,.69-4.85,2.11-6.58,4.24-.15,.18-.26,.44-.57,.25-.89-.53-1.88-.57-2.87-.67-.75-.07-.96-.38-.6-1,1.21-2.09-.32-4.16-1.84-4.88-.37-.17-.74-.31-1.11-.46-.23-.1-.47-.22-.46-.5,.02-.31,.26-.47,.53-.53,1-.18,2-.37,3.01-.51,1.46-.21,2.92-.44,4.31-.93,3.19-1.13,4.3-3.26,3.45-6.55-.04-.15-.07-.31-.11-.47,1.69-.31,3.33-.68,4.92-1.3,2.48-.96,2.62-3.15,1.06-4.9-1.67-1.88-3.79-2.59-6.27-2.04-.52,.11-.6-.08-.82-.42-.86-1.39-2-2.4-3.73-2.52-1.02-.07-1.57,.59-2.08,1.27-.36,.48-.6,1.05-.94,1.65-1.23-1.35-2.7-1.41-4.3-.82-1.61,.6-2.16,1.67-1.51,3.25,.24,.56,.1,.72-.39,.9-.85,.32-1.67,.73-2.52,1.06-1.04,.4-1.45,.23-1.94-.75,0,0-13.2,6.72-11.17,11.85,2.03,5.13,2.03,9.88-2.18,11.16-4.21,1.28-8.81,4.03-7.52,7.5,1.3,3.48-.44,5.63-8.04,3.66-3.09-.8-5.55-1.89-7.57-2.36,.04,.11,.05,.24-.04,.39-.42-.21-.85-.41-1.28-.6-2.25-.17-3.93,.92-5.39,4.95-2.93,8.05-6.04,5.85-15.38,5.31-9.33-.55-10.07,8.24-13.36,5.85-2.87-2.07,2-6.51,3.32-7.64-.11,.03-.23,.05-.33,.08-3.57,1.11-6.8,2.87-9.63,5.28-1.56,1.33-3.02,2.79-3.87,4.74-1.34,3.05,.61,5.51,3.72,5.71,2.6,.17,4.97-.67,7.29-1.72,2.54-1.14,5.08-2.28,7.63-3.39,.19-.09,.44-.34,.65-.11,.16,.18,.05,.45,0,.69-.45,2.02-.63,3.99,.68,5.8,1.06,1.45,3.39,2.36,5.16,2.04,4.78-.86,7.23-4.1,8.69-8.38,.27-.79,.48-1.59,.75-2.49,.67,.82,1.34,1.53,2.15,2.12,4.23,3.08,8.47,1.55,10.61-3.09,.89-1.95,1.08-4.05,.97-6.17-.03-.54,.1-.9,.64-1.12,.39-.16,.74-.45,1.08-.69,.46-.32,.63-.46,.74-.28l1.72-1.43c.08-.24,.3-.39,.67-.5,.81-.23,1.21-.1,1.47,.64,.19,.53,.29,1.09,.46,1.62,.59,1.9,2.3,3.11,4.05,2.51,.06-.03,.12-.04,.18-.06,.93-.25,1.5-.7,1.83-1.09,.33-.39,.44-.73,.44-.73l.03-.02c-.02-.07-.03-.14-.03-.2,.11-1.63,1.53-2.99,3.18-3.06,.51-.03,.91,.17,1.16,.52,.82,.61,2.16,.93,3.29,1.09,1.13,.17,2.06,.18,2.06,.18h0c.1-.06,.22-.11,.37-.15,.41-.1,.81-.26,1.21-.42,1.52-.61,2.62-1.72,3.57-3.02,.58-.8,.86-.76,1.44,.04,.3,.41,.54,.86,.87,1.26,.09,.11,.15,.21,.18,.31h0s2.49,2.39,2.52,2.41c.23,.09,.43,.37,.65,.46,.6,.23,.11,.47-.05,.68-.86,1.13-.78,2.79,.18,3.91,2.08,2.42,5.43,3.18,8.76,1.99,.77-.28,1.53-.59,2.31-.82,1.02-.31,1.3-.1,1.38,.95,.18,2.61,2.8,5.44,5.49,6.06,1.77,.41,3.22-.26,4.67-1.1,.59-.34,1.06-1.1,1.73-1.03,.68,.07,.97,.92,1.48,1.39,1,.94,2.08,1.53,3.51,1.21,2.25-.51,3.23-2.16,2.52-4.36-.22-.67-.53-1.32-.83-2.05,1.03-.16,2.07,.07,3.07-.21,.78-.22,1.52-.46,2.09-1.1,.52-.59,.6-1.31,.18-1.97-.68-1.06-1.7-1.74-2.71-2.44-3.01-2.09-6.44-3.08-9.96-3.82-.64-.13-1.3-.22-2.03-.53,.95-.22,1.78-.38,2.59-.6,.71-.21,1.39-.51,1.95-1.04,1.24-1.2,1.32-2.57,.25-3.91-.06-.08-.11-.17-.19-.3,2.13-.26,4.21-.39,6.29-.37,1.2,0,2.39-.14,3.51-.64,.67-.3,1.24-.74,1.59-1.4,.43-.87,.24-1.74-.55-2.32Z"/><path class="cls-14" d="M94.89,92.12c.97,2.2,5.37,6.1,5.54,6.84s2.62,11.96,2.49,5.37-1.03-10.43,.35-11.16c1.38-.72,2.98-6.63,3-6.69,.77-3.35,1.35-6.74,2.47-10,.39-1.15,.87-2.24,1.52-3.28,.22-.35,.4-.4,.58-.33-.04-.02-2.53-2.41-2.53-2.41h0c.08,.22,.04,.43-.09,.7-.68,1.34-1.1,2.78-1.46,4.24-.6,2.42-.79,4.9-1.26,7.33-.39,1.97-.84,3.93-2.05,5.61-.41,.57-.66,.55-.96-.08-.31-.63-.48-1.31-.63-1.98-.93-4.33-.88-8.76-1.39-13.11-.1-.36,0-.58,.2-.72h0s-3.71-.04-5.35-1.26c.14,.2,.24,.46,.26,.76,.05,.61,.15,1.22,.21,1.82,.14,1.3,.39,2.59,.66,3.86,.04,.21,.27,.64-.4,.57-.11-.04-.32-.07-.52-.16-1.89-.85-3.26-2.3-4.45-3.94-.04-.04-.06-.11-.08-.17l-.03,.02s-.4,1.32-2.26,1.81h0c1.07-.32,1.62,.05,2.23,.83,.28,.35,.65,.64,1,.93,1.31,1.11,2.61,2.23,3.79,3.48,1.03,1.11,1.84,2.3,1.95,3.92,.11,1.53,.46,3.06,.71,4.58,.22,1.34,.46,2.68,.67,3.95-.02,.45,0,.87-.39,1.06-.37,.18-.67-.1-.94-.32-.18-.15-.35-.33-.53-.5-1.08-1-1.77-2.29-2.48-3.54-.89-1.56-2.05-2.49-3.96-2.73-2.84-.36-4.96-1.91-5.99-4.71-.22-.6-.46-1.2-.66-1.81-.92-2.82-1.26-5.8-2.19-8.62-.11-.31-.13-.55-.06-.74l-1.72,1.43c.07,.11,.11,.32,.19,.66,.46,2.14,.77,4.31,1.31,6.44,.71,2.77,1.99,5.25,3.68,7.53,.93,1.24,2.3,1.92,3.6,2.66,2.3,.11,5.35,.51,5.95,1.85Z"/><path class="cls-19" d="M107.09,148.06c.65-2.44,.4-5.45,1.32-10.01s-.35-6.27-.92-9.77c-.57-3.5,.91-4.9,.92-4.91-.37-2.58-.81-5.14-1.32-7.69-.72-3.53-1.62-7.03-2.07-10.61-.32-2.57-.12-5.14,0-7.7,.02-.35,.08-.69,.06-1.04-.15-3.21,.36-6.33,1.09-9.43,.04-.14,.06-.28,.1-.42-.02,.06-1.62,5.96-3,6.69-1.38,.73-.49,4.57-.35,11.16,.13,6.59-2.33-4.64-2.49-5.37-.16-.74-4.56-4.64-5.54-6.84-.6-1.34-3.65-1.74-5.94-1.85,.02,0,.04,.03,.06,.04,.74,.42,1.53,.77,2.2,1.32,1.17,.96,2.14,2.05,2.3,3.64,.14,1.37,1.03,2.25,1.88,3.17,.56,.61,1.18,1.17,1.73,1.8,1.52,1.74,1.98,3.92,2.29,6.08,.84,6.03,2.06,12,2.93,18.02,.4,2.79,.73,5.56,.46,8.39-.47,4.89-1.09,9.74-3.34,14.21-.97,1.95-2.43,3.3-4.34,4.24-1.81,.89-3.69,1.6-5.39,2.69-.4,.25-.81,.53-1.21,.79,.02,.05,.03,.11,.04,.16h7.39s10.51-4.29,11.16-6.74Z"/></g><path class="cls-14" d="M115.2,153.22c-.92-.36-1.89-.58-2.79-1.03-.55-.28-1.08-.59-1.52-1.03-.6-.58-.86-1.2-.75-2.08,.39-3.13,.23-6.26-.09-9.39-.29-2.87-.44-5.76-.72-8.63-.25-2.57-.55-5.13-.92-7.68,0,0-1.49,1.4-.92,4.91s1.84,5.21,.92,9.77-.67,7.56-1.32,10.01c-.65,2.44-11.15,6.74-11.15,6.74h21.96c-.87-.79-1.76-1.23-2.7-1.59Z"/></g><g><rect class="cls-11" x="142.39" y="25.18" width="167.92" height="130.41"/><path class="cls-10" d="M309.71,25.8V154.97H143.02V25.8h166.69m1.23-1.23H141.79V156.2h169.15V24.57h0Z"/></g><rect class="cls-1" y="154.48" width="330.29" height="11.4"/><path class="cls-11" d="M278.51,30.23s0-.04-.02-.04v-.52c.06-.38,.7-.3,.22-.3-.1,0-.2,0-.3,0-.12,0-.2-.02-.34-.05-.32-.07-.6-.18-.8-.38-.34-.38-.16-1,.26-1.36,1.04-.9,2.84-.58,3.8,.29,1.02,.91,1.21,2.37,.5,3.5-.37,.58-1.04,.91-1.66,1.24-.72,.38-1.47,.77-2.01,1.39-1.45,1.69-.89,4.01,.06,5.8,.59,1.1,2.25,.12,1.67-.97-.43-.81-.85-1.81-.67-2.74,.18-.89,.96-1.31,1.7-1.69,.93-.48,1.81-.98,2.44-1.84,.59-.81,.87-1.88,.81-2.87-.13-2.24-1.85-4.06-4.05-4.44-2.16-.38-5.03,.73-4.96,3.31,.04,1.33,1.03,2.3,2.28,2.62,.59,.16,1.32,.25,1.92,.08,.81-.23,1.35-1.23,.81-1.97-.31-.42-.84-.63-1.32-.35-.43,.23-.67,.88-.36,1.31h0Z"/><g><g><rect class="cls-14" x="29.17" y="150.24" width="2.24" height="4.93"/><rect class="cls-14" x="48.69" y="150.24" width="2.24" height="4.93"/></g><path class="cls-2" d="M26.5,105.63v44.61h27.1v-44.61H26.5Zm24.23,42.15H29.37v-39.7h21.36v39.7Z"/><rect class="cls-3" x="29.37" y="108.09" width="21.36" height="39.7"/><path class="cls-4" d="M53.6,105.63v22.58s-3.08-6.19-9.12-2.52c-6.05,3.66-7.51,1.64-9.71,.88-2.2-.75-8.27,3.49-8.27,8.02v-28.96h27.1Z"/><rect class="cls-21" x="30.76" y="118.12" width="12.5" height=".45"/><rect class="cls-21" x="30.76" y="122.24" width="12.5" height=".45"/><rect class="cls-21" x="30.76" y="126.36" width="12.5" height=".45"/><rect class="cls-21" x="30.76" y="130.48" width="12.5" height=".45"/><rect class="cls-21" x="30.76" y="134.6" width="12.5" height=".45"/><rect class="cls-21" x="30.76" y="138.71" width="12.5" height=".45"/><path class="cls-21" d="M44.44,111.3s-.07-.05-.14-.05c-.1,0-.17,.02-.22,.06-.05,.04-.09,.11-.11,.19-.07,.25-.14,.47-.21,.65-.07,.18-.15,.32-.21,.4-.07,.09-.12,.13-.17,.13-.04,0-.05,0-.07-.04s-.03-.07-.03-.13c0-.11,.03-.31,.09-.61,.02-.09,.04-.18,.07-.3,.04-.13,.05-.21,.05-.24,0-.04,0-.07-.04-.1-.03-.02-.07-.03-.13-.03-.11,0-.2,.02-.25,.06-.05,.04-.1,.11-.12,.19-.07,.2-.11,.39-.15,.58-.02,.13-.04,.28-.04,.43-.09,.1-.16,.17-.21,.22-.08,.07-.15,.11-.21,.11-.09,0-.13-.06-.13-.18,0-.08,.03-.25,.09-.51,.06-.3,.1-.51,.1-.62,0-.19-.1-.29-.29-.29-.1,0-.2,.04-.32,.11-.11,.07-.24,.18-.35,.34-.12,.16-.23,.36-.32,.61,0-.13,.03-.24,.04-.32s.04-.19,.07-.31c.04-.17,.07-.27,.07-.32s0-.07-.04-.09c-.03-.02-.06-.03-.12-.03-.11,0-.19,.02-.25,.06-.06,.04-.11,.11-.13,.18-.1,.32-.15,.65-.16,.99-.1,.1-.21,.18-.33,.25-.17,.1-.32,.14-.45,.14-.2,0-.34-.07-.42-.2,.34-.09,.59-.2,.74-.34,.15-.15,.22-.32,.22-.52,0-.18-.05-.31-.16-.41s-.24-.15-.41-.15c-.19,0-.36,.05-.51,.16-.15,.11-.27,.24-.35,.41-.09,.18-.13,.36-.13,.56,0,.06,0,.13,.02,.18-.06,.06-.11,.12-.16,.16-.08,.07-.15,.11-.21,.11-.09,0-.13-.06-.13-.18,0-.08,.03-.25,.09-.51,.06-.3,.1-.51,.1-.62,0-.19-.1-.29-.29-.29-.16,0-.32,.08-.5,.25s-.34,.43-.49,.79c0-.05,.03-.13,.05-.24,.05-.25,.09-.41,.09-.51s-.02-.17-.06-.22c-.04-.04-.11-.07-.22-.07s-.21,.04-.32,.11-.23,.19-.34,.35c-.11,.16-.2,.35-.28,.58,0-.13,.03-.24,.04-.32s.04-.18,.07-.31c.04-.17,.07-.27,.07-.32s0-.07-.04-.09c-.03-.02-.06-.03-.12-.03-.11,0-.19,.02-.25,.06-.06,.04-.11,.11-.13,.18-.11,.34-.17,.7-.17,1.09,0,.25,.03,.45,.07,.56s.12,.18,.24,.18c.09,0,.16-.03,.2-.07,.04-.05,.08-.14,.11-.28,.04-.16,.09-.32,.15-.48s.13-.3,.19-.4c.07-.11,.12-.16,.17-.16,.04,0,.05,.03,.05,.07,0,.06,0,.18-.04,.37-.03,.21-.04,.37-.04,.48,0,.13,.03,.25,.07,.33,.04,.1,.12,.14,.22,.14s.16-.03,.2-.07,.08-.14,.11-.28c.04-.18,.11-.35,.18-.51s.14-.29,.21-.39c.07-.1,.12-.15,.17-.15,.04,0,.05,.03,.05,.07,0,.07-.02,.2-.06,.39-.04,.21-.06,.36-.06,.44,0,.17,.04,.29,.11,.38,.08,.09,.19,.13,.34,.13,.18,0,.35-.05,.49-.15,.08-.05,.17-.12,.24-.2,.03,.04,.05,.07,.09,.1,.17,.17,.41,.25,.72,.25,.23,0,.44-.05,.63-.17,.09-.04,.16-.1,.23-.15,0,.05,.03,.1,.04,.14,.04,.11,.12,.18,.24,.18,.09,0,.16-.03,.2-.07,.04-.05,.08-.14,.11-.28,.04-.18,.11-.35,.18-.51s.14-.29,.21-.39c.07-.1,.12-.15,.16-.15s.04,.03,.04,.07c0,.07-.02,.2-.05,.39-.04,.21-.06,.36-.06,.44,0,.17,.04,.29,.11,.38,.08,.09,.19,.13,.34,.13,.18,0,.35-.05,.49-.15,.06-.04,.13-.1,.19-.15,.02,.05,.04,.1,.07,.13,.09,.11,.19,.17,.33,.17,.11,0,.22-.05,.32-.17,.1-.11,.18-.26,.22-.47,0,.11,0,.18,0,.22,0,.17,.02,.27,.06,.33,.04,.06,.11,.09,.23,.09,.11,0,.18-.03,.22-.07,.04-.05,.07-.13,.07-.24,0-.19,0-.37,.03-.53s.04-.32,.07-.51c.02-.1,.03-.18,.04-.27,0-.09,.02-.17,.02-.25-.03-.04-.04-.1-.07-.13Zm-5.1,1.03c0-.18,.04-.33,.11-.46,.07-.12,.17-.19,.27-.19,.05,0,.1,.02,.12,.05,.04,.04,.04,.08,.04,.13,0,.11-.05,.2-.15,.29-.1,.08-.24,.14-.41,.18h0Z"/></g><g><g><rect class="cls-16" x="153.14" y="58.86" width="33.92" height="90.83"/><path class="cls-10" d="M186.45,59.47v89.6h-32.7V59.47h32.7m1.23-1.23h-35.15v92.06h35.15V58.25h0Z"/></g><polygon class="cls-10" points="187.67 58.25 183.65 62.28 156.55 62.28 152.52 58.25 187.67 58.25"/><polygon class="cls-10" points="187.67 150.3 183.65 146.28 156.55 146.28 152.52 150.3 187.67 150.3"/><polygon class="cls-11" points="183.64 71.81 156.55 98.78 156.55 122.34 183.64 95.38 183.64 71.81"/><polygon class="cls-22" points="183.64 62.28 183.63 62.28 156.55 89.22 156.55 98.78 183.64 71.81 183.64 62.28"/><polygon class="cls-11" points="156.55 62.28 156.55 89.22 183.63 62.28 156.55 62.28"/><polygon class="cls-11" points="183.64 106.28 156.55 133.24 156.55 144.41 183.64 117.45 183.64 106.28"/><polygon class="cls-11" points="183.64 121.41 158.66 146.28 183.64 146.28 183.64 121.41"/><polygon class="cls-22" points="183.64 95.38 156.55 122.34 156.55 133.24 183.64 106.28 183.64 95.38"/><polygon class="cls-22" points="183.64 117.45 156.55 144.41 156.55 146.28 158.66 146.28 183.64 121.41 183.64 117.45"/></g><g><path class="cls-10" d="M245.52,58.25v59.77h45.82V58.25h-45.82Zm44.53,58.48h-43.25V59.54h43.25v57.18Z"/><path class="cls-10" d="M197.31,58.25v59.77h45.82V58.25h-45.82Zm44.53,58.48h-43.25V59.54h43.25v57.18Z"/><polygon class="cls-10" points="283.4 66.06 283.4 116.72 290.06 116.72 290.06 59.53 283.4 66.06"/><polygon class="cls-9" points="246.81 59.53 290.06 59.53 283.4 66.06 246.81 66.06 246.81 59.53"/><polygon class="cls-10" points="205.26 66.06 205.26 116.72 198.6 116.72 198.6 59.53 205.26 66.06"/><polygon class="cls-9" points="241.85 59.53 198.6 59.53 205.26 66.06 241.85 66.06 241.85 59.53"/><g><polygon class="cls-16" points="246.81 66.06 246.81 70.09 250.91 66.06 246.81 66.06"/><polygon class="cls-6" points="250.91 66.06 246.81 70.09 246.81 83.26 264.29 66.06 250.91 66.06"/><polygon class="cls-6" points="283.4 101.77 268.37 116.72 272.47 116.72 283.4 105.84 283.4 101.77"/><polygon class="cls-16" points="241.85 66.06 226.8 66.06 205.26 87.5 205.26 111.2 241.85 74.79 241.85 66.06"/><polygon class="cls-6" points="221.23 66.06 205.26 81.95 205.26 87.5 226.8 66.06 221.23 66.06"/><polygon class="cls-16" points="205.26 66.06 205.26 81.95 221.23 66.06 205.26 66.06"/><polygon class="cls-6" points="241.85 74.79 205.26 111.2 205.26 116.72 213.18 116.72 241.85 88.18 241.85 74.79"/><polygon class="cls-16" points="241.85 88.18 213.18 116.72 225.22 116.72 241.85 100.16 241.85 88.18"/><polygon class="cls-16" points="241.85 106.56 231.64 116.72 241.85 116.72 241.85 106.56"/><polygon class="cls-6" points="241.85 100.16 225.22 116.72 231.64 116.72 241.85 106.56 241.85 100.16"/><polygon class="cls-16" points="283.4 66.06 283 66.06 246.81 101.67 246.81 116.72 268.37 116.72 283.4 101.77 283.4 66.06"/><polygon class="cls-16" points="283.4 105.84 272.47 116.72 283.4 116.72 283.4 105.84"/><polygon class="cls-16" points="264.29 66.06 246.81 83.26 246.81 95.29 276.52 66.06 264.29 66.06"/><polygon class="cls-6" points="276.52 66.06 246.81 95.29 246.81 101.67 283 66.06 276.52 66.06"/></g></g><polygon class="cls-8" points="271.03 27 238.83 58.47 266.1 58.47 298.01 27 271.03 27"/><polygon class="cls-8" points="298.29 41.51 281.03 58.47 271.46 58.47 288.31 41.89 298.29 41.51"/><polygon class="cls-5" points="197.31 118.01 187.67 127.83 187.67 150.3 162.94 150.3 162.94 150.3 152.52 150.3 152.52 150.3 141.79 150.3 141.79 156.19 152.52 156.19 162.94 156.19 255.55 156.19 291.34 118.01 197.31 118.01"/><rect class="cls-18" y="154.48" width="330.29" height="5.71"/><polygon class="cls-8" points="188.6 27.34 156.41 58.81 183.68 58.81 215.58 27.34 188.6 27.34"/><polygon class="cls-8" points="230.92 41.28 213.67 58.24 204.1 58.24 220.94 41.66 230.92 41.28"/><rect class="cls-15" x="135.83" y=".9" width="180.09" height="26.21"/><g><text class="cls-12" transform="translate(163.14 18.51)"><tspan x="0" y="0">The Golden Hills Cafe</tspan></text><text class="cls-13" transform="translate(162.61 17.52)"><tspan x="0" y="0">The Golden Hills Cafe</tspan></text></g></svg>