<?xml version="1.0" encoding="UTF-8"?><svg id="OBJECTS" xmlns="http://www.w3.org/2000/svg" xmlns:xlink="http://www.w3.org/1999/xlink" viewBox="0 0 363.93 178.33"><defs><style>.cls-1{fill:url(#linear-gradient-6);}.cls-1,.cls-2,.cls-3,.cls-4,.cls-5,.cls-6,.cls-7,.cls-8,.cls-9,.cls-10,.cls-11,.cls-12,.cls-13,.cls-14,.cls-15,.cls-16,.cls-17,.cls-18,.cls-19,.cls-20,.cls-21,.cls-22,.cls-23,.cls-24,.cls-25,.cls-26,.cls-27,.cls-28,.cls-29,.cls-30,.cls-31,.cls-32,.cls-33,.cls-34,.cls-35,.cls-36,.cls-37,.cls-38,.cls-39,.cls-40,.cls-41,.cls-42,.cls-43,.cls-44,.cls-45,.cls-46,.cls-47,.cls-48,.cls-49,.cls-50,.cls-51,.cls-52,.cls-53,.cls-54,.cls-55,.cls-56,.cls-57,.cls-58,.cls-59,.cls-60,.cls-61,.cls-62,.cls-63,.cls-64,.cls-65,.cls-66,.cls-67,.cls-68,.cls-69,.cls-70,.cls-71,.cls-72,.cls-73,.cls-74,.cls-75,.cls-76,.cls-77,.cls-78,.cls-79,.cls-80,.cls-81,.cls-82,.cls-83{stroke:#000;}.cls-2,.cls-84,.cls-85,.cls-26,.cls-40,.cls-42{stroke-miterlimit:10;}.cls-2,.cls-84,.cls-30,.cls-40,.cls-41,.cls-47,.cls-63,.cls-69,.cls-79,.cls-82{stroke-width:.5px;}.cls-2,.cls-39,.cls-41,.cls-65{fill:#7c294f;}.cls-3{stroke-width:.72px;}.cls-3,.cls-6,.cls-9,.cls-15,.cls-17,.cls-18,.cls-19,.cls-20,.cls-22,.cls-85,.cls-26,.cls-30,.cls-44,.cls-49,.cls-52,.cls-56,.cls-57,.cls-59,.cls-86,.cls-62,.cls-67,.cls-78,.cls-80{fill:none;}.cls-4{fill:url(#linear-gradient-4);}.cls-87,.cls-14,.cls-16,.cls-23,.cls-24,.cls-27,.cls-29,.cls-31,.cls-61,.cls-66,.cls-68,.cls-72,.cls-74,.cls-81,.cls-82,.cls-83{fill:#fff;}.cls-5{stroke-width:1.13px;}.cls-5,.cls-21,.cls-33{fill:#4c721d;}.cls-6{stroke-width:.8px;}.cls-7{fill:#4d4d4d;}.cls-7,.cls-85,.cls-35,.cls-38,.cls-39,.cls-54,.cls-73{stroke-width:.25px;}.cls-8{fill:url(#linear-gradient-7);}.cls-8,.cls-10,.cls-12,.cls-26,.cls-44,.cls-46,.cls-51,.cls-60{stroke-width:.75px;}.cls-9{stroke-width:.51px;}.cls-10{fill:#c68400;}.cls-11{fill:url(#linear-gradient-3);}.cls-12{fill:url(#linear-gradient-24);}.cls-13{fill:url(#linear-gradient-15);}.cls-13,.cls-20,.cls-25,.cls-28,.cls-34,.cls-36,.cls-43,.cls-55,.cls-58,.cls-70,.cls-71,.cls-75,.cls-76{stroke-width:.53px;}.cls-88{fill:#4a8284;}.cls-14{stroke-width:.65px;}.cls-15{stroke-width:.38px;}.cls-16,.cls-18{stroke-width:.62px;}.cls-17{stroke-width:.68px;}.cls-19{stroke-width:.55px;}.cls-84{fill:#bf1e2d;stroke:#e8e8e8;}.cls-89,.cls-42{fill:#54213b;}.cls-22{stroke-width:.68px;}.cls-23{stroke-width:1.11px;}.cls-85{stroke:#e2e2e2;}.cls-24,.cls-50{stroke-width:1.13px;}.cls-25{fill:url(#linear-gradient-14);}.cls-27{stroke-width:.27px;}.cls-28{fill:url(#linear-gradient-23);}.cls-29,.cls-45,.cls-65{stroke-width:1px;}.cls-31,.cls-59{stroke-width:.81px;}.cls-32{fill:url(#linear-gradient-5);}.cls-33{stroke-width:.95px;}.cls-34{fill:url(#linear-gradient-21);}.cls-35{fill:#9e6604;}.cls-90{fill:#7d9959;isolation:isolate;opacity:.6;}.cls-36{fill:url(#linear-gradient-16);}.cls-37{fill:#491a37;}.cls-38,.cls-91{fill:#999;}.cls-40,.cls-47{fill:#b3b3b3;}.cls-92{fill:#64b6bc;}.cls-43{fill:url(#linear-gradient-12);}.cls-45{fill:#915774;}.cls-46,.cls-54{fill:#666;}.cls-48{fill:#fff200;stroke-width:.56px;}.cls-49{stroke-width:.59px;}.cls-93{fill:#bc865e;}.cls-51{fill:url(#linear-gradient-9);}.cls-52{stroke-width:.46px;}.cls-53{fill:url(#linear-gradient-2);}.cls-55{fill:url(#linear-gradient-19);}.cls-56{stroke-width:.64px;}.cls-57{stroke-width:.68px;}.cls-58{fill:url(#linear-gradient-11);}.cls-60{fill:url(#linear-gradient-8);}.cls-61{stroke-width:.61px;}.cls-62{stroke-width:.63px;}.cls-63{fill:#83fffc;}.cls-94{fill:#d3a273;}.cls-95{fill:#95b27b;}.cls-96{fill:#660003;}.cls-66{stroke-width:.5px;}.cls-67{stroke-width:.41px;}.cls-68{stroke-width:.93px;}.cls-69{fill:url(#linear-gradient-17);}.cls-70{fill:url(#linear-gradient-13);}.cls-71{fill:url(#linear-gradient-22);}.cls-73{fill:url(#linear-gradient-25);}.cls-74{stroke-width:1px;}.cls-75{fill:url(#linear-gradient-20);}.cls-76{fill:url(#linear-gradient-18);}.cls-77{fill:url(#linear-gradient);}.cls-79{fill:url(#linear-gradient-10);}.cls-80{stroke-width:.53px;}.cls-81{stroke-width:.26px;}.cls-83{stroke-width:1.09px;}.cls-97{fill:#5c7242;}</style><linearGradient id="linear-gradient" x1="-27.12" y1="372.05" x2="-26.59" y2="372.05" gradientTransform="translate(824.86 11739.09) scale(26.68 -31.35)" gradientUnits="userSpaceOnUse"><stop offset="0" stop-color="#7da7d8"/><stop offset=".07" stop-color="#35517c"/><stop offset=".5" stop-color="#dee6f5"/><stop offset=".62" stop-color="#bacdea"/><stop offset=".66" stop-color="#b6cbe9"/><stop offset=".71" stop-color="#aac3e6"/><stop offset=".76" stop-color="#97b7e0"/><stop offset=".8" stop-color="#7ea7d8"/><stop offset=".81" stop-color="#7aa6d8"/><stop offset="1" stop-color="#174d6b"/></linearGradient><linearGradient id="linear-gradient-2" x1="-27.18" y1="372.4" x2="-26.66" y2="372.4" gradientTransform="translate(850.49 11646.3) scale(27.57 -31.03)" xlink:href="#linear-gradient"/><linearGradient id="linear-gradient-3" x1="-28.58" y1="377.29" x2="-28.05" y2="377.29" gradientTransform="translate(1318.75 22795.42) scale(41.69 -60.2)" xlink:href="#linear-gradient"/><linearGradient id="linear-gradient-4" x1="-28.58" y1="378.16" x2="-28.05" y2="378.16" gradientTransform="translate(1318.75 22904.09) scale(41.69 -60.2)" xlink:href="#linear-gradient"/><linearGradient id="linear-gradient-5" x1="-29.12" y1="378.12" x2="-28.6" y2="378.12" gradientTransform="translate(951.62 22736.04) scale(27.2 -59.76)" xlink:href="#linear-gradient"/><linearGradient id="linear-gradient-6" x1="-29.12" y1="377.3" x2="-28.6" y2="377.3" gradientTransform="translate(951.62 22770.61) scale(27.2 -60.13)" xlink:href="#linear-gradient"/><linearGradient id="linear-gradient-7" x1="-27.09" y1="378.12" x2="-26.57" y2="378.12" gradientTransform="translate(816.5 22736.06) scale(26.4 -59.76)" xlink:href="#linear-gradient"/><linearGradient id="linear-gradient-8" x1="-30.48" y1="372.4" x2="-29.96" y2="372.4" gradientTransform="translate(990.03 11996.93) scale(26 -32)" xlink:href="#linear-gradient"/><linearGradient id="linear-gradient-9" x1="-32.83" y1="373.69" x2="-32.31" y2="373.69" gradientTransform="translate(959.31 11809.5) scale(21.62 -31.25)" xlink:href="#linear-gradient"/><linearGradient id="linear-gradient-10" x1="-34.7" y1="377.88" x2="-34.18" y2="377.88" gradientTransform="translate(482.87 21537.15) scale(7.75 -56.62)" xlink:href="#linear-gradient"/><linearGradient id="linear-gradient-11" x1="275.96" y1="1189.68" x2="276.33" y2="1189.68" gradientTransform="translate(2216.74 5891.29) rotate(-45) scale(4.6 -4.6)" xlink:href="#linear-gradient"/><linearGradient id="linear-gradient-12" x1="276.12" y1="1188.91" x2="276.49" y2="1188.91" gradientTransform="translate(2216.74 5892.69) rotate(-45.06) scale(4.6 -4.6) skewX(.12)" xlink:href="#linear-gradient"/><linearGradient id="linear-gradient-13" x1="276.19" y1="1188.11" x2="276.56" y2="1188.11" gradientTransform="translate(2216.74 5881.76) rotate(-45.06) scale(4.6 -4.6) skewX(.12)" xlink:href="#linear-gradient"/><linearGradient id="linear-gradient-14" x1="276.13" y1="1187.57" x2="276.5" y2="1187.57" gradientTransform="translate(2216.74 5862.65) rotate(-45) scale(4.6 -4.6)" xlink:href="#linear-gradient"/><linearGradient id="linear-gradient-15" x1="276.3" y1="1186.8" x2="276.67" y2="1186.8" gradientTransform="translate(2216.74 5863.95) rotate(-45.06) scale(4.6 -4.6) skewX(.12)" xlink:href="#linear-gradient"/><linearGradient id="linear-gradient-16" x1="276.27" y1="1185.93" x2="276.64" y2="1185.93" gradientTransform="translate(2221.14 5840.33) rotate(-44.94) scale(4.6 -4.6) skewX(-.12)" xlink:href="#linear-gradient"/><linearGradient id="linear-gradient-17" x1="-31.33" y1="377.89" x2="-30.81" y2="377.89" gradientTransform="translate(434.24 21537.15) scale(7.75 -56.62)" xlink:href="#linear-gradient"/><linearGradient id="linear-gradient-18" x1="281.6" y1="1185.68" x2="281.96" y2="1185.68" gradientTransform="translate(2172.37 5891.29) rotate(-44.94) scale(4.6 -4.6) skewX(-.12)" xlink:href="#linear-gradient"/><linearGradient id="linear-gradient-19" x1="281.76" y1="1184.92" x2="282.13" y2="1184.92" gradientTransform="translate(2172.37 5892.69) rotate(-45) scale(4.61 -4.61)" xlink:href="#linear-gradient"/><linearGradient id="linear-gradient-20" x1="281.83" y1="1184.11" x2="282.2" y2="1184.11" gradientTransform="translate(2172.37 5881.76) rotate(-45) scale(4.61 -4.61)" xlink:href="#linear-gradient"/><linearGradient id="linear-gradient-21" x1="281.77" y1="1183.57" x2="282.14" y2="1183.57" gradientTransform="translate(2172.37 5862.65) rotate(-44.94) scale(4.6 -4.6) skewX(-.12)" xlink:href="#linear-gradient"/><linearGradient id="linear-gradient-22" x1="281.94" y1="1182.81" x2="282.31" y2="1182.81" gradientTransform="translate(2172.37 5863.95) rotate(-45) scale(4.61 -4.61)" xlink:href="#linear-gradient"/><linearGradient id="linear-gradient-23" x1="281.89" y1="1181.95" x2="282.26" y2="1181.95" gradientTransform="translate(2168.24 5840.33) rotate(-45) scale(4.6 -4.6)" xlink:href="#linear-gradient"/><linearGradient id="linear-gradient-24" x1="-30.49" y1="377.84" x2="-29.97" y2="377.84" gradientTransform="translate(979.58 21346.57) scale(25.62 -56.12)" xlink:href="#linear-gradient"/><linearGradient id="linear-gradient-25" x1="-30.73" y1="377.43" x2="-30.21" y2="377.43" gradientTransform="translate(854.03 19693.93) scale(21.31 -51.81)" xlink:href="#linear-gradient"/></defs><g><g><path class="cls-86" d="M51.65,88.61c-.11-.06-.23-.12-.39-.16-.43-.11-.86-.28-1.28-.44-1.61-.65-2.77-1.82-3.78-3.2-.61-.85-.91-.82-1.52,.04-.32,.43-.57,.91-.92,1.33-.1,.12-.15,.22-.19,.33,.11,.04,6.8,2.56,6.96,2.55,.17-.03,1.07-.43,1.11-.46h.01Z"/><path class="cls-86" d="M61.91,89.97c-.12-1.73-1.62-3.16-3.37-3.24-.54-.03-.96,.18-1.23,.55l4.56,2.91c.03-.08,.04-.16,.03-.22Z"/><path class="cls-86" d="M71.54,87.66h0c-.08-.25-.32-.41-.72-.53-.86-.24-1.28-.11-1.56,.68-.2,.56-.31,1.15-.49,1.71-.62,2.01-2.43,3.29-4.29,2.66l-.19-.06,.34,2.33,6.91-6.79h-.01Z"/><path class="cls-86" d="M56.81,90.01c-.15,1.38-.41,2.74-.7,4.09-.04,.22-.29,.68,.42,.6,.12-.04,.34-.07,.55-.17,2-.9,3.45-2.43,4.71-4.17,.04-.04,.06-.12,.08-.18l-4.56-2.91c-.15,.21-.25,.49-.28,.8-.06,.64-.17,1.29-.23,1.93h0Z"/><path class="cls-97" d="M.83,74.92c1.23-.9,2.59-1.16,4.09-1.02,.02-.07,.05-.12,.04-.16-.61-1.86,.02-2.45,1.92-2.9,1.71-.41,3.36,0,5,.4,.3,.07,.66,.28,.84-.02,.19-.34-.13-.62-.36-.87-.54-.58-1.1-1.15-1.59-1.77-.86-1.09-.57-2.36,.69-2.95,1.88-.86,3.84-.73,5.79-.22,2.82,.73,5.13,2.23,6.96,4.49,.16,.19,.28,.47,.6,.26,.94-.56,1.99-.6,3.04-.71,.79-.07,1.02-.4,.64-1.06-1.28-2.21,.34-4.4,1.95-5.17,.39-.18,.78-.32,1.17-.49,.24-.11,.5-.23,.49-.53-.02-.33-.28-.5-.56-.56-1.06-.19-2.12-.39-3.19-.54-1.55-.22-3.09-.47-4.56-.98-3.38-1.2-4.55-3.45-3.65-6.93,.04-.16,.07-.33,.12-.5-1.79-.33-3.52-.72-5.21-1.38-2.63-1.02-2.77-3.33-1.12-5.19,1.77-1.99,4.01-2.74,6.64-2.16,.55,.12,.64-.08,.87-.44,.91-1.47,2.12-2.54,3.95-2.67,1.08-.07,1.66,.62,2.2,1.34,.38,.51,.64,1.12,.99,1.75,1.3-1.43,2.86-1.49,4.55-.87,1.7,.64,2.29,1.77,1.6,3.44-.25,.59-.11,.76,.41,.95,.9,.34,1.77,.77,2.67,1.12,1.1,.42,1.53,.24,2.05-.79,.14-.28,.25-.57,.42-.84,.42-.62,.48-1.16,0-1.84-.52-.75-.28-1.59,.22-2.31,.36-.51,.78-.98,1.11-1.5,.98-1.53,.65-2.53-1.03-3.2-1.12-.44-2.32-.55-3.48-.78-.84-.17-1.77-.28-2.06-1.25-.29-.93,.26-1.65,.84-2.29,1.75-1.94,3.91-2.98,6.56-2.84,.49,.03,.74,.02,.56-.61-.26-.94-.19-1.92,0-2.87,.42-2.25,2.36-3.58,5.13-3.47,.68,.03,1.35,.13,2.02,.25,.57,.11,.8-.08,.77-.66-.05-.89,.7-1.68,.6-2.39-.1-.64-1.22-.97-1.64-1.71-.71-1.24-.72-2.57,.05-3.5,.84-1.02,2.47-1.31,4-.74,.84-2.67,2.65-3.75,5.37-3.19,1.53,.32,2.33,1.39,2.2,2.95-.13,1.52-.79,2.82-1.75,4-.14,.18-.47,.34-.31,.64,.12,.21,.41,.13,.64,.16,.39,.04,.78,.08,1.19,.11,2.79,.14,4.29,2.79,2.95,5.25-.54,.98-1.32,1.77-2.11,2.55-.64,.64-.56,.9,.29,1.14,.47,.13,.94,.19,1.42,.29,1.48,.29,2.75,.92,3.51,2.29,.24,.43,.53,.34,.85,.24,2.38-.79,4.84-1.1,7.31-.97,1.46,.07,2.9,.29,4.22,1.02,1.44,.78,1.64,1.83,.64,3.1-.47,.58-1.04,1.04-1.61,1.49-.18,.14-.4,.22-.41,.52,1.32-.2,2.65-.29,3.96,0,.32,.06,.58,.19,.86,.34,1.31,.71,1.56,1.77,.71,3.02-.33,.47-.68,.9-1.09,1.33,1.32-.41,2.67-.69,4.02-.85,1.53-.18,3.04-.13,4.47,.56,1.45,.71,1.65,1.85,.58,3.06-.91,1.03-2.04,1.77-3.24,2.51,.56,.49,1.1,.94,1.63,1.41,.62,.56,1.21,1.2,1.46,1.97,.31,.96,.9,.92,1.65,.78,3.74-.69,7.39-.41,10.92,1.07,.92,.38,1.77,.89,2.5,1.58,1.29,1.2,1.19,2.49-.24,3.51-.96,.7-2.06,1.15-3.12,1.65-.22,.11-.58,.12-.6,.38-.02,.31,.36,.38,.58,.52,1.13,.68,2.4,1.11,3.33,2.12,1.31,1.42,1.02,3.04-.76,3.81-1.42,.62-2.87,.4-4.31,.12-.66-.13-1.31-.37-2.14-.19,.83,1.19,.52,2.21-.53,3.08,.88,.4,1.66,.8,2.36,1.42,.67,.58,1.46,.08,2.17-.05,2-.4,4.01-.65,6.03-.23,2.24,.47,4.51,2.65,4.87,4.56,.18,.96-.23,1.71-.79,2.38-1.53,1.79-1.14,1.66,.48,2.54,1.32,.72,2.53,1.58,3.57,2.69,1.68,1.84,1.51,3.69-.51,5.18-1.34,.99-2.86,1.67-4.33,2.41-.23,.12-.65,.17-.59,.5,.04,.29,.42,.29,.69,.36,3.78,1.17,7.2,3.04,10.19,5.59,1.65,1.41,3.2,2.95,4.1,5.02,1.42,3.23-.65,5.83-3.94,6.04-2.75,.18-5.26-.71-7.72-1.82-2.69-1.21-5.38-2.41-8.08-3.59-.2-.1-.47-.36-.69-.12-.17,.19-.05,.48,0,.73,.48,2.14,.67,4.22-.72,6.14-1.12,1.53-3.59,2.5-5.46,2.16-5.06-.91-7.65-4.34-9.2-8.87-.29-.84-.51-1.68-.79-2.64-.71,.87-1.42,1.62-2.28,2.24-4.48,3.26-8.97,1.64-11.23-3.27-.94-2.06-1.14-4.29-1.03-6.53,.03-.57-.11-.95-.68-1.19-.41-.17-.78-.48-1.14-.73-.49-.34-.67-.49-.78-.3l-1.82-1.51c-.08-.25-.32-.41-.71-.53-.86-.24-1.28-.11-1.56,.68-.2,.56-.31,1.15-.49,1.71-.62,2.01-2.43,3.29-4.29,2.66-.06-.03-.13-.04-.19-.06-.98-.26-1.59-.74-1.94-1.15s-.47-.77-.47-.77l-.03-.02c.02-.07,.03-.15,.03-.21-.12-1.73-1.62-3.16-3.37-3.24-.54-.03-.96,.18-1.23,.55-.87,.65-2.29,.98-3.48,1.15-1.2,.18-2.18,.19-2.18,.19h0c-.11-.06-.23-.12-.39-.16-.43-.11-.86-.28-1.28-.44-1.61-.65-2.77-1.82-3.78-3.2-.61-.85-.91-.8-1.52,.04-.32,.43-.57,.91-.92,1.33-.1,.12-.16,.22-.19,.33h0s-2.64,2.53-2.67,2.55c-.24,.1-.46,.39-.69,.49-.64,.24-.12,.5,.05,.72,.91,1.2,.83,2.95-.19,4.14-2.2,2.56-5.75,3.37-9.27,2.11-.82-.3-1.62-.62-2.45-.87-1.08-.33-1.38-.11-1.46,1.01-.19,2.76-2.96,5.76-5.81,6.41-1.87,.43-3.41-.28-4.94-1.16-.62-.36-1.12-1.16-1.83-1.09-.72,.07-1.03,.97-1.57,1.47-1.06,.99-2.2,1.62-3.72,1.28-2.38-.54-3.42-2.29-2.67-4.62,.23-.71,.56-1.4,.88-2.17-1.09-.17-2.19,.07-3.25-.22-.83-.23-1.61-.49-2.21-1.16-.55-.62-.64-1.39-.19-2.09,.72-1.12,1.8-1.84,2.87-2.58,3.19-2.21,6.82-3.26,10.54-4.04,.68-.14,1.38-.23,2.15-.56-1.01-.23-1.88-.4-2.74-.64-.75-.22-1.47-.54-2.06-1.1-1.31-1.27-1.4-2.72-.26-4.14,.06-.08,.12-.18,.2-.32-2.25-.28-4.46-.41-6.66-.39-1.27,0-2.53-.15-3.72-.68-.71-.32-1.31-.78-1.68-1.48-.48-.94-.26-1.87,.56-2.49l-.06-.05Z"/><path class="cls-95" d="M64.37,69.48c.31,.29,.66,.54,1.02,.77,.79,.55,1.62,1.04,2.4,1.61,1.4,1.03,2.55,2.28,3.05,3.98,.16,.56,.41,.67,.94,.69,1.98,.06,3.88,.5,5.65,1.42,1.41,.72,1.73,1.7,1.16,3.19-.08,.21-.31,.41-.12,.74,1.71-.86,3.47-1.6,5.4-1.71,2.77-.17,5.39,.19,7.41,2.39,.08,.1,.25,.22,.34,.19,1.11-.28,2.29-.06,3.58-.3-1.12-.69-2.11-1.29-3.08-1.89-.66-.4-1.26-.86-1.71-1.48-.56-.75-.43-1.47,.33-2.02,.62-.44,1.34-.68,2.05-.94,.88-.34,1.86-.37,2.79-.9-.43-.39-.88-.49-1.3-.62-1.78-.59-3.6-1.11-5.13-2.28-.56-.41-1.13-.94-.92-1.68,.2-.73-.19-.92-.68-1.13-.15-.06-.32-.13-.44-.23-.4-.32-.59-.34-.82,.23-.8,2.04-2.71,3.2-4.9,3.11-1.28-.04-2.43-.5-3.57-1.03-1.92-.88-3.62-2.13-5.43-3.19-1.44-.85-2.96-1.44-4.65-1.53-1.09-.06-2.16,.03-3.12,.6-.94,.56-1.03,1.24-.25,1.99v.03Z"/><path class="cls-95" d="M61.13,41.31c1.46,.26,2.1,1.23,1.66,2.65-.15,.49-.39,.94-.62,1.39-.35,.68-.75,1.33-1.1,2.01-.32,.59-.26,1.22,.26,1.62,1.26,.96,2.06,2.24,2.67,3.66,.19,.41,.36,.46,.61,.04,.49-.77,1.07-1.46,1.7-2.12,.22-.22,.3-.48,.24-.77-.56-2.94,.71-5.06,3.02-6.72,.2-.14,.51-.19,.57-.48,.15-.76,.58-1.39,.95-2.05,.34-.62,.06-.75-.49-.71-.75,.07-1.5,.21-2.27,.26-1.68,.12-3.39,.29-4.96-.53-.23-.12-.38-.16-.59,0-.71,.5-1.44,.99-2.36,1.61,.36,.07,.53,.1,.7,.12v.02Z"/><path class="cls-90" d="M.83,74.91c1.23-.9,2.59-1.17,4.09-1.02,.02-.07,.05-.12,.04-.16-.61-1.86,.02-2.45,1.92-2.9,1.71-.41,3.36,0,5,.4,.3,.07,.66,.28,.84-.02,.19-.34-.13-.62-.36-.87-.54-.58-1.1-1.15-1.59-1.77-.86-1.09-.57-2.36,.69-2.95,1.88-.86,3.84-.73,5.79-.22,2.82,.73,5.13,2.23,6.96,4.49,.16,.19,.28,.47,.6,.26,.94-.56,1.99-.6,3.04-.71,.79-.07,1.02-.4,.64-1.06-1.28-2.21,.34-4.4,1.95-5.17,.39-.18,.78-.33,1.17-.49,.24-.11,.5-.23,.49-.53-.02-.33-.28-.5-.56-.56-1.06-.19-2.12-.39-3.19-.54-1.55-.22-3.09-.47-4.56-.98-3.38-1.2-4.55-3.45-3.65-6.93,.04-.16,.07-.33,.12-.5-1.79-.33-3.52-.72-5.21-1.38-2.63-1.02-2.77-3.33-1.12-5.19,1.77-1.99,4.01-2.74,6.64-2.16,.55,.12,.64-.08,.87-.44,.91-1.47,2.12-2.54,3.95-2.67,1.08-.07,1.66,.62,2.2,1.34,.38,.51,.64,1.11,.99,1.75,1.3-1.43,2.86-1.49,4.55-.87,1.7,.64,2.29,1.77,1.6,3.44-.25,.59-.11,.76,.41,.95,.9,.34,1.77,.77,2.67,1.12,1.1,.42,1.53,.24,2.05-.79,0,0,13.97,7.11,11.82,12.54-2.15,5.43-2.15,10.46,2.31,11.81s9.33,4.27,7.96,7.94c-1.38,3.68,.47,5.96,8.51,3.87,3.27-.85,5.87-2,8.01-2.5-.04,.12-.05,.25,.04,.41,.44-.22,.9-.43,1.35-.64,2.38-.18,4.16,.97,5.71,5.24,3.1,8.52,6.39,6.19,16.28,5.62,9.88-.58,10.66,8.72,14.14,6.19,3.04-2.19-2.12-6.89-3.51-8.09,.12,.03,.24,.05,.35,.08,3.78,1.17,7.2,3.04,10.19,5.59,1.65,1.41,3.2,2.95,4.1,5.02,1.42,3.23-.65,5.83-3.94,6.04-2.75,.18-5.26-.71-7.72-1.82-2.69-1.21-5.38-2.41-8.08-3.59-.2-.1-.47-.36-.69-.12-.17,.19-.05,.48,0,.73,.48,2.14,.67,4.22-.72,6.14-1.12,1.53-3.59,2.5-5.46,2.16-5.06-.91-7.65-4.34-9.2-8.87-.29-.84-.51-1.68-.79-2.64-.71,.87-1.42,1.62-2.28,2.24-4.48,3.26-8.97,1.64-11.23-3.27-.94-2.06-1.14-4.29-1.03-6.53,.03-.57-.11-.95-.68-1.19-.41-.17-.78-.48-1.14-.73-.49-.34-.67-.49-.78-.3l-1.82-1.51c-.08-.25-.32-.41-.71-.53-.86-.24-1.28-.11-1.56,.68-.2,.56-.31,1.15-.49,1.71-.62,2.01-2.43,3.29-4.29,2.66-.06-.03-.13-.04-.19-.06-.98-.26-1.59-.74-1.94-1.15s-.47-.77-.47-.77l-.03-.02c.02-.07,.03-.15,.03-.21-.12-1.73-1.62-3.16-3.37-3.24-.54-.03-.96,.18-1.23,.55-.87,.65-2.29,.98-3.48,1.15-1.2,.18-2.18,.19-2.18,.19h0c-.11-.06-.23-.12-.39-.16-.43-.11-.86-.28-1.28-.44-1.61-.65-2.77-1.82-3.78-3.2-.61-.85-.91-.8-1.52,.04-.32,.43-.57,.91-.92,1.33-.1,.12-.16,.22-.19,.33h0s-2.64,2.53-2.67,2.55c-.24,.1-.46,.39-.69,.49-.64,.24-.12,.5,.05,.72,.91,1.2,.83,2.95-.19,4.14-2.2,2.56-5.75,3.37-9.27,2.11-.82-.3-1.62-.62-2.45-.87-1.08-.33-1.38-.11-1.46,1.01-.19,2.76-2.96,5.76-5.81,6.41-1.87,.43-3.41-.28-4.94-1.16-.62-.36-1.12-1.16-1.83-1.09-.72,.07-1.03,.97-1.57,1.47-1.06,.99-2.2,1.62-3.72,1.28-2.38-.54-3.42-2.29-2.67-4.62,.23-.71,.56-1.4,.88-2.17-1.09-.17-2.19,.07-3.25-.22-.83-.23-1.61-.49-2.21-1.16-.55-.62-.64-1.39-.19-2.09,.72-1.12,1.8-1.84,2.87-2.58,3.19-2.21,6.82-3.26,10.54-4.04,.68-.14,1.38-.23,2.15-.56-1.01-.23-1.88-.4-2.74-.64-.75-.22-1.47-.54-2.06-1.1-1.31-1.27-1.4-2.72-.26-4.14,.06-.08,.12-.18,.2-.32-2.25-.28-4.46-.41-6.66-.39-1.27,0-2.53-.15-3.72-.68-.71-.32-1.31-.78-1.68-1.48-.46-.92-.25-1.84,.58-2.46v-.02Z"/><path class="cls-93" d="M57.76,109.43c-1.03,2.33-5.68,6.46-5.86,7.24s-2.77,12.66-2.64,5.68,1.09-11.04-.37-11.81c-1.46-.76-3.15-7.02-3.18-7.08-.82-3.55-1.43-7.13-2.61-10.59-.41-1.22-.92-2.37-1.61-3.47-.23-.37-.42-.42-.61-.35,.04-.02,2.68-2.55,2.68-2.55h0c-.08,.23-.04,.46,.1,.74,.72,1.42,1.16,2.94,1.55,4.49,.64,2.56,.84,5.19,1.33,7.76,.41,2.09,.89,4.16,2.17,5.94,.43,.6,.7,.58,1.02-.08,.33-.67,.51-1.39,.67-2.1,.98-4.58,.93-9.27,1.47-13.88,.11-.38,0-.61-.21-.76h0s3.93-.04,5.66-1.33c-.15,.21-.25,.49-.28,.8-.05,.65-.16,1.29-.22,1.93-.15,1.38-.41,2.74-.7,4.09-.04,.22-.29,.68,.42,.6,.12-.04,.34-.07,.55-.17,2-.9,3.45-2.43,4.71-4.17,.04-.04,.06-.12,.08-.18l.03,.02s.42,1.4,2.39,1.92h0c-1.13-.34-1.71,.05-2.36,.88-.3,.37-.69,.68-1.06,.98-1.39,1.17-2.76,2.36-4.01,3.68-1.09,1.17-1.95,2.43-2.06,4.15-.12,1.62-.49,3.24-.75,4.85-.23,1.42-.49,2.84-.71,4.18,.02,.48,0,.92,.41,1.12,.39,.19,.71-.11,.99-.34,.19-.16,.37-.35,.56-.53,1.14-1.06,1.87-2.42,2.63-3.75,.94-1.65,2.17-2.64,4.19-2.89,3.01-.38,5.25-2.02,6.34-4.99,.23-.64,.49-1.27,.7-1.92,.97-2.98,1.33-6.14,2.32-9.12,.12-.33,.14-.58,.06-.78l1.82,1.51c-.07,.12-.12,.34-.2,.7-.49,2.27-.82,4.56-1.39,6.82-.75,2.93-2.11,5.56-3.9,7.97-.98,1.31-2.43,2.03-3.81,2.82-2.43,.12-5.66,.54-6.3,1.96h-.02Z"/><path class="cls-94" d="M44.84,168.64c-.69-2.58-.42-5.77-1.4-10.6s.37-6.64,.97-10.34-.96-5.19-.97-5.2c.39-2.73,.86-5.44,1.4-8.14,.76-3.74,1.71-7.44,2.19-11.23,.34-2.72,.13-5.44,0-8.15-.02-.37-.08-.73-.06-1.1,.16-3.4-.38-6.7-1.15-9.98-.04-.15-.06-.3-.11-.44,.02,.06,1.71,6.31,3.18,7.08s.52,4.84,.37,11.81c-.14,6.98,2.47-4.91,2.64-5.68,.17-.78,4.83-4.91,5.86-7.24,.64-1.42,3.86-1.84,6.29-1.96-.02,0-.04,.03-.06,.04-.78,.44-1.62,.82-2.33,1.4-1.24,1.02-2.27,2.17-2.43,3.85-.15,1.45-1.09,2.38-1.99,3.36-.59,.65-1.25,1.24-1.83,1.91-1.61,1.84-2.1,4.15-2.42,6.44-.89,6.38-2.18,12.7-3.1,19.07-.42,2.95-.77,5.89-.49,8.88,.5,5.18,1.15,10.31,3.54,15.04,1.03,2.06,2.57,3.49,4.59,4.49,1.92,.94,3.91,1.69,5.71,2.85,.42,.26,.86,.56,1.28,.84-.02,.05-.03,.12-.04,.17h-7.82s-11.12-4.54-11.81-7.13l.02-.02Z"/></g><path class="cls-93" d="M36.26,174.1c.97-.38,2-.61,2.95-1.09,.58-.3,1.14-.62,1.61-1.09,.64-.61,.91-1.27,.79-2.2-.41-3.31-.24-6.63,.1-9.94,.31-3.04,.47-6.1,.76-9.13,.26-2.72,.58-5.43,.97-8.13,0,0,1.58,1.48,.97,5.2s-1.95,5.51-.97,10.34,.71,8,1.4,10.6c.69,2.58,11.8,7.13,11.8,7.13h-23.24c.92-.84,1.86-1.3,2.86-1.68Z"/></g><g><rect x="90.75" y="51.11" width="39.19" height="20.54"/><rect class="cls-10" x="182.76" y="167.32" width="8.76" height="5.64" transform="translate(-17.16 319.23) rotate(-78.4)"/><rect x="92.44" y="26.89" width="39.19" height="47.05"/><rect x="100.38" y="40.55" width="143.65" height="124.38"/><g><rect class="cls-50" x="187.32" y="109.74" width="45.47" height="2.6"/><rect class="cls-50" x="188.01" y="113.91" width="99.52" height="5.58"/></g><rect class="cls-92" x="82.29" y="118.82" width="15.23" height="37.8"/><rect class="cls-92" x="97.78" y="56.48" width="78.61" height="116.09"/><rect class="cls-88" x="94" y="71.93" width="3.74" height="46.99"/><g><polygon class="cls-89" points="209.26 100.92 208.38 99.4 209.26 97.89 211 97.89 211.88 99.4 211 100.92 209.26 100.92"/><g><polygon class="cls-89" points="206.44 103.1 205.36 101.23 206.44 99.35 208.6 99.35 209.69 101.23 208.6 103.1 206.44 103.1"/><polygon class="cls-89" points="211.05 103.1 209.96 101.23 211.05 99.35 213.21 99.35 214.29 101.23 213.21 103.1 211.05 103.1"/><polygon class="cls-89" points="214.25 104.2 213.17 102.32 214.25 100.44 216.42 100.44 217.51 102.32 216.42 104.2 214.25 104.2"/><polygon class="cls-89" points="204.63 104.76 203.54 102.89 204.63 101.01 206.79 101.01 207.88 102.89 206.79 104.76 204.63 104.76"/><polygon class="cls-89" points="200.7 104.76 199.61 102.89 200.7 101.01 202.87 101.01 203.95 102.89 202.87 104.76 200.7 104.76"/><polygon class="cls-89" points="208.4 104.76 207.32 102.89 208.4 101.01 210.57 101.01 211.66 102.89 210.57 104.76 208.4 104.76"/><polygon class="cls-89" points="211.65 104.76 210.57 102.89 211.65 101.01 213.82 101.01 214.9 102.89 213.82 104.76 211.65 104.76"/><polygon class="cls-89" points="215.73 104.76 214.64 102.89 215.73 101.01 217.89 101.01 218.98 102.89 217.89 104.76 215.73 104.76"/><polygon class="cls-89" points="202.82 106.81 201.73 104.93 202.82 103.05 204.98 103.05 206.06 104.93 204.98 106.81 202.82 106.81"/><polygon class="cls-89" points="198.88 106.81 197.8 104.93 198.88 103.05 201.05 103.05 202.14 104.93 201.05 106.81 198.88 106.81"/><polygon class="cls-89" points="206.59 106.81 205.51 104.93 206.59 103.05 208.76 103.05 209.84 104.93 208.76 106.81 206.59 106.81"/><polygon class="cls-89" points="209.84 106.81 208.75 104.93 209.84 103.05 212 103.05 213.09 104.93 212 106.81 209.84 106.81"/><polygon class="cls-89" points="213.91 106.81 212.83 104.93 213.91 103.05 216.08 103.05 217.16 104.93 216.08 106.81 213.91 106.81"/><polygon class="cls-89" points="217.24 106.81 216.15 104.93 217.24 103.05 219.41 103.05 220.49 104.93 219.41 106.81 217.24 106.81"/><polygon class="cls-89" points="221.32 106.81 220.23 104.93 221.32 103.05 223.48 103.05 224.57 104.93 223.48 106.81 221.32 106.81"/><polygon class="cls-89" points="204.78 108.77 203.69 106.89 204.78 105.01 206.94 105.01 208.03 106.89 206.94 108.77 204.78 108.77"/><polygon class="cls-89" points="200.85 108.77 199.76 106.89 200.85 105.01 203.01 105.01 204.1 106.89 203.01 108.77 200.85 108.77"/><polygon class="cls-89" points="197.83 108.77 196.75 106.89 197.83 105.01 199.99 105.01 201.08 106.89 199.99 108.77 197.83 108.77"/><polygon class="cls-89" points="193.9 108.77 192.81 106.89 193.9 105.01 196.07 105.01 197.15 106.89 196.07 108.77 193.9 108.77"/><polygon class="cls-89" points="208.55 108.77 207.47 106.89 208.55 105.01 210.72 105.01 211.8 106.89 210.72 108.77 208.55 108.77"/><polygon class="cls-89" points="211.8 108.77 210.72 106.89 211.8 105.01 213.97 105.01 215.05 106.89 213.97 108.77 211.8 108.77"/><polygon class="cls-89" points="215.88 108.77 214.79 106.89 215.88 105.01 218.05 105.01 219.13 106.89 218.05 108.77 215.88 108.77"/><polygon class="cls-89" points="219.2 108.77 218.12 106.89 219.2 105.01 221.37 105.01 222.45 106.89 221.37 108.77 219.2 108.77"/><polygon class="cls-89" points="223.28 108.77 222.2 106.89 223.28 105.01 225.45 105.01 226.53 106.89 225.45 108.77 223.28 108.77"/><polygon class="cls-89" points="206.96 110.58 205.88 108.71 206.96 106.83 209.14 106.83 210.22 108.71 209.14 110.58 206.96 110.58"/><polygon class="cls-89" points="203.04 110.58 201.96 108.71 203.04 106.83 205.2 106.83 206.29 108.71 205.2 110.58 203.04 110.58"/><polygon class="cls-89" points="200.02 110.58 198.93 108.71 200.02 106.83 202.19 106.83 203.27 108.71 202.19 110.58 200.02 110.58"/><polygon class="cls-89" points="196.09 110.58 195.01 108.71 196.09 106.83 198.25 106.83 199.34 108.71 198.25 110.58 196.09 110.58"/><polygon class="cls-89" points="192.62 110.58 191.53 108.71 192.62 106.83 194.78 106.83 195.87 108.71 194.78 110.58 192.62 110.58"/><polygon class="cls-89" points="210.74 110.58 209.66 108.71 210.74 106.83 212.91 106.83 213.99 108.71 212.91 110.58 210.74 110.58"/><polygon class="cls-89" points="213.99 110.58 212.9 108.71 213.99 106.83 216.16 106.83 217.24 108.71 216.16 110.58 213.99 110.58"/><polygon class="cls-89" points="218.07 110.58 216.99 108.71 218.07 106.83 220.23 106.83 221.32 108.71 220.23 110.58 218.07 110.58"/><polygon class="cls-89" points="221.39 110.58 220.31 108.71 221.39 106.83 223.56 106.83 224.64 108.71 223.56 110.58 221.39 110.58"/><polygon class="cls-89" points="225.47 110.58 224.39 108.71 225.47 106.83 227.64 106.83 228.72 108.71 227.64 110.58 225.47 110.58"/><polygon class="cls-89" points="203.42 112.24 202.33 110.37 203.42 108.49 205.58 108.49 206.67 110.37 205.58 112.24 203.42 112.24"/><polygon class="cls-89" points="199.49 112.24 198.41 110.37 199.49 108.49 201.65 108.49 202.74 110.37 201.65 112.24 199.49 112.24"/><polygon class="cls-89" points="196.47 112.24 195.38 110.37 196.47 108.49 198.64 108.49 199.72 110.37 198.64 112.24 196.47 112.24"/><polygon class="cls-89" points="192.54 112.24 191.46 110.37 192.54 108.49 194.7 108.49 195.79 110.37 194.7 112.24 192.54 112.24"/><polygon class="cls-89" points="189.07 112.24 187.98 110.37 189.07 108.49 191.23 108.49 192.31 110.37 191.23 112.24 189.07 112.24"/><polygon class="cls-89" points="207.19 112.24 206.11 110.37 207.19 108.49 209.36 108.49 210.44 110.37 209.36 112.24 207.19 112.24"/><polygon class="cls-89" points="210.44 112.24 209.35 110.37 210.44 108.49 212.61 108.49 213.69 110.37 212.61 112.24 210.44 112.24"/><polygon class="cls-89" points="214.52 112.24 213.44 110.37 214.52 108.49 216.68 108.49 217.77 110.37 216.68 112.24 214.52 112.24"/><polygon class="cls-89" points="217.84 112.24 216.76 110.37 217.84 108.49 220.01 108.49 221.09 110.37 220.01 112.24 217.84 112.24"/><polygon class="cls-89" points="221.92 112.24 220.84 110.37 221.92 108.49 224.09 108.49 225.17 110.37 224.09 112.24 221.92 112.24"/><polygon class="cls-89" points="226.08 112.24 224.99 110.37 226.08 108.49 228.24 108.49 229.32 110.37 228.24 112.24 226.08 112.24"/><polygon class="cls-89" points="229.85 112.24 228.77 110.37 229.85 108.49 232.02 108.49 233.1 110.37 232.02 112.24 229.85 112.24"/></g></g><polygon class="cls-92" points="241.46 100.25 217.69 100.25 209.88 95.86 200.85 100.25 176.56 100.25 176.56 66.18 241.46 66.18 241.46 100.25"/><g><rect class="cls-21" x="213.18" y="123.45" width="9.89" height="37.14"/><rect class="cls-33" x="187.15" y="123.45" width="9.02" height="37.14"/></g><polygon class="cls-35" points="295.34 165.32 284.85 159.2 284.25 161.67 227.57 161.67 227.16 162.97 185.47 162.97 185.47 165.62 295.34 165.32"/><rect class="cls-48" x="177.54" y="162.06" width="7.94" height="1.04"/><rect class="cls-5" x="177.58" y="116.66" width="104.57" height="45.63"/><rect class="cls-92" x="178.19" y="117.27" width="104.57" height="45.63"/><polyline points="284.85 146.88 293.87 148.96 293.87 163.54 284.33 158.51 284.85 146.88"/><polyline points="294.56 120.45 284.67 120.93 283.88 116.14 295.08 114.78 294.22 117.55 294.56 120.45"/><g><line class="cls-44" x1="177.05" y1="72.59" x2="196.3" y2="72.59"/><line class="cls-44" x1="212.7" y1="72.45" x2="225.82" y2="72.45"/><line class="cls-44" x1="227.25" y1="72.59" x2="240.37" y2="72.59"/><line class="cls-44" x1="177.05" y1="92.12" x2="196.3" y2="92.12"/><line class="cls-44" x1="212.7" y1="91.98" x2="225.82" y2="91.98"/><line class="cls-44" x1="227.25" y1="92.12" x2="240.37" y2="92.12"/></g><line class="cls-56" x1="178.61" y1="69.87" x2="192.59" y2="69.87"/><g><line class="cls-44" x1="212.7" y1="69.73" x2="225.82" y2="69.73"/><line class="cls-44" x1="227.25" y1="69.87" x2="240.37" y2="69.87"/></g><line class="cls-62" x1="180.89" y1="88.99" x2="194.58" y2="88.99"/><g><line class="cls-44" x1="212.7" y1="88.85" x2="225.82" y2="88.85"/><line class="cls-44" x1="212.7" y1="86.42" x2="225.82" y2="86.42"/></g><line class="cls-22" x1="231.95" y1="86.42" x2="242.65" y2="86.42"/><g><line class="cls-44" x1="227.25" y1="88.99" x2="240.37" y2="88.99"/><line class="cls-44" x1="176.9" y1="75.15" x2="191.45" y2="75.15"/><line class="cls-44" x1="194.16" y1="75.15" x2="219.26" y2="75.15"/><line class="cls-44" x1="199.29" y1="97.12" x2="224.39" y2="97.12"/><line class="cls-44" x1="222.4" y1="75.15" x2="240.37" y2="75.15"/><line class="cls-44" x1="181.32" y1="77.87" x2="195.72" y2="77.87"/><line class="cls-44" x1="217.98" y1="78.15" x2="233.81" y2="78.15"/><line class="cls-44" x1="237.51" y1="78.15" x2="241.08" y2="78.15"/><line class="cls-44" x1="178.75" y1="80.82" x2="199" y2="80.82"/><line class="cls-44" x1="215.41" y1="80.82" x2="234.66" y2="80.82"/><line class="cls-44" x1="236.95" y1="80.82" x2="241.94" y2="80.82"/><line class="cls-44" x1="184.89" y1="94.8" x2="205.14" y2="94.8"/><line class="cls-44" x1="177.61" y1="94.8" x2="181.89" y2="94.8"/><line class="cls-44" x1="215.41" y1="94.8" x2="234.66" y2="94.8"/><line class="cls-44" x1="184.89" y1="125.16" x2="205.14" y2="125.16"/><line class="cls-44" x1="238.31" y1="125.16" x2="257.57" y2="125.16"/><line class="cls-44" x1="262.78" y1="125.16" x2="282.03" y2="125.16"/><line class="cls-44" x1="231.38" y1="128.11" x2="250.63" y2="128.11"/><line class="cls-44" x1="208.81" y1="128.11" x2="228.07" y2="128.11"/><line class="cls-44" x1="181.74" y1="128.11" x2="201" y2="128.11"/></g><line class="cls-80" x1="176.56" y1="130.72" x2="186.24" y2="130.72"/><g><line class="cls-44" x1="227.21" y1="130.72" x2="246.46" y2="130.72"/><line class="cls-44" x1="263.65" y1="130.72" x2="282.9" y2="130.72"/><line class="cls-44" x1="257.93" y1="133.66" x2="277.18" y2="133.66"/><line class="cls-44" x1="235.36" y1="133.66" x2="254.62" y2="133.66"/><line class="cls-44" x1="209.16" y1="133.66" x2="228.41" y2="133.66"/></g><line class="cls-52" x1="176.38" y1="133.66" x2="183.64" y2="133.66"/><line class="cls-44" x1="251.33" y1="128.11" x2="270.59" y2="128.11"/><line class="cls-20" x1="273.22" y1="128.11" x2="282.73" y2="128.11"/><g><line class="cls-44" x1="214.37" y1="125.16" x2="233.62" y2="125.16"/><line class="cls-44" x1="176.88" y1="125.16" x2="196.14" y2="125.16"/><line class="cls-44" x1="238.31" y1="149.46" x2="257.57" y2="149.46"/><line class="cls-44" x1="262.78" y1="149.46" x2="282.03" y2="149.46"/><line class="cls-44" x1="214.37" y1="149.46" x2="233.62" y2="149.46"/><line class="cls-44" x1="176.88" y1="149.46" x2="196.14" y2="149.46"/><line class="cls-44" x1="176.88" y1="122.39" x2="196.14" y2="122.39"/><line class="cls-44" x1="223.05" y1="122.39" x2="242.3" y2="122.39"/><line class="cls-44" x1="223.05" y1="136.96" x2="242.3" y2="136.96"/><line class="cls-44" x1="223.05" y1="139.91" x2="242.3" y2="139.91"/></g><line class="cls-17" x1="176.91" y1="139.91" x2="192.84" y2="139.91"/><g><line class="cls-44" x1="183.3" y1="142.69" x2="202.56" y2="142.69"/><line class="cls-44" x1="207.95" y1="142.69" x2="227.2" y2="142.69"/><line class="cls-44" x1="231.55" y1="142.69" x2="250.8" y2="142.69"/><line class="cls-44" x1="231.55" y1="156.75" x2="250.8" y2="156.75"/></g><line class="cls-3" x1="176.73" y1="156.75" x2="194.57" y2="156.75"/><g><line class="cls-44" x1="219.22" y1="156.75" x2="238.48" y2="156.75"/><line class="cls-44" x1="265.56" y1="156.75" x2="284.81" y2="156.75"/><line class="cls-44" x1="265.56" y1="159.87" x2="284.81" y2="159.87"/><line class="cls-44" x1="239.7" y1="159.87" x2="258.96" y2="159.87"/><line class="cls-44" x1="209.51" y1="159.87" x2="228.76" y2="159.87"/><line class="cls-44" x1="177.41" y1="159.87" x2="196.66" y2="159.87"/><line class="cls-44" x1="256.19" y1="156.75" x2="275.44" y2="156.75"/><line class="cls-44" x1="263.48" y1="142.69" x2="282.73" y2="142.69"/></g><line class="cls-49" x1="272.85" y1="145.64" x2="284.64" y2="145.64"/><g><line class="cls-44" x1="250.46" y1="145.64" x2="269.72" y2="145.64"/><line class="cls-44" x1="226.86" y1="145.64" x2="246.11" y2="145.64"/><line class="cls-44" x1="179.69" y1="145.64" x2="223.73" y2="145.64"/><line class="cls-44" x1="181.62" y1="153.1" x2="225.67" y2="153.1"/><line class="cls-44" x1="227.23" y1="153.1" x2="271.27" y2="153.1"/></g><line class="cls-9" x1="275.82" y1="153.1" x2="295.95" y2="153.1"/><g><line class="cls-44" x1="240.05" y1="139.91" x2="259.31" y2="139.91"/><line class="cls-44" x1="259.31" y1="139.91" x2="278.57" y2="139.91"/><line class="cls-44" x1="179.49" y1="136.96" x2="198.74" y2="136.96"/><line class="cls-44" x1="245.43" y1="136.96" x2="264.68" y2="136.96"/></g><line class="cls-19" x1="273.19" y1="136.96" x2="283.46" y2="136.96"/><g><line class="cls-44" x1="244.91" y1="122.39" x2="264.16" y2="122.39"/><line class="cls-44" x1="265.04" y1="122.39" x2="284.29" y2="122.39"/><line class="cls-44" x1="236.95" y1="94.8" x2="241.94" y2="94.8"/><line class="cls-44" x1="182.32" y1="86.28" x2="187.74" y2="86.28"/><line class="cls-44" x1="228.67" y1="83.52" x2="241.23" y2="83.52"/><line class="cls-44" x1="208.56" y1="83.52" x2="221.11" y2="83.52"/><line class="cls-44" x1="175.47" y1="83.52" x2="188.03" y2="83.52"/><line class="cls-44" x1="175.47" y1="97.35" x2="188.03" y2="97.35"/><line class="cls-44" x1="227.1" y1="97.35" x2="239.65" y2="97.35"/><line class="cls-44" x1="192.87" y1="83.52" x2="205.42" y2="83.52"/><line class="cls-44" x1="83.87" y1="122.5" x2="97.65" y2="122.5"/></g><line class="cls-57" x1="81.15" y1="125.07" x2="92.35" y2="125.07"/><g><line class="cls-44" x1="83.87" y1="134.46" x2="97.65" y2="134.46"/><line class="cls-44" x1="81.9" y1="129.92" x2="95.68" y2="129.92"/></g><line class="cls-15" x1="81.9" y1="137.79" x2="85.54" y2="137.79"/><g><line class="cls-67" x1="81.9" y1="140.22" x2="85.99" y2="140.22"/><line class="cls-67" x1="83.72" y1="152.02" x2="87.81" y2="152.02"/><line class="cls-67" x1="81.45" y1="148.69" x2="85.54" y2="148.69"/><line class="cls-67" x1="81.45" y1="155.21" x2="85.54" y2="155.21"/><line class="cls-67" x1="83.42" y1="145.66" x2="87.51" y2="145.66"/><line class="cls-67" x1="80.92" y1="143.17" x2="85.01" y2="143.17"/></g><polygon class="cls-88" points="70.12 116.38 93.09 106.49 93.48 120.15 75.2 119.83 72.53 118.46 70.97 118.2 70.12 116.38"/><rect class="cls-65" x="232.63" y="165.88" width="64.36" height="8.16"/><rect class="cls-10" x="187.56" y="165.81" width="44.88" height="4.28"/><rect x="187.4" y="170.03" width="46.31" height=".59"/><rect class="cls-24" x="177.43" y="111.48" width="10.06" height="3.47"/><g><polygon class="cls-65" points="118.27 57.42 118.06 53.6 91.46 56.91 91.43 60.89 91.84 61.7 118.27 57.42"/><polygon class="cls-65" points="118.06 53.6 158.93 54.21 159.16 58.47 118.27 57.42 118.06 53.6"/><polygon class="cls-65" points="158.94 54.6 184.72 58.26 183.89 62.63 158.85 58.47 158.94 54.6"/></g><rect class="cls-89" x="92.46" y="73.68" width="2.47" height="44.35"/><polygon class="cls-89" points="92.73 105.58 67.74 115.73 67.74 118.68 72.25 118.68 72.25 117.55 92.64 109.05 92.73 105.58"/><rect class="cls-89" x="71.92" y="117.98" width="25.66" height="2.52"/><rect class="cls-89" x="72.87" y="119.63" width="1.76" height="42.43"/><polygon class="cls-37" points="100.45 103.83 100.45 117.42 116.46 116.91 116.29 103.38 100.45 103.83"/><polygon class="cls-39" points="101.57 116.26 101.57 104.93 115.18 104.54 115.32 115.82 101.57 116.26"/><rect class="cls-37" x="126.18" y="103.02" width="23.91" height="14.1"/><polygon class="cls-39" points="148.96 115.98 127.31 115.98 127.31 104.14 148.96 104.14 148.96 115.98"/><polygon class="cls-37" points="159.1 103.71 159.1 117.1 174.71 117.64 174.71 104.73 159.1 103.71"/><polygon class="cls-39" points="173.59 116.48 160.21 116.01 160.21 104.91 173.59 105.79 173.59 116.48"/><polyline class="cls-64" points="184.71 58.46 248.88 60.81 184.32 61.03 184.71 58.46"/><rect class="cls-2" x="239.17" y="62.8" width="3.33" height="37.58"/><rect class="cls-2" x="177.03" y="62.8" width="62.14" height="4.43"/><g><rect class="cls-83" x="230.61" y="115.82" width="2.27" height="49.8"/><rect class="cls-83" x="263.06" y="115.82" width="2.27" height="49.8"/></g><polygon class="cls-37" points="100.34 158.68 116.49 159.46 116.49 168.58 100.2 167.62 100.2 158.65 100.34 158.68"/><polygon class="cls-39" points="115.36 167.39 101.32 166.56 101.32 159.86 115.36 160.54 115.36 167.39"/><rect class="cls-37" x="125.89" y="159.33" width="24.34" height="9.5"/><polygon class="cls-39" points="149.1 167.71 127.01 167.71 127.01 160.45 149.1 160.45 149.1 167.71"/><polygon class="cls-37" points="159.47 159.07 159.34 168.05 174.56 166.49 174.56 158.16 159.47 159.07"/><g><polygon class="cls-41" points="160.48 166.8 160.57 160.13 173.44 159.35 173.44 165.47 160.48 166.8"/><rect class="cls-41" x="240.42" y="120.67" width="3.12" height="40.74"/></g><g><rect class="cls-74" x="281.55" y="120.93" width="3.12" height="40.48"/><path class="cls-68" d="M237.68,110.39v-.26l-27.33-17.83-27.59,18.22v2.73h3.25l.13-.08v1.12h47.76v-.36l.52,.36h2.86v.13h66.9v-4.03h-66.51Zm-50.44,2.08l23.11-14.71,21.42,14.71h-44.53Z"/></g><rect class="cls-45" x="86.77" y="127.44" width="10.24" height="29.41"/><g><rect class="cls-89" x="80.77" y="119.79" width="1.91" height="37.97"/><rect class="cls-89" x="76.34" y="119.79" width="2.86" height="40.01"/></g><rect class="cls-42" x="72.87" y="162.06" width="24.34" height="4.6"/><polygon class="cls-29" points="98.94 66.81 117.5 64.65 117.39 100.49 99.29 101.29 98.94 66.81"/><g><rect class="cls-72" x="125.01" y="64.39" width="26.97" height="36.47"/><rect class="cls-72" x="125.01" y="120.96" width="26.97" height="36.47"/></g><rect class="cls-89" x="97.36" y="60.95" width="1.76" height="109.88"/><rect class="cls-89" x="117.93" y="57.61" width="1.37" height="114.77"/><rect class="cls-89" x="155.94" y="58.55" width="1.46" height="113.14"/><line class="cls-44" x1="157.36" y1="62.86" x2="175.38" y2="64.47"/><g><rect class="cls-65" x="119.29" y="58.23" width="3.3" height="114.15"/><rect class="cls-65" x="152.27" y="58.23" width="3.82" height="114.15"/></g><polygon class="cls-65" points="98.12 170.95 119.38 172.49 155.62 171.72 177.06 169.07 177.21 174.11 155.54 176.37 120.16 177.83 97.65 175.45 97.73 170.72 98.12 170.95"/><g><line class="cls-78" x1="119.9" y1="172.73" x2="119.9" y2="177.58"/><line class="cls-78" x1="155.56" y1="172.21" x2="155.56" y2="177.05"/></g><rect class="cls-82" x="188.41" y="160.49" width="35.05" height="2.21"/><rect class="cls-41" x="187.22" y="123.26" width="36.09" height="37.66"/><rect x="229.23" y="115.82" width="1.38" height="49.89"/><g><rect class="cls-85" x="88.68" y="130.23" width="2.43" height="2.95"/><rect class="cls-85" x="88.68" y="134.83" width="2.43" height="8.42"/><rect class="cls-85" x="88.68" y="145.24" width="2.43" height="8.42"/><rect class="cls-85" x="93.45" y="130.23" width="1.47" height="2.95"/><rect class="cls-85" x="93.45" y="134.83" width="1.82" height="8.42"/><rect class="cls-85" x="93.45" y="145.24" width="1.65" height="8.42"/></g><polygon class="cls-77" points="101.58 68.95 115.53 67.02 115.41 82.13 101.34 83.83 101.58 68.95"/><polygon class="cls-53" points="101.4 84.1 115.37 82.55 115.44 98.22 101.09 98.71 101.4 84.1"/><line class="cls-44" x1="101.74" y1="75.84" x2="115.5" y2="74.12"/><line class="cls-44" x1="101.64" y1="91.29" x2="115.15" y2="90.29"/><line class="cls-44" x1="105.03" y1="68.85" x2="104.87" y2="82.96"/><line class="cls-44" x1="108.65" y1="68.39" x2="108.52" y2="82.85"/><line class="cls-44" x1="112.17" y1="67.59" x2="112.06" y2="82.03"/><line class="cls-44" x1="104.89" y1="84.09" x2="104.77" y2="98.3"/><line class="cls-44" x1="108.41" y1="83.52" x2="108.45" y2="98.77"/><line class="cls-44" x1="112.17" y1="83.11" x2="112.08" y2="98.42"/><line class="cls-44" x1="99" y1="64.58" x2="117.97" y2="62.21"/><line class="cls-44" x1="123.06" y1="62.14" x2="151.94" y2="62.32"/><rect class="cls-11" x="127.5" y="67.23" width="21.7" height="31.34"/><rect x="127.83" y="82.04" width="21.29" height="1.53"/><g><line class="cls-44" x1="132.57" y1="67.02" x2="132.57" y2="98.5"/><line class="cls-44" x1="138.39" y1="67.02" x2="138.39" y2="98.5"/><line class="cls-44" x1="143.66" y1="67.02" x2="143.66" y2="98.5"/><line class="cls-44" x1="127.43" y1="74.86" x2="149.55" y2="74.86"/><line class="cls-44" x1="127.43" y1="91.01" x2="149.55" y2="91.01"/></g><rect class="cls-4" x="127.5" y="123.8" width="21.7" height="31.34"/><rect x="127.71" y="139.29" width="21.29" height="1.49"/><g><line class="cls-78" x1="132.57" y1="123.59" x2="132.57" y2="155.07"/><line class="cls-78" x1="138.39" y1="123.59" x2="138.39" y2="155.07"/><line class="cls-78" x1="143.66" y1="123.59" x2="143.66" y2="155.07"/><line class="cls-78" x1="127.43" y1="131.43" x2="149.55" y2="131.43"/><line class="cls-78" x1="127.43" y1="147.58" x2="149.55" y2="147.58"/></g><polygon class="cls-31" points="175.41 155.87 157.8 157.43 157.8 120.96 175.41 122.26 175.41 155.87"/><polygon class="cls-32" points="173.59 153.9 159.43 155.01 159.43 123.9 173.59 124.77 173.59 153.9"/><polygon points="173.46 140.61 159.57 140.76 159.57 139.03 173.46 138.98 173.46 140.61"/><g><line class="cls-59" x1="162.73" y1="123.9" x2="162.73" y2="154.68"/><line class="cls-59" x1="166.54" y1="124.14" x2="166.54" y2="154.39"/><line class="cls-59" x1="169.98" y1="124.35" x2="169.98" y2="154.12"/><line class="cls-59" x1="159.39" y1="131.47" x2="173.82" y2="131.87"/><line class="cls-59" x1="159.39" y1="147.51" x2="173.82" y2="146.87"/></g><polygon class="cls-31" points="175.41 101.6 157.8 101.6 157.8 65.13 175.41 66.43 175.41 101.6"/><polygon class="cls-1" points="173.59 99.39 159.43 99.32 159.43 68.08 173.59 69.05 173.59 99.39"/><polygon points="173.56 84.96 159.68 84.41 159.71 83.12 173.59 83.71 173.56 84.96"/><g><line class="cls-44" x1="162.73" y1="68.1" x2="162.73" y2="99.27"/><line class="cls-44" x1="166.54" y1="68.36" x2="166.54" y2="99.28"/><line class="cls-44" x1="169.98" y1="68.6" x2="169.98" y2="99.3"/><line class="cls-44" x1="159.39" y1="75.68" x2="173.82" y2="76.44"/><line class="cls-44" x1="159.39" y1="91.79" x2="173.82" y2="92.07"/></g><polygon class="cls-72" points="116.92 157.43 99.85 156.13 99.85 122.26 116.92 120.96 116.92 157.43"/><polygon class="cls-8" points="115.17 155.02 101.43 154.11 101.43 124.8 115.17 123.91 115.17 155.02"/><polygon points="115.04 140.77 101.56 140.71 101.56 139.04 115.04 139.01 115.04 140.77"/><g><line class="cls-6" x1="104.63" y1="124.4" x2="104.63" y2="154.25"/><line class="cls-6" x1="108.32" y1="124.16" x2="108.32" y2="154.5"/><line class="cls-6" x1="111.66" y1="123.94" x2="111.66" y2="154.72"/><line class="cls-6" x1="101.38" y1="131.93" x2="115.39" y2="131.48"/><line class="cls-6" x1="101.38" y1="147.04" x2="115.39" y2="147.53"/></g><rect class="cls-89" x="175.16" y="62.01" width="2.15" height="110.37"/><rect class="cls-82" x="195.13" y="88.92" width="18.91" height="1.74"/><rect class="cls-82" x="196.34" y="69.58" width="16.31" height="19.33"/><g><g><rect class="cls-60" x="197.66" y="71.31" width="13.54" height="17.41"/><g><line class="cls-44" x1="201.13" y1="71.67" x2="201.13" y2="88.53"/><line class="cls-44" x1="204.6" y1="71.67" x2="204.6" y2="88.53"/><line class="cls-44" x1="208.24" y1="71.67" x2="208.24" y2="88.53"/></g></g><rect x="197.48" y="79.98" width="13.88" height=".76"/></g><rect class="cls-82" x="246.72" y="141.5" width="16.14" height="1.63"/><rect class="cls-82" x="247.42" y="121.83" width="14.97" height="19.85"/><rect class="cls-51" x="249.27" y="123.62" width="11.26" height="16.27"/><rect x="249.47" y="130.65" width="11.17" height=".89"/><g><line class="cls-26" x1="251.66" y1="123.87" x2="251.66" y2="139.87"/><line class="cls-26" x1="254.99" y1="123.71" x2="254.99" y2="139.83"/><line class="cls-26" x1="257.92" y1="139.71" x2="257.92" y2="123.79"/></g><rect class="cls-82" x="213.02" y="123.3" width="5.92" height="32.21"/><g><rect class="cls-79" x="213.96" y="124.74" width="4.03" height="29.48"/><line class="cls-30" x1="216.04" y1="124.8" x2="216.04" y2="154.21"/></g><g><polygon class="cls-58" points="217.23 152.7 216.03 153.9 214.84 152.7 216.03 151.51 217.23 152.7"/><polygon class="cls-43" points="217.23 146.64 216.03 147.83 214.84 146.64 216.03 145.44 217.23 146.64"/><polygon class="cls-70" points="217.23 140.95 216.03 142.14 214.84 140.95 216.03 139.74 217.23 140.95"/><polygon class="cls-25" points="217.23 137.79 216.03 138.99 214.84 137.79 216.03 136.6 217.23 137.79"/><polygon class="cls-13" points="217.23 131.69 216.03 132.89 214.84 131.69 216.03 130.49 217.23 131.69"/><polygon class="cls-36" points="217.3 126.18 216.1 127.38 214.9 126.18 216.1 124.99 217.3 126.18"/></g><rect class="cls-82" x="190.47" y="123.2" width="5.92" height="32.21"/><g><rect class="cls-69" x="191.42" y="124.63" width="4.03" height="29.48"/><line class="cls-30" x1="193.5" y1="124.7" x2="193.5" y2="154.11"/></g><g><polygon class="cls-76" points="194.7 152.6 193.49 153.8 192.3 152.6 193.49 151.4 194.7 152.6"/><polygon class="cls-55" points="194.7 146.54 193.49 147.73 192.3 146.54 193.49 145.33 194.7 146.54"/><polygon class="cls-75" points="194.7 140.85 193.49 142.04 192.3 140.85 193.49 139.64 194.7 140.85"/><polygon class="cls-34" points="194.7 137.69 193.49 138.89 192.3 137.69 193.49 136.49 194.7 137.69"/><polygon class="cls-71" points="194.7 131.59 193.49 132.79 192.3 131.59 193.49 130.39 194.7 131.59"/><polygon class="cls-28" points="194.76 126.08 193.57 127.28 192.37 126.08 193.57 124.88 194.76 126.08"/></g><rect class="cls-16" x="196.17" y="123.45" width="17.01" height="36.44"/><ellipse class="cls-12" cx="204.92" cy="140.58" rx="6.67" ry="14.61"/><path class="cls-73" d="M204.92,154.06c-2.62,0-5.55-5.54-5.55-13.49s2.92-13.49,5.55-13.49,5.55,5.54,5.55,13.49c0,7.95-2.92,13.49-5.55,13.49h0Z"/><line class="cls-18" x1="204.85" y1="131.78" x2="204.85" y2="149.65"/><ellipse class="cls-63" cx="204.85" cy="140.89" rx="2.26" ry="1.65"/><ellipse class="cls-63" cx="204.85" cy="138.03" rx="1.39" ry="1.01"/><ellipse class="cls-63" cx="204.85" cy="143.58" rx="1.39" ry="1.01"/><g><rect class="cls-41" x="188.88" y="118.59" width="34.53" height="2.08"/><rect class="cls-41" x="189.06" y="120.67" width="34.36" height="2.43"/></g><rect class="cls-83" x="186.53" y="115.82" width="2.27" height="49.8"/><rect x="292.61" y="116" width="1.97" height="49.66"/><rect x="185.18" y="115.82" width="1.47" height="50.45"/><g><rect class="cls-27" x="182.5" y="116.14" width=".91" height="3.34"/><rect class="cls-27" x="177.74" y="116.14" width=".91" height="3.34"/></g><rect x="186.26" y="114.4" width="111.6" height="1.33"/><g><g><path class="cls-82" d="M229.74,120.74c-.01-.95-.17-3.25-1.37-4.15,0,0-.48-1.2-3.92-1.1-.18-.33-.52-.55-.92-.55-.58,0-1.05,.47-1.05,1.05s.47,1.05,1.05,1.05c.55,0,.99-.42,1.04-.95,.75,.1,3.24,.71,4.31,4.21-.57,0-1.04,.48-1.04,1.05s.47,1.05,1.05,1.05,1.05-.47,1.05-1.05c0-.23-.08-.44-.2-.61h0Z"/><path class="cls-82" d="M188.92,120.74c.01-.95,.17-3.25,1.37-4.15,0,0,.48-1.2,3.92-1.1,.18-.33,.52-.55,.92-.55,.58,0,1.05,.47,1.05,1.05s-.47,1.05-1.05,1.05c-.55,0-.99-.42-1.04-.95-.75,.1-3.24,.71-4.31,4.21,.57,0,1.04,.48,1.04,1.05s-.47,1.05-1.05,1.05-1.05-.47-1.05-1.05c0-.23,.08-.44,.2-.61h0Z"/><rect class="cls-82" x="234.3" y="149.83" width=".91" height="11.84"/><rect class="cls-82" x="180.88" y="149.83" width=".91" height="12.75"/><rect class="cls-82" x="245.95" y="149.83" width=".91" height="11.84"/><rect class="cls-82" x="241.66" y="149.83" width=".91" height="11.84"/><rect class="cls-82" x="237.84" y="149.83" width=".91" height="11.84"/><rect class="cls-82" x="254.28" y="149.83" width=".91" height="11.84"/><rect class="cls-82" x="257.28" y="149.83" width=".91" height="11.84"/><rect class="cls-82" x="260.27" y="149.83" width=".91" height="11.84"/><rect class="cls-82" x="251.55" y="149.83" width=".91" height="11.84"/><rect class="cls-82" x="248.82" y="149.83" width=".91" height="11.84"/><rect class="cls-82" x="266.45" y="149.83" width=".91" height="11.84"/><rect class="cls-82" x="269.77" y="149.83" width=".91" height="11.84"/><rect class="cls-82" x="278.1" y="149.83" width=".91" height="11.84"/><rect class="cls-82" x="273.8" y="149.83" width=".91" height="11.84"/><rect class="cls-82" x="286.43" y="149.83" width=".91" height="11.84"/><rect class="cls-82" x="289.42" y="149.83" width=".91" height="11.84"/></g><g><rect class="cls-27" x="289.42" y="116.14" width=".91" height="3.34"/><rect class="cls-27" x="286.63" y="116.14" width=".91" height="3.34"/><rect class="cls-27" x="283.88" y="116.14" width=".91" height="3.34"/><rect class="cls-27" x="281.14" y="116.14" width=".91" height="3.34"/><rect class="cls-27" x="278.4" y="116.14" width=".91" height="3.34"/><rect class="cls-27" x="275.66" y="116.14" width=".91" height="3.34"/><rect class="cls-27" x="272.91" y="116.14" width=".91" height="3.34"/><rect class="cls-27" x="270.17" y="116.14" width=".91" height="3.34"/><rect class="cls-27" x="267.43" y="116.14" width=".91" height="3.34"/></g><rect class="cls-82" x="260.09" y="116.14" width=".91" height="3.34"/><g><rect class="cls-27" x="257.41" y="116.14" width=".91" height="3.34"/><rect class="cls-27" x="254.71" y="116.14" width=".91" height="3.34"/><rect class="cls-27" x="252.02" y="116.14" width=".91" height="3.34"/><rect class="cls-27" x="249.34" y="116.14" width=".91" height="3.34"/><rect class="cls-27" x="246.64" y="116.14" width=".91" height="3.34"/><rect class="cls-27" x="243.95" y="116.14" width=".91" height="3.34"/><rect class="cls-27" x="241.27" y="116.14" width=".91" height="3.34"/><rect class="cls-27" x="238.58" y="116.14" width=".91" height="3.34"/><rect class="cls-27" x="235.88" y="116.14" width=".91" height="3.34"/><rect class="cls-27" x="233.2" y="116.14" width=".91" height="3.34"/></g><g><rect class="cls-82" x="292.42" y="149.83" width=".91" height="11.84"/><rect class="cls-82" x="283.7" y="149.83" width=".91" height="11.84"/><rect class="cls-82" x="280.96" y="149.83" width=".91" height="11.84"/><rect class="cls-82" x="232.75" y="148.43" width="30.13" height="1.76"/></g><rect class="cls-81" x="177.54" y="148.43" width="7.89" height="1.76"/><rect class="cls-66" x="265.41" y="148.43" width="29.15" height="1.56"/><rect class="cls-82" x="232.75" y="118.89" width="30.13" height="1.76"/><rect class="cls-66" x="265.41" y="118.89" width="29.15" height="1.56"/><g><rect class="cls-14" x="232.42" y="115.51" width="61.61" height=".47"/><rect class="cls-14" x="177.26" y="115.04" width="9.04" height="1.2"/></g><rect class="cls-61" x="232.74" y="161.33" width="30.32" height=".77"/><rect class="cls-82" x="265.64" y="160.99" width="30.32" height="1.04"/><rect class="cls-23" x="177.44" y="118.89" width="9.05" height="1.76"/><rect class="cls-83" x="294.47" y="115.82" width="2.27" height="49.8"/></g><g><rect class="cls-46" x="266.99" y="166.75" width="27.48" height="6.59"/><g><line class="cls-44" x1="282.63" y1="166.85" x2="290.35" y2="173.23"/><line class="cls-44" x1="287.66" y1="166.85" x2="294.57" y2="172.56"/><line class="cls-44" x1="278.16" y1="166.85" x2="285.87" y2="173.23"/><line class="cls-44" x1="274.14" y1="166.85" x2="281.85" y2="173.23"/><line class="cls-44" x1="269.89" y1="166.85" x2="277.6" y2="173.23"/><line class="cls-44" x1="266.99" y1="167.88" x2="273.55" y2="173.23"/><line class="cls-44" x1="292.74" y1="166.84" x2="285.87" y2="173.23"/><line class="cls-44" x1="288.22" y1="166.84" x2="281.78" y2="172.99"/><line class="cls-44" x1="284.09" y1="166.84" x2="277.66" y2="172.99"/><line class="cls-44" x1="279.58" y1="166.84" x2="273.14" y2="172.99"/><line class="cls-44" x1="274.96" y1="166.84" x2="268.24" y2="173.34"/><line class="cls-44" x1="270.45" y1="166.92" x2="266.8" y2="170.82"/><line class="cls-44" x1="294.47" y1="169" x2="290.2" y2="173.38"/></g></g><g><rect class="cls-46" x="235.91" y="166.75" width="25.91" height="6.59"/><g><line class="cls-44" x1="250.66" y1="166.85" x2="257.94" y2="173.23"/><line class="cls-44" x1="255.4" y1="166.85" x2="261.92" y2="172.56"/><line class="cls-44" x1="246.45" y1="166.85" x2="253.72" y2="173.23"/><line class="cls-44" x1="242.66" y1="166.85" x2="249.93" y2="173.23"/><line class="cls-44" x1="238.65" y1="166.85" x2="245.93" y2="173.23"/><line class="cls-44" x1="235.91" y1="167.88" x2="242.1" y2="173.23"/><line class="cls-44" x1="260.2" y1="166.84" x2="253.72" y2="173.23"/><line class="cls-44" x1="255.94" y1="166.84" x2="249.87" y2="172.99"/><line class="cls-44" x1="252.04" y1="166.84" x2="245.97" y2="172.99"/><line class="cls-44" x1="247.78" y1="166.84" x2="241.71" y2="172.99"/><line class="cls-44" x1="243.44" y1="166.84" x2="237.09" y2="173.34"/><line class="cls-44" x1="239.18" y1="166.92" x2="235.73" y2="170.82"/><line class="cls-44" x1="261.83" y1="169" x2="257.8" y2="173.38"/></g></g><rect class="cls-65" x="176.29" y="165.27" width="8.72" height="8.73"/><g><rect class="cls-84" x="136.28" y="5.61" width="5.11" height="1.67"/><rect class="cls-84" x="141.67" y="5.61" width="5.11" height="1.67"/><rect class="cls-84" x="147.05" y="5.61" width="3.53" height="1.67"/><rect class="cls-84" x="145.75" y="7.47" width="5.11" height="1.67"/><rect class="cls-84" x="140.36" y="7.47" width="5.11" height="1.67"/><rect class="cls-84" x="136.56" y="7.47" width="3.53" height="1.67"/><rect class="cls-84" x="136.28" y="9.14" width="5.11" height="1.67"/><rect class="cls-84" x="141.67" y="9.14" width="5.11" height="1.67"/><rect class="cls-84" x="147.05" y="9.14" width="3.53" height="1.67"/><rect class="cls-84" x="145.75" y="11" width="5.11" height="1.67"/><rect class="cls-84" x="140.36" y="11" width="5.11" height="1.67"/><rect class="cls-84" x="136.56" y="11" width="3.53" height="1.67"/><rect class="cls-84" x="136.28" y="12.67" width="5.11" height="1.67"/><rect class="cls-84" x="141.67" y="12.67" width="5.11" height="1.67"/><rect class="cls-84" x="147.05" y="12.67" width="3.53" height="1.67"/><rect class="cls-84" x="145.75" y="14.52" width="5.11" height="1.67"/><rect class="cls-84" x="140.36" y="14.52" width="5.11" height="1.67"/><rect class="cls-84" x="136.56" y="14.52" width="3.53" height="1.67"/><rect class="cls-84" x="136.28" y="14.43" width="5.11" height="1.67"/><rect class="cls-84" x="141.67" y="14.43" width="5.11" height="1.67"/><rect class="cls-84" x="147.05" y="14.43" width="3.53" height="1.67"/><rect class="cls-84" x="145.75" y="16.29" width="5.11" height="1.67"/><rect class="cls-84" x="140.36" y="16.29" width="5.11" height="1.67"/><rect class="cls-84" x="136.56" y="16.29" width="3.53" height="1.67"/></g><g><polygon class="cls-47" points="142.32 18.33 162 3.29 195.04 28.08 241.09 28.45 249.91 61.03 184.71 58.46 142.32 18.33"/><polygon class="cls-47" points="138.9 15.12 184.71 58.46 158.94 54.3 138.9 15.12"/></g><polygon class="cls-38" points="138.9 15.12 158.94 54.3 118.08 53.52 138.9 15.12"/><polygon class="cls-7" points="138.9 15.12 92.18 56.51 118.08 53.52 138.9 15.12"/><polygon class="cls-54" points="124.91 27.03 92.11 27.03 87.69 68.94 96.28 68.94 91.59 61.13 91.46 56.7 124.91 27.03"/><rect class="cls-96" x="135.37" y="3.03" width="16.15" height="2.36"/><rect x="135.27" y="1.15" width="16.27" height="1.94"/><rect class="cls-87" x="133.44" width="19.77" height="1.64"/><g><polygon class="cls-40" points="243.54 94.9 303.93 111.3 238.68 110.43 222.46 100.37 240.6 100.37 243.37 100.37 243.67 100.5 243.54 94.9"/><polygon class="cls-40" points="177.39 100.02 197.91 100.02 181.42 111.48 177.33 111.48 177.39 100.02"/></g><polygon class="cls-91" points="80.7 156.62 97.49 156.55 97.43 161.58 72.38 161.66 80.7 156.62"/><polyline points="96.61 69.03 97.62 73.61 87.69 73.61 87.69 68.94 96.28 68.94"/><rect class="cls-10" x="189.14" y="170.88" width="44.57" height="4.12"/></g><g><g><path class="cls-86" d="M317.64,97.5c.09-.06,.21-.1,.35-.14,.39-.09,.77-.25,1.15-.4,1.44-.58,2.49-1.63,3.39-2.86,.55-.76,.82-.73,1.37,.04,.28,.39,.51,.82,.83,1.2,.09,.1,.13,.2,.17,.29-.09,.04-6.09,2.3-6.24,2.29-.15-.03-.96-.39-1-.41h0Z"/><path class="cls-86" d="M308.45,98.72c.1-1.55,1.45-2.84,3.02-2.9,.48-.03,.86,.16,1.1,.49l-4.09,2.61c-.03-.08-.04-.14-.03-.2Z"/><path class="cls-86" d="M299.82,96.65h0c.08-.23,.28-.37,.64-.47,.77-.22,1.15-.09,1.39,.61,.18,.5,.28,1.03,.44,1.54,.56,1.8,2.18,2.95,3.84,2.38l.17-.06-.3,2.09-6.19-6.08h0Z"/><path class="cls-86" d="M313.02,98.76c.13,1.23,.37,2.46,.63,3.66,.04,.2,.26,.61-.38,.54-.1-.04-.3-.07-.49-.15-1.79-.81-3.09-2.18-4.22-3.74-.04-.04-.06-.1-.08-.16l4.09-2.61c.13,.19,.23,.44,.25,.72,.06,.57,.15,1.16,.21,1.73h0Z"/><path class="cls-97" d="M363.18,85.23c-1.1-.81-2.32-1.04-3.66-.91-.02-.07-.05-.1-.04-.14,.55-1.67-.02-2.19-1.72-2.6-1.54-.37-3.01,0-4.48,.36-.27,.07-.59,.25-.75-.02-.17-.3,.11-.56,.32-.78,.48-.52,.99-1.03,1.42-1.58,.77-.98,.51-2.12-.62-2.65-1.69-.77-3.44-.65-5.19-.2-2.52,.65-4.6,2-6.24,4.02-.14,.17-.25,.42-.54,.24-.84-.5-1.78-.54-2.72-.64-.71-.07-.91-.36-.57-.95,1.15-1.98-.3-3.95-1.75-4.63-.35-.16-.7-.28-1.05-.44-.22-.09-.45-.21-.44-.47,.02-.29,.25-.45,.5-.5,.95-.17,1.9-.35,2.85-.48,1.38-.2,2.77-.42,4.09-.88,3.03-1.07,4.08-3.09,3.27-6.21-.04-.14-.07-.29-.1-.45,1.6-.29,3.16-.64,4.67-1.23,2.35-.91,2.49-2.99,1.01-4.65-1.58-1.78-3.59-2.46-5.95-1.93-.49,.1-.57-.08-.78-.4-.82-1.32-1.9-2.28-3.54-2.39-.97-.07-1.49,.56-1.97,1.2-.34,.46-.57,1.01-.89,1.57-1.17-1.28-2.56-1.34-4.08-.78-1.53,.57-2.05,1.58-1.43,3.08,.23,.53,.09,.68-.37,.85-.81,.3-1.58,.69-2.39,1.01-.99,.38-1.38,.22-1.84-.71-.12-.25-.23-.51-.38-.75-.38-.56-.43-1.04,0-1.65,.46-.67,.25-1.42-.2-2.07-.32-.46-.7-.88-1-1.35-.88-1.38-.58-2.27,.92-2.86,1.01-.4,2.08-.49,3.12-.7,.75-.15,1.58-.25,1.85-1.12,.26-.83-.24-1.48-.75-2.05-1.57-1.74-3.5-2.67-5.88-2.54-.44,.03-.66,.02-.5-.55,.24-.84,.17-1.72,0-2.57-.38-2.02-2.12-3.21-4.6-3.11-.61,.03-1.21,.11-1.81,.23-.51,.09-.72-.08-.69-.59,.05-.8-.63-1.51-.54-2.14,.09-.57,1.09-.87,1.47-1.54,.64-1.11,.64-2.3-.05-3.14-.75-.91-2.21-1.18-3.59-.66-.75-2.39-2.37-3.36-4.81-2.85-1.38,.28-2.09,1.24-1.97,2.65,.11,1.37,.71,2.52,1.57,3.59,.12,.16,.42,.3,.28,.57-.1,.19-.37,.11-.57,.14-.35,.04-.7,.08-1.06,.09-2.5,.12-3.84,2.5-2.65,4.7,.48,.88,1.19,1.58,1.89,2.29,.57,.57,.5,.81-.26,1.02-.42,.11-.84,.17-1.27,.26-1.33,.26-2.47,.83-3.15,2.05-.22,.39-.47,.3-.76,.22-2.13-.71-4.33-.99-6.55-.87-1.31,.07-2.6,.26-3.78,.91-1.29,.7-1.47,1.64-.57,2.78,.42,.52,.93,.93,1.44,1.34,.16,.12,.36,.2,.37,.46-1.19-.18-2.37-.26-3.55,0-.28,.06-.52,.17-.77,.3-1.18,.64-1.39,1.58-.64,2.7,.29,.42,.61,.81,.98,1.2-1.19-.37-2.39-.62-3.6-.76-1.38-.16-2.72-.11-4,.5-1.3,.64-1.48,1.66-.52,2.74,.82,.92,1.83,1.58,2.9,2.25-.5,.44-.99,.84-1.46,1.26-.56,.5-1.08,1.07-1.31,1.76-.28,.86-.81,.83-1.48,.7-3.35-.62-6.62-.37-9.79,.96-.83,.34-1.58,.8-2.24,1.41-1.16,1.07-1.06,2.23,.22,3.15,.86,.63,1.85,1.03,2.8,1.48,.2,.09,.52,.1,.54,.34,.02,.28-.32,.34-.52,.46-1.01,.61-2.15,1-2.99,1.9-1.18,1.27-.91,2.72,.68,3.41,1.27,.56,2.57,.36,3.86,.1,.59-.11,1.18-.33,1.92-.17-.74,1.06-.46,1.98,.47,2.76-.79,.36-1.49,.72-2.12,1.27-.6,.52-1.31,.08-1.94-.05-1.79-.36-3.59-.58-5.41-.21-2.01,.42-4.04,2.37-4.36,4.09-.16,.86,.21,1.54,.71,2.13,1.38,1.6,1.02,1.49-.43,2.28-1.19,.64-2.27,1.41-3.2,2.41-1.51,1.65-1.36,3.31,.46,4.64,1.2,.89,2.56,1.5,3.88,2.16,.21,.1,.58,.15,.53,.45-.04,.26-.38,.26-.62,.32-3.39,1.05-6.45,2.72-9.13,5.01-1.48,1.26-2.86,2.65-3.67,4.5-1.27,2.89,.58,5.23,3.53,5.42,2.47,.16,4.71-.64,6.91-1.63,2.41-1.08,4.82-2.16,7.24-3.22,.18-.09,.42-.32,.62-.1,.15,.17,.05,.43,0,.65-.43,1.92-.6,3.78,.64,5.5,1.01,1.38,3.22,2.24,4.89,1.93,4.53-.82,6.86-3.89,8.24-7.95,.26-.75,.46-1.51,.71-2.36,.64,.78,1.27,1.45,2.04,2.01,4.01,2.92,8.03,1.47,10.06-2.93,.84-1.85,1.02-3.84,.92-5.85-.03-.51,.09-.85,.61-1.06,.37-.15,.7-.43,1.02-.65,.44-.3,.6-.44,.7-.27l1.63-1.36c.08-.23,.28-.37,.64-.47,.77-.22,1.15-.09,1.39,.61,.18,.5,.28,1.03,.44,1.54,.56,1.8,2.18,2.95,3.84,2.38,.06-.03,.11-.04,.17-.06,.88-.24,1.42-.66,1.74-1.03s.42-.69,.42-.69l.03-.02c-.02-.07-.03-.13-.03-.19,.1-1.55,1.45-2.84,3.02-2.9,.48-.03,.86,.16,1.1,.49,.78,.58,2.05,.88,3.12,1.03,1.07,.16,1.95,.17,1.95,.17h0c.09-.06,.21-.1,.35-.14,.39-.09,.77-.25,1.15-.4,1.44-.58,2.49-1.63,3.39-2.86,.55-.76,.82-.72,1.37,.04,.28,.39,.51,.82,.83,1.2,.09,.1,.14,.2,.17,.29h0s2.36,2.27,2.39,2.29c.22,.09,.41,.35,.62,.44,.57,.22,.1,.45-.05,.64-.82,1.07-.74,2.65,.17,3.71,1.97,2.3,5.15,3.02,8.31,1.89,.73-.27,1.45-.56,2.19-.78,.97-.29,1.23-.09,1.31,.9,.17,2.48,2.66,5.16,5.21,5.75,1.68,.39,3.05-.25,4.43-1.04,.56-.32,1.01-1.04,1.64-.98,.64,.07,.92,.87,1.4,1.32,.95,.89,1.97,1.45,3.33,1.15,2.13-.48,3.06-2.05,2.39-4.14-.21-.64-.5-1.25-.79-1.94,.98-.15,1.96,.07,2.91-.2,.74-.21,1.44-.44,1.98-1.04,.49-.56,.57-1.24,.17-1.87-.64-1.01-1.61-1.65-2.57-2.31-2.85-1.98-6.11-2.92-9.45-3.62-.61-.12-1.23-.21-1.93-.5,.9-.21,1.69-.36,2.46-.57,.67-.2,1.32-.48,1.85-.99,1.18-1.14,1.25-2.44,.24-3.71-.06-.08-.1-.16-.18-.28,2.02-.25,3.99-.37,5.97-.35,1.14,0,2.27-.13,3.33-.61,.64-.28,1.18-.7,1.51-1.33,.43-.84,.24-1.68-.5-2.23l.06-.05Z"/><path class="cls-95" d="M306.24,80.36c-.28,.26-.59,.48-.91,.69-.71,.49-1.45,.93-2.15,1.44-1.25,.92-2.29,2.04-2.73,3.57-.14,.5-.37,.6-.84,.62-1.77,.06-3.48,.45-5.06,1.27-1.26,.64-1.55,1.53-1.04,2.85,.08,.19,.28,.37,.1,.66-1.54-.77-3.11-1.43-4.84-1.54-2.49-.15-4.83,.17-6.64,2.14-.08,.09-.23,.2-.3,.17-1-.25-2.05-.06-3.21-.27,1.01-.62,1.89-1.16,2.76-1.7,.59-.36,1.13-.77,1.54-1.33,.5-.67,.39-1.32-.29-1.81-.56-.4-1.2-.61-1.84-.84-.79-.3-1.67-.33-2.5-.81,.39-.35,.79-.44,1.17-.56,1.59-.53,3.22-1,4.6-2.04,.5-.37,1.01-.84,.83-1.51-.18-.65,.17-.83,.61-1.01,.13-.06,.28-.11,.4-.21,.36-.28,.53-.3,.73,.21,.72,1.83,2.43,2.86,4.39,2.79,1.15-.04,2.18-.45,3.2-.92,1.72-.79,3.24-1.91,4.87-2.85,1.29-.76,2.66-1.29,4.16-1.38,.98-.06,1.93,.03,2.8,.54,.84,.5,.92,1.11,.23,1.78v.03Z"/><path class="cls-95" d="M309.15,55.12c-1.31,.24-1.88,1.1-1.49,2.37,.13,.44,.35,.84,.56,1.24,.31,.61,.67,1.2,.99,1.8,.28,.53,.24,1.09-.24,1.45-1.13,.86-1.85,2.01-2.39,3.28-.17,.37-.32,.41-.55,.04-.44-.69-.96-1.31-1.53-1.9-.2-.2-.27-.43-.22-.69,.5-2.64-.64-4.53-2.7-6.02-.18-.12-.46-.17-.51-.43-.13-.68-.52-1.24-.85-1.84-.3-.56-.06-.67,.44-.64,.67,.07,1.35,.19,2.03,.24,1.51,.1,3.04,.26,4.45-.47,.21-.1,.34-.14,.53,0,.64,.45,1.29,.89,2.12,1.44-.32,.07-.47,.09-.63,.1v.02Z"/><path class="cls-90" d="M363.18,85.22c-1.1-.81-2.32-1.05-3.66-.91-.02-.07-.05-.1-.04-.14,.55-1.67-.02-2.19-1.72-2.6-1.54-.37-3.01,0-4.48,.36-.27,.07-.59,.25-.75-.02-.17-.3,.11-.56,.32-.78,.48-.52,.99-1.03,1.42-1.58,.77-.98,.51-2.12-.62-2.65-1.69-.77-3.44-.65-5.19-.2-2.52,.65-4.6,2-6.24,4.02-.14,.17-.25,.42-.54,.24-.84-.5-1.78-.54-2.72-.64-.71-.07-.91-.36-.57-.95,1.15-1.98-.3-3.95-1.75-4.63-.35-.16-.7-.29-1.05-.44-.22-.09-.45-.21-.44-.47,.02-.29,.25-.45,.5-.5,.95-.17,1.9-.35,2.85-.48,1.38-.2,2.77-.42,4.09-.88,3.03-1.07,4.08-3.09,3.27-6.21-.04-.14-.07-.29-.1-.45,1.6-.29,3.16-.64,4.67-1.23,2.35-.91,2.49-2.99,1.01-4.65-1.58-1.78-3.59-2.46-5.95-1.93-.49,.1-.57-.08-.78-.4-.82-1.32-1.9-2.28-3.54-2.39-.97-.07-1.49,.56-1.97,1.2-.34,.46-.57,1-.89,1.57-1.17-1.28-2.56-1.34-4.08-.78-1.53,.57-2.05,1.58-1.43,3.08,.23,.53,.09,.68-.37,.85-.81,.3-1.58,.69-2.39,1.01-.99,.38-1.38,.22-1.84-.71,0,0-12.52,6.37-10.59,11.24,1.93,4.87,1.93,9.37-2.07,10.59-3.99,1.21-8.36,3.82-7.13,7.11,1.23,3.3-.42,5.34-7.63,3.47-2.93-.76-5.26-1.79-7.18-2.24,.04,.1,.05,.23-.04,.37-.4-.2-.81-.39-1.21-.57-2.13-.16-3.73,.87-5.11,4.7-2.78,7.64-5.73,5.55-14.59,5.04-8.85-.52-9.55,7.82-12.67,5.55-2.72-1.96,1.9-6.17,3.15-7.25-.1,.03-.22,.05-.31,.08-3.39,1.05-6.45,2.72-9.13,5.01-1.48,1.26-2.86,2.65-3.67,4.5-1.27,2.89,.58,5.23,3.53,5.42,2.47,.16,4.71-.64,6.91-1.63,2.41-1.08,4.82-2.16,7.24-3.22,.18-.09,.42-.32,.62-.1,.15,.17,.05,.43,0,.65-.43,1.92-.6,3.78,.64,5.5,1.01,1.38,3.22,2.24,4.89,1.93,4.53-.82,6.86-3.89,8.24-7.95,.26-.75,.46-1.51,.71-2.36,.64,.78,1.27,1.45,2.04,2.01,4.01,2.92,8.03,1.47,10.06-2.93,.84-1.85,1.02-3.84,.92-5.85-.03-.51,.09-.85,.61-1.06,.37-.15,.7-.43,1.02-.65,.44-.3,.6-.44,.7-.27l1.63-1.36c.08-.23,.28-.37,.64-.47,.77-.22,1.15-.09,1.39,.61,.18,.5,.28,1.03,.44,1.54,.56,1.8,2.18,2.95,3.84,2.38,.06-.03,.11-.04,.17-.06,.88-.24,1.42-.66,1.74-1.03s.42-.69,.42-.69l.03-.02c-.02-.07-.03-.13-.03-.19,.1-1.55,1.45-2.84,3.02-2.9,.48-.03,.86,.16,1.1,.49,.78,.58,2.05,.88,3.12,1.03,1.07,.16,1.95,.17,1.95,.17h0c.09-.06,.21-.1,.35-.14,.39-.09,.77-.25,1.15-.4,1.44-.58,2.49-1.63,3.39-2.86,.55-.76,.82-.72,1.37,.04,.28,.39,.51,.82,.83,1.2,.09,.1,.14,.2,.17,.29h0s2.36,2.27,2.39,2.29c.22,.09,.41,.35,.62,.44,.57,.22,.1,.45-.05,.64-.82,1.07-.74,2.65,.17,3.71,1.97,2.3,5.15,3.02,8.31,1.89,.73-.27,1.45-.56,2.19-.78,.97-.29,1.23-.09,1.31,.9,.17,2.48,2.66,5.16,5.21,5.75,1.68,.39,3.05-.25,4.43-1.04,.56-.32,1.01-1.04,1.64-.98,.64,.07,.92,.87,1.4,1.32,.95,.89,1.97,1.45,3.33,1.15,2.13-.48,3.06-2.05,2.39-4.14-.21-.64-.5-1.25-.79-1.94,.98-.15,1.96,.07,2.91-.2,.74-.21,1.44-.44,1.98-1.04,.49-.56,.57-1.24,.17-1.87-.64-1.01-1.61-1.65-2.57-2.31-2.85-1.98-6.11-2.92-9.45-3.62-.61-.12-1.23-.21-1.93-.5,.9-.21,1.69-.36,2.46-.57,.67-.2,1.32-.48,1.85-.99,1.18-1.14,1.25-2.44,.24-3.71-.06-.08-.1-.16-.18-.28,2.02-.25,3.99-.37,5.97-.35,1.14,0,2.27-.13,3.33-.61,.64-.28,1.18-.7,1.51-1.33,.41-.83,.23-1.65-.52-2.2v-.02Z"/><path class="cls-93" d="M312.17,116.16c.92,2.09,5.09,5.79,5.25,6.49s2.49,11.34,2.36,5.09c-.12-6.25-.98-9.89,.33-10.59,1.31-.68,2.83-6.29,2.85-6.35,.73-3.18,1.28-6.39,2.34-9.48,.37-1.09,.83-2.12,1.44-3.11,.21-.33,.38-.38,.55-.31-.04-.02-2.4-2.29-2.4-2.29h0c.08,.21,.04,.41-.09,.66-.64,1.27-1.04,2.64-1.38,4.02-.57,2.3-.75,4.65-1.2,6.95-.37,1.87-.8,3.73-1.94,5.32-.39,.54-.63,.52-.91-.08-.29-.6-.46-1.24-.6-1.88-.88-4.11-.83-8.31-1.32-12.43-.09-.34,0-.55,.19-.68h0s-3.52-.04-5.07-1.2c.13,.19,.23,.44,.25,.72,.05,.58,.14,1.16,.2,1.73,.13,1.23,.37,2.46,.63,3.66,.04,.2,.26,.61-.38,.54-.1-.04-.3-.07-.49-.15-1.79-.81-3.09-2.18-4.22-3.74-.04-.04-.06-.1-.08-.16l-.03,.02s-.38,1.25-2.14,1.72h0c1.01-.3,1.54,.05,2.12,.79,.27,.33,.62,.61,.95,.88,1.24,1.05,2.48,2.12,3.59,3.3,.98,1.05,1.75,2.18,1.85,3.72,.1,1.45,.44,2.9,.67,4.34,.21,1.27,.44,2.54,.64,3.75-.02,.43,0,.83-.37,1.01-.35,.17-.64-.09-.89-.3-.17-.14-.33-.31-.5-.47-1.02-.95-1.68-2.17-2.35-3.36-.84-1.48-1.94-2.36-3.76-2.59-2.69-.34-4.7-1.81-5.68-4.47-.21-.57-.44-1.14-.63-1.72-.87-2.67-1.2-5.5-2.08-8.18-.1-.29-.12-.52-.06-.7l-1.63,1.36c.07,.1,.1,.3,.18,.63,.44,2.03,.73,4.09,1.24,6.11,.67,2.63,1.89,4.98,3.49,7.14,.88,1.18,2.18,1.82,3.41,2.52,2.18,.1,5.07,.48,5.64,1.75h.02Z"/><path class="cls-94" d="M323.74,169.21c.62-2.31,.38-5.17,1.25-9.49s-.33-5.95-.87-9.27,.86-4.65,.87-4.66c-.35-2.45-.77-4.88-1.25-7.29-.68-3.35-1.54-6.67-1.96-10.06-.3-2.44-.11-4.88,0-7.3,.02-.33,.08-.65,.06-.99-.14-3.04,.34-6,1.03-8.94,.04-.13,.06-.27,.09-.4-.02,.06-1.54,5.65-2.85,6.35s-.46,4.33-.33,10.59c.12,6.25-2.21-4.4-2.36-5.09-.15-.7-4.33-4.4-5.25-6.49-.57-1.27-3.46-1.65-5.63-1.75,.02,0,.04,.03,.06,.04,.7,.4,1.45,.73,2.09,1.25,1.11,.91,2.03,1.94,2.18,3.45,.13,1.3,.98,2.13,1.78,3.01,.53,.58,1.12,1.11,1.64,1.71,1.44,1.65,1.88,3.72,2.17,5.77,.8,5.72,1.95,11.38,2.78,17.09,.38,2.65,.69,5.27,.44,7.96-.45,4.64-1.03,9.24-3.17,13.48-.92,1.85-2.3,3.13-4.12,4.02-1.72,.84-3.5,1.52-5.11,2.55-.38,.24-.77,.5-1.15,.75,.02,.05,.03,.1,.04,.15h7.01s9.97-4.07,10.59-6.39l-.02-.02Z"/></g><path class="cls-93" d="M331.44,174.11c-.87-.34-1.79-.55-2.65-.98-.52-.27-1.02-.56-1.44-.98-.57-.55-.82-1.14-.71-1.97,.37-2.97,.22-5.94-.09-8.91-.28-2.72-.42-5.46-.68-8.19-.24-2.44-.52-4.87-.87-7.28,0,0-1.41,1.33-.87,4.66s1.75,4.94,.87,9.27-.64,7.17-1.25,9.49c-.62,2.31-10.58,6.39-10.58,6.39h20.83c-.83-.75-1.67-1.17-2.56-1.51Z"/></g></svg>