<?xml version="1.0" encoding="UTF-8"?><svg xmlns="http://www.w3.org/2000/svg" viewBox="0 0 359.12 159.97"><defs><style>.cls-1{fill:#5e3500;}.cls-2{fill:#a89c96;}.cls-3{fill:#fff;}.cls-4{fill:#36251c;}.cls-5{fill:#1e1f26;}.cls-6{fill:#006992;}.cls-7{fill:#2b1b20;}.cls-8,.cls-9{fill:#c4b6af;}.cls-10{isolation:isolate;}.cls-11{fill:#772e25;}.cls-12{fill:#dea393;}.cls-12,.cls-13,.cls-9,.cls-14{mix-blend-mode:multiply;}.cls-15{fill:#084761;}.cls-16{fill:#e07726;}.cls-17{fill:#367a74;}.cls-18{fill:#eef4ed;}.cls-19{fill:#764134;}.cls-20{fill:#5acfc5;}.cls-21{fill:#449e98;}.cls-22{fill:#b84e33;}.cls-13{fill:#deac93;}.cls-23{fill:#2a615d;}.cls-24{fill:#2e1c22;}.cls-25{fill:#f58f29;}.cls-26{fill:#52323d;}.cls-27{fill:#472800;}.cls-28{fill:#945141;}.cls-9{opacity:.75;}.cls-29{fill:#7d4600;}.cls-30{fill:#d4ddd3;}.cls-31{fill:#767791;}.cls-32{fill:#444554;}.cls-33{fill:#2d2a58;}.cls-34{fill:#ccc;}.cls-35{fill:#ffb581;}.cls-36{fill:#151e38;}.cls-37{fill:#9ba6cc;}.cls-38{fill:#3a3b47;}.cls-39{fill:#192424;}.cls-14{fill:#8ebfbb;opacity:.5;}.cls-40{fill:#3f9089;}.cls-41{fill:#1c403d;}.cls-42{fill:#f2f2f2;}.cls-43{fill:#3b9089;}.cls-44{fill:#9e3736;}</style></defs><g class="cls-10"><g id="OBJECTS"><g><ellipse class="cls-14" cx="169.41" cy="157.03" rx="58.14" ry="2.94"/><rect class="cls-30" x="191.17" y="1.8" width="35.3" height="48.38"/><g><path class="cls-40" d="M196.2,43.48c.56,.64,1.17,.8,1.17,.8,0,0,.06-.05,.66,.55,.6,.6,1.33,.1,1.33,.1,0,0,.45,.75,1.62,.69,1.43-.08,1.77-.04,1.77-.04,.09,.11,.73,.04,1.17,.04h8.25s.08-.51-.12-1.07c-.2-.56-1.28-.68-1.28-.68,0,0,.52-.56,.72-1.32,.2-.76,.16-1.88,.16-1.88l.92-1.2s.32,2.92,.56,3.96c.24,1.04,.84,2.12,2.04,2.12h1.96s.36-.24,.12-.96c-.24-.72-1.32-.64-1.32-.64,0,0-.64-1.4-.72-3.2-.08-1.8,1-4.12,1-4.12,0,0,.68-.52,1.12-.88,.44-.36,.56-1.12,.56-1.12,0,0,.32,.48,.4,.16,.08-.32,.16-1.28,.16-1.28l.44,.12c.2-.44,.16-1.16-.2-1.88-.36-.72-.04-3.04,.16-4.28,.2-1.24,1.48-1.48,2.48-2.56,.5-.54,.72-1.32,.73-1.97,0-.64-.21-1.16-.57-1.2-.35-.04-.69,.08-1.06,.19-.38,.12-.8,.23-1.3,.17-1-.12-1.52-1.31-3.24-1.2-3.94,.26-4.04,4.12-4.4,5.86-.36,1.74-1.41,2.52-5.28,5.82-5.06,4.32-4.44,10.73-4.44,10.73-3.36,.5-5.01-2.01-5.23-2.1-.45-.17-.89,1.63-.33,2.27Z"/><rect class="cls-40" x="195.09" y="6.15" width="7.41" height="1.53"/><rect class="cls-40" x="195.09" y="17.7" width="7.41" height="1.53"/><rect class="cls-40" x="195.09" y="21.52" width="7.41" height="1.53"/><rect class="cls-40" x="195.09" y="25.33" width="7.41" height="1.53"/><rect class="cls-40" x="195.09" y="10.62" width="25.5" height="1.53"/></g><g><g><path class="cls-20" d="M135.66,63.36h34.42c6.38,0,11.56,5.18,11.56,11.56v81.94h-57.53V74.92c0-6.38,5.18-11.56,11.56-11.56Z"/><rect class="cls-21" x="124.1" y="81.47" width="56.96" height=".4"/><rect class="cls-21" x="124.1" y="100.39" width="56.96" height=".4"/><rect class="cls-21" x="124.1" y="119.32" width="56.96" height=".4"/><rect class="cls-21" x="124.1" y="138.24" width="56.96" height=".4"/><path class="cls-21" d="M161.7,73.76h-17.65c-.51,0-.92-.41-.92-.92s.41-.92,.92-.92h17.65c.51,0,.92,.41,.92,.92s-.41,.92-.92,.92Z"/><path class="cls-21" d="M161.7,91.9h-17.65c-.51,0-.92-.41-.92-.92s.41-.92,.92-.92h17.65c.51,0,.92,.41,.92,.92s-.41,.92-.92,.92Z"/><path class="cls-21" d="M161.7,110.78h-17.65c-.51,0-.92-.41-.92-.92s.41-.92,.92-.92h17.65c.51,0,.92,.41,.92,.92s-.41,.92-.92,.92Z"/><path class="cls-21" d="M161.7,129.66h-17.65c-.51,0-.92-.41-.92-.92s.41-.92,.92-.92h17.65c.51,0,.92,.41,.92,.92s-.41,.92-.92,.92Z"/><path class="cls-21" d="M161.7,148.54h-17.65c-.51,0-.92-.41-.92-.92s.41-.92,.92-.92h17.65c.51,0,.92,.41,.92,.92s-.41,.92-.92,.92Z"/></g><g><rect class="cls-7" x="143.04" y="47.29" width="3" height="3.33" rx="1.23" ry="1.23"/><rect class="cls-40" x="141.29" y="49.51" width="6.5" height="13.9" rx=".87" ry=".87"/><rect class="cls-3" x="141.29" y="51.89" width="3.79" height="8.86"/></g><g><rect class="cls-40" x="151.42" y="54.38" width="7.04" height="8.97"/><rect class="cls-3" x="153.2" y="56.09" width="3.49" height=".85"/><rect class="cls-3" x="153.2" y="59.29" width="3.49" height="2.94"/></g><g><rect class="cls-40" x="130.75" y="54.38" width="7.04" height="8.97"/><rect class="cls-3" x="132.53" y="56.09" width="3.49" height=".85"/><rect class="cls-3" x="132.53" y="59.29" width="3.49" height="2.94"/></g></g><polygon class="cls-42" points="158.07 144.23 166.36 143.55 167.47 134.57 170.98 143.55 182.92 143.32 181.07 110.98 177.92 87.92 169.01 91.33 158.07 144.23"/><path class="cls-19" d="M170.81,49.48s-2.65,6.16-.6,12.66c1.76,5.58,3.85-11.89,2.31-12.49-1.54-.6-1.71-.17-1.71-.17Z"/><path class="cls-7" d="M170.99,61.85c-.57-.27-.36-3.98-.36-3.98l.77,.97s-.01,1.49-.15,2.4c-.13,.91-.01,.73-.27,.61Z"/><path class="cls-35" d="M172.89,55.07c-3.08,6.16-8.27,14.94-8.27,14.94,0,0,7.06,4.64,9.66,4.64s1.2-3.4,1.2-3.4l2.71-9.17-5.3-7Z"/><path class="cls-35" d="M175.17,68.57c-3.89-1.37-5.07-6.03-3.77-9.72l2.06-5.85c1.3-3.69,5.22-5.67,8.75-4.43h0c3.54,1.24,5.35,5.24,4.05,8.93l-2.21,5.78c-1.3,3.69-4.99,6.66-8.88,5.29Z"/><path class="cls-19" d="M184.05,48.23s1.04,.2,2.84,2.28c1.36,1.57,1.04,4.19,.2,6.3-.67,1.68-1.71,2.98-1.71,2.98,0,0,1.39-5.24,.8-6.34-.6-1.1-2.41-1.27-2.41-1.27l.28-3.95Z"/><path class="cls-13" d="M171.98,63.63c.02,.1-.89,4.82,3.94,6.12l.26-.92c-.06,0-.7-.15-2.18-1.27-1.63-1.22-2.02-3.93-2.02-3.93Z"/><path class="cls-7" d="M178.72,57.81c-.1,.28-.4,.42-.68,.33-.28-.1-.42-.4-.33-.68,.1-.28,.4-.42,.68-.33,.28,.1,.42,.4,.33,.68Z"/><path class="cls-7" d="M183.93,59.71c-.1,.28-.4,.42-.68,.33-.28-.1-.42-.4-.33-.68,.1-.28,.4-.42,.68-.33,.28,.1,.42,.4,.33,.68Z"/><path class="cls-19" d="M185.66,52.3s-1.13,2.53-4.49,.79c-3.36-1.75-6.17,.41-6.17,.41,0,0-.71,2.02-1.05,2.82-.34,.8-.8,.06-.8,.06-.16,.26-.23-.3-.17-.6l-.1-.7v-.1c-.17-.18-.33-.39-.56-.48-.38-.13-1.68,1.35-2.09,1.44,0,0-.28-4.26,.58-6.46,1.01-2.58,5.12-5.42,10.2-3.87,7.11,2.17,4.65,6.69,4.65,6.69Z"/><path class="cls-28" d="M185.25,49.61c-.35,.31-.76,.56-1.19,.77l-.32,.15c-.11,.05-.22,.08-.33,.13-.11,.04-.22,.08-.34,.12l-.34,.09c-.92,.24-1.88,.28-2.83,.21l-.71-.09c-.23-.04-.46-.1-.69-.15l-.35-.08c-.12-.02-.23-.07-.34-.11-.22-.07-.45-.15-.67-.23l-.17-.06-.16-.07-.32-.15-.64-.29c-.41-.23-.82-.47-1.22-.71,.42,.2,.84,.42,1.26,.63l.65,.27,.32,.13,.16,.07,.17,.05c.45,.13,.88,.31,1.35,.39,.23,.05,.45,.11,.68,.14l.69,.09c.93,.09,1.87,.05,2.78-.16l.34-.08c.11-.03,.22-.07,.33-.1,.11-.04,.22-.07,.33-.11l.32-.13c.43-.18,.85-.41,1.22-.69Z"/><path class="cls-35" d="M175,143.04s-1.45,4.53-1.54,6.41c-.06,1.38,7.78,.85,8.78-.54,.33-.46,2-5.7,2-5.7l-9.24-.17Z"/><path class="cls-43" d="M173.54,146.03h11.37c3.23-11.81,8.09-33.91,5.82-37.2-2.65-3.85-22.8-.21-22.8-.21l-18.87,1.31s-8.12,9.17,.79,13.89c8.91,4.72,22.07-.11,26.35-.62,1.02-.12-1.31,14.71-2.66,22.83Z"/><polygon class="cls-35" points="129.08 138.59 122.92 137.39 122.75 144.75 133.01 149.19 129.08 138.59"/><path class="cls-43" d="M146.7,107.57s-2.83,10.76-1.83,14.94c2.62,11.01,4.47,16.7,3.93,19.39-.52,2.62-20.31-3.67-20.31-3.67,0,0-1.81,6.81-.52,9.96,.34,.24,21.93,13.87,31.98,7.85,5.99-3.59,2.48-47.67,2.48-47.67l-15.72-.79Z"/><path class="cls-25" d="M166.74,67.16s-8.21,.32-9.61,1.63c-5.43,5.09-10.01,40.21-10.01,40.21,0,0,20.06,1.59,25.83-1.03,0,0,4.79-16.25,6.58-29.85,1.14-8.64-3.59-8.29-3.59-8.29l-2.39,2.1-6.81-4.77Z"/><polygon class="cls-25" points="165.17 67.22 167.02 65.61 173.55 71.15 176.35 68.88 177.49 71.85 175.74 74.12 173.34 71.87 169.65 73.57 165.17 67.22"/><path class="cls-44" d="M175.74,74.2s-.04,0-.05-.02l-2.36-2.21-3.64,1.67s-.08,0-.1-.03l-4.48-6.35s-.02-.09,.02-.11c.04-.02,.09-.02,.11,.02l4.45,6.29,3.63-1.67s.06,0,.09,.01l2.33,2.19,1.69-2.2s.08-.04,.11-.01c.03,.03,.04,.08,.01,.11l-1.75,2.27s-.03,.03-.06,.03h0Z"/><path class="cls-42" d="M180.94,76.34s2.04,12.84,3.2,15.67c1.42,3.44,11.62,13,11.62,13,0,0-1.13,1.87-2.55,2.83-1.41,.96-6.5-.63-7.92-2.15-2.28-2.43-6.25-5.5-7.5-8.68-2.02-5.17,3.15-20.67,3.15-20.67Z"/><path class="cls-42" d="M176.35,68.88s.04,8.13-.8,15.04c-.7,5.72-2.7,28.64-2.7,28.64l7.96-5.45s.25-26.27,.25-31.51-4.72-6.73-4.72-6.73Z"/><path class="cls-2" d="M180.72,107.13c0-.06-.78-5.62-.71-13.44,.01-1.42,0-10.86,0-10.95h.19c0,.09,.01,9.54,0,10.95-.07,7.8,.7,13.36,.71,13.41l-.19,.03Z"/><path class="cls-42" d="M166.39,66s1.76,7.87,.9,20.79c-.87,13.14-4.35,31.34-4.74,33.71-.79,4.72-11.62,19.04-12.93,21.14-1.31,2.1-4.19,1.57-4.19,1.57,0,0-1.3-13.74-1.56-23.43s5.85-47.26,8.72-49.94c1.57-1.46,13.8-3.83,13.8-3.83Z"/><path class="cls-2" d="M165.08,96.64s-.09-.04-.09-.08l-1.42-13.01,2.04-2.15-1.93-2.15,1.86-12.47c0-.05,.06-.09,.11-.08,.05,0,.09,.06,.08,.11l-1.85,12.38,1.99,2.21-2.1,2.21,1.41,12.92c0,.05-.03,.1-.08,.1h-.01Z"/><path class="cls-2" d="M174.88,98.49s-.02,0-.03,0c-.05-.01-.08-.07-.07-.12l3.37-11.73-1.32-2.75,1.54-1.54c-.42-4.19-1.22-12.13-1.3-12.47-.01-.05,.02-.1,.07-.12,.05-.01,.1,.02,.12,.07,.11,.44,1.26,12.05,1.31,12.54v.04l-1.51,1.51,1.29,2.7v.03l-3.39,11.77s-.05,.07-.09,.07Z"/><path class="cls-7" d="M173.66,148.15s1.1,1.42,3.94,1.42,3.78-.95,4.57-.95,3.78,3.15,5.99,4.1c2.21,.95,4.36,.47,5.31,2.05,.95,1.58,0,2.52,0,2.52h-20.23c-.69,0-1.26-.56-1.26-1.25,0-2.1,.18-6.27,1.68-7.89Z"/><path class="cls-7" d="M124.78,137.53s-1.42,1.1-1.42,3.94,.95,3.78,.95,4.57-3.15,3.78-4.1,5.99c-.95,2.21,4.46,4.38,2.88,5.32-1.58,.95-4.67-.11-4.67-.11h0c-1.98-1.27-3.14-3.49-3.06-5.85l.29-8.5v-5.4c0-.91,.74-1.65,1.65-1.64,2.19,.02,5.97,.27,7.49,1.68Z"/><path class="cls-35" d="M169.9,56.77c.12,1.23,.96,2.15,1.89,2.06,1.72-.16,1.56-1.52,1.44-2.75-.12-1.23-.7-1.83-1.87-1.69-.92,.11-1.58,1.16-1.47,2.38Z"/><path class="cls-13" d="M170.65,55.83c.12-.28,.33-.6,.65-.67,.28-.06,.61,.16,.57,.46,0,.06-.11,.06-.11,0,0-.15-.11-.26-.26-.28-.15-.02-.3,.07-.4,.17-.22,.22-.33,.55-.36,.85-.03,.31,.04,.65,.21,.91,.08,.12,.19,.23,.32,.3,.11,.05,.28,.09,.4,.05,.05-.01,.11,.04,.07,.09-.09,.1-.21,.16-.35,.14-.15-.02-.29-.1-.4-.19-.25-.21-.39-.53-.45-.85-.06-.33-.02-.67,.1-.98Z"/><path class="cls-7" d="M181.78,58.37c-.01-.11-.18-.12-.18,0,0,.97-.02,1.93-.2,2.89-.06,.34-.13,.83-.47,1-.39,.2-.85-.09-1.18-.29-.18-.11-.33,.16-.16,.28,.35,.23,.84,.49,1.27,.36,.4-.13,.6-.52,.69-.9,.12-.52,.19-1.05,.23-1.58,.05-.58,.07-1.18,0-1.76Z"/><path class="cls-7" d="M185.11,58.32c-.02-.12-.06-.22-.12-.32-.12-.2-.28-.36-.48-.48-.43-.25-.95-.22-1.37,.04-.08,.05-.03,.2,.07,.16,.36-.13,.78-.08,1.1,.14,.13,.09,.25,.22,.33,.35,.05,.08,.1,.15,.13,.23,.04,.08,.05,.19,.15,.23,.05,.02,.1,.02,.14-.02,.09-.08,.06-.23,.04-.34Z"/><path class="cls-7" d="M179.95,56.53c-.04-.12-.08-.22-.16-.32-.15-.2-.34-.37-.56-.5-.41-.24-.99-.37-1.42-.11-.1,.06-.07,.25,.06,.24,.2-.02,.4-.04,.6,0,.2,.04,.39,.09,.57,.2,.17,.1,.32,.23,.44,.39,.03,.04,.06,.09,.08,.13,.03,.04,.06,.07,.09,.11,.06,.09,.08,.21,.19,.26,.03,.01,.08,0,.1-.03,.08-.1,.03-.25,0-.37Z"/><path class="cls-9" d="M149.94,86.22s-2.36,16.17,7.19,20.11c9.55,3.93,18.7,0,18.7,0,0,0-16.46-1.01-20.5-7.86-4.04-6.85-5.39-12.24-5.39-12.24Z"/><path class="cls-7" d="M179.58,64.65c-.07-.1-.19-.07-.3-.09-.09-.02-.19-.05-.29-.08-.19-.05-.38-.15-.53-.27-.15-.12-.29-.27-.39-.43-.11-.18-.17-.37-.26-.55-.04-.08-.18-.06-.2,.03-.09,.47,.27,.95,.62,1.23,.19,.15,.41,.27,.64,.34,.12,.04,.24,.05,.36,.04,.11,0,.29,.01,.35-.1,.02-.03,.02-.08,0-.11Z"/><path class="cls-5" d="M206.39,128.26s1.42,18.22,1.01,19.84c-.4,1.62-1.01,3.04,0,4.25,1.01,1.21,.81,4.05,2.83,4.45,2.02,.4,4.25-.2,4.25-.2l-4.66-26.72-3.44-1.62Z"/><path class="cls-32" d="M162.03,109.51c-1.47,.56-2,6.05-6.25,5.44s-4.35-3.75-5.87-2.53c-1.52,1.21-.2,3.54,3.34,5.16s7.29-.51,8.71-3.95c1.42-3.44,1.54-4.68,.08-4.12Z"/><path class="cls-32" d="M221.09,96.83c-1.87-1.84-3.95-6.83-6.55-4.23-3.04,3.04-6.81,8.98-9.03,9.89s-12.35,1.82-21.76,1.62c-9.41-.2-18.32,1.21-21.86,5.16-3.54,3.95,.2,17.61-1.11,22.98-1.32,5.36-2.02,6.38-3.04,7.79-1.01,1.42-2.13,1.52-1.72,3.75,.4,2.23,1.32,13.16,3.14,14.07,1.82,.91,5.36,.3,6.28-.2,.91-.51,.51-2.23-1.11-2.53-1.62-.3-2.63-.3-3.24-1.11-.61-.81-.91-8.1,.51-11.13,1.42-3.04,12.35-19.43,17.92-19.13,5.57,.3,11.24,3.95,17.81,4.76,6.58,.81,8.3,.1,9.31,1.72s3.24,17.11,3.24,17.11c0,0-.33,1.21-.1,2.28,.23,1.06,1.37,1.44,1.75,2.66,.38,1.21,.38,3.87,1.37,4.25,.99,.38,5.24,.91,5.92-.08,.68-.99-.84-2.73-2.35-3.26s-1.59-.08-2.35-1.14c-.76-1.06-1.67-8.05-1.14-13.44s.99-10.02,.99-10.02c0,0,2.43-4.48,2.81-8.27,.38-3.8,.46-7.67,2.81-12.15,1.06-2.01,3.17-5,4.87-6.67,1.55-1.52-1.26-2.63-3.33-4.67Z"/><path class="cls-42" d="M200.36,128.82c-.88-.07-1.89-.16-3.06-.31-4.57-.56-8.7-2.49-12.66-3.72l-1.97-20.69c.36,0,.71,0,1.07,.01,6.37,.14,13.06-.24,17.41-.77,.12,3.84,.57,21.34-.79,25.47Z"/><path class="cls-31" d="M191.09,126.79c-.06-.22-5.62-22.01-5.77-22.46l.32-.11c.15,.46,5.54,21.58,5.77,22.48l-.33,.08Z"/><rect class="cls-31" x="194.57" y="104" width=".34" height="24.78" transform="translate(-19.91 42.92) rotate(-11.97)"/><rect class="cls-31" x="198.22" y="103.81" width=".34" height="22.93" transform="translate(-2.98 5.3) rotate(-1.52)"/><rect class="cls-31" x="186.98" y="115.71" width=".34" height="11.74" transform="translate(-36.01 118.9) rotate(-32.32)"/><path class="cls-32" d="M220,86.76c3.06-.9,4.02-.3,6.45,.53,2.43,.84,2.58,2.05,4.48,2.66s6.76,.68,7.59,1.52c.84,.84-1.37,3.95-2.66,4.63-1.29,.68-2.05,.53-3.26,.68-1.21,.15-3.72-.53-4.48,.3-.76,.84,.99,.68,2.2,.84,1.21,.15,3.26-.15,4.1-.3s1.52-.68,1.67-.15c.15,.53-1.21,1.82-2.96,2.05s-4.55-.53-6.6,.46c-2.05,.99-3.49,3.34-5.16,3.34s-7.74-5.01-7.9-7.44c-.15-2.43,3.19-8.12,6.53-9.11Z"/><path class="cls-5" d="M218.71,90.33c1.87,.19,1.82,.61,2.58,2.51s2.35,5.31,.91,5.92c-1.44,.61-7.74-2.35-8.05-3.72-.3-1.37,.91-5.09,4.55-4.71Z"/><path class="cls-5" d="M226.58,89.86c0,.37,.22,.67,.5,.67s.5-.3,.5-.67-.22-.67-.5-.67-.5,.3-.5,.67Z"/><g><path class="cls-35" d="M196.34,103.1c-.2-.08-.54-.17-.93,.32,.29-.59,.29-1.34-.67-1.57-.57-.14-.97,.24-.97,.24,.16-.64-.24-.9-1-1-.33-.04-.98,.39-.98,.39,.16-.62,.04-.73-.9-.88-.94-.16-3.49,3.5-2,4.23,.55,.27,.79,.13,1.26-.44-.12,.55-.04,1,.39,1.21,.52,.25,1.03-.04,1.49-.54-.18,.62-.13,1.16,.34,1.39,.66,.32,1.31-.24,1.84-.99-.24,.62-.26,1.18,.19,1.4,1.26,.62,2.26-2.53,2.26-2.53,.13-.52,.33-.98-.32-1.23Z"/><path class="cls-13" d="M191.63,101.64c-.06,.25-.15,.48-.25,.72-.1,.23-.21,.46-.33,.68-.12,.22-.25,.44-.39,.64-.14,.21-.29,.41-.48,.59,.17-.48,.39-.93,.62-1.37,.12-.22,.24-.44,.38-.65,.13-.21,.28-.42,.44-.62Z"/><path class="cls-13" d="M193.64,102.21c-.08,.26-.19,.5-.3,.74-.11,.24-.24,.47-.37,.7-.13,.23-.27,.45-.42,.67-.15,.22-.31,.43-.49,.63,.08-.26,.19-.5,.3-.74,.11-.24,.24-.47,.37-.7,.13-.23,.27-.45,.42-.67,.15-.22,.31-.43,.49-.63Z"/><path class="cls-13" d="M195.41,103.42c-.05,.21-.12,.41-.2,.6-.08,.19-.17,.38-.27,.56-.1,.18-.21,.36-.33,.53-.12,.17-.25,.34-.42,.48,.07-.2,.14-.4,.23-.58,.08-.19,.18-.37,.28-.55,.1-.18,.21-.36,.33-.53,.12-.17,.24-.34,.39-.49Z"/></g><path class="cls-35" d="M176.4,99.47s1.7,.33,3.41,.03c1.71-.3,2.57-.9,3.37-.53,.8,.37,2.57,1.79,3.03,2.83,.46,1.03,.72,1.73,.7,2.23-.02,.51-.2,1.15-.67,1.12-.47-.04-.61-.65-.61-.65l-.17-.35s-.54,.45-.87,.73c-.33,.28-.9,.18-.9,.18,0,0-.39,.7-.68,.69-.29-.02-.62-.08-.62-.08,0,0-.14,.8-.71,.7s-1.34-.69-1.78-.87c-.44-.18-3.18,.05-4.64-1.12-1.46-1.17-1.04-4.21,1.15-4.88Z"/><path class="cls-42" d="M161.45,78.36s-2.53,10.43-.1,15.59c2.43,5.16,15.5,5.31,15.5,5.31l-1.01,7.08s-19.27,2.96-23.9-6.31c-4.05-8.1-.91-21.56-.91-21.56l10.43-.1Z"/><path class="cls-2" d="M176.84,99.35c-.54,0-13.16-.2-15.58-5.36-2.42-5.13,.07-15.55,.09-15.65l.18,.04c-.03,.1-2.49,10.45-.11,15.53,2.38,5.05,15.28,5.25,15.41,5.25v.19Z"/><path class="cls-13" d="M182.37,105.57c-.29-.19-.53-.39-.8-.56-.13-.09-.26-.17-.4-.26-.14-.09-.28-.16-.43-.25,.17-.02,.35,0,.51,.06,.17,.05,.32,.13,.47,.23,.14,.1,.27,.21,.38,.35,.11,.13,.21,.28,.26,.44Z"/><path class="cls-13" d="M183.3,104.15c.08-.07,.17-.12,.26-.17l.13-.06s.04-.02,.05-.03c.01,0,0-.02,0,.01-.01,.04,0,.06,0,.05,0,0-.01-.02-.03-.03-.03-.03-.06-.06-.09-.09-.06-.05-.14-.1-.22-.14-.33-.17-.72-.26-1.09-.41,.2,0,.4,0,.6,.03,.2,.03,.4,.07,.6,.15,.1,.04,.2,.09,.28,.16,.04,.03,.09,.07,.13,.12,.02,.02,.04,.04,.06,.08,.02,.03,.05,.11,.02,.19-.04,.07-.08,.1-.11,.11-.03,.02-.06,.02-.09,.03-.06,.01-.11,.02-.16,.02-.1,0-.2,0-.31-.02Z"/><path class="cls-13" d="M185.45,104.14c-.19-.37-.37-.71-.6-1.02-.11-.16-.23-.31-.36-.45-.13-.15-.27-.28-.42-.44,.2,.06,.39,.15,.56,.28,.17,.12,.32,.28,.44,.45,.12,.17,.22,.36,.29,.56,.07,.2,.1,.41,.09,.62Z"/><path class="cls-13" d="M182.41,103.63c.17,.02,.33,.09,.48,.17,.15,.08,.28,.19,.4,.31,.12,.12,.22,.27,.29,.43,.07,.16,.11,.33,.1,.5-.1-.14-.19-.27-.29-.39-.1-.12-.2-.24-.3-.35-.21-.23-.44-.43-.68-.67Z"/></g><g><ellipse class="cls-14" cx="304.28" cy="157.7" rx="54.84" ry="2.27"/><rect class="cls-40" x="316.78" width="25.21" height="25.21"/><rect class="cls-30" x="318.84" y="1.98" width="21.09" height="21.25"/><g><rect class="cls-40" x="328.16" y="8.56" width="2.46" height="8.09"/><rect class="cls-40" x="325.35" y="11.33" width="8.09" height="2.55"/></g><rect class="cls-40" x="320.01" y="11.34" width="1.22" height="2.54"/><g><polygon class="cls-40" points="352 145.73 350.89 158.03 311.23 158.03 310.13 145.73 311.23 133.43 350.89 133.43 352 145.73"/><polygon class="cls-17" points="352 145.73 350.89 158.03 311.23 158.03 310.13 145.73 352 145.73"/><rect class="cls-41" x="313.19" y="135.17" width="16.51" height="21.08"/><rect class="cls-41" x="332.15" y="135.99" width="1.96" height="8.23" rx=".8" ry=".8"/><rect class="cls-41" x="335.91" y="135.99" width="1.96" height="8.23" rx=".8" ry=".8"/><rect class="cls-41" x="339.67" y="135.99" width="1.96" height="8.23" rx=".8" ry=".8"/><rect class="cls-41" x="343.43" y="135.99" width="1.96" height="8.23" rx=".8" ry=".8"/><rect class="cls-41" x="347.19" y="135.99" width="1.96" height="8.23" rx=".8" ry=".8"/><path class="cls-18" d="M313.38,156.6h-7.07v-21.62h7.07v21.62Zm-6.7-.37h6.33v-20.88h-6.33v20.88Z"/></g><path class="cls-35" d="M286.29,148.68l.22,4.36s6.27-.44,6.59-1.25c.33-.82,.11-4.2,.11-4.2l-6.92,1.09Z"/><path class="cls-35" d="M271.39,146.24l.29,6.8s6.27-.44,6.59-1.25c.33-.82,.11-4.2,.11-4.2l-6.99-1.35Z"/><path class="cls-7" d="M293.52,149.01c.67-11.61,3.26-56.8,3.55-65.05,.33-9.48-13.29-2.07-13.29-2.07l2.33,67.12h7.42Z"/><path class="cls-7" d="M271.21,148.82h7.46l4.02-66.82s-13.62-7.52-13.29,1.96c.1,2.96-.48,5.87-.44,8.28,.36,18.98,1.8,47.72,2.26,56.58Z"/><path class="cls-24" d="M276.75,7.45s-.72,.66-1.41,1.77c-1.29,2.08-3.07,5.79-2.67,9.98,.19,2,.89,5.17,1.18,7.93,.16,1.55,.52,2.45-.21,4.5-2.73,7.57,5.67,8.05,6.7,6.13,0,0,.96-6.95,1.13-11.86s-4.72-18.45-4.72-18.45Z"/><path class="cls-24" d="M284.97,30.71l2.64,8.03s5.17-4.18,5.07-6.86c-.11-2.68-.32-4.69-.41-5.88-.07-.94,.72-2.1,1.11-5.2,.98-7.97-3.53-12.85-3.53-12.85,0,0-5.3,13.06-5.13,17.96,.04,1.27,.14,2.98,.26,4.82Z"/><path class="cls-35" d="M273.19,55.57h20.61c.69-4.58,1.91-8.32,1.91-8.32l.23-13.67-12.75-3.96-12.75,3.96,.23,13.67s1.69,3.41,2.53,8.32Z"/><path class="cls-35" d="M278.94,23.59c-.03,4.3-.07,9.23-.07,9.23,0,0,1.67,2.04,4.19,2.06,2.52,.02,4.39-2,4.39-2l.07-9.29h-8.58Z"/><path class="cls-13" d="M287.52,26l-.02,2.08c-.42,1.06-1.95,2.91-4.21,2.91s-3.68-1.99-4.38-2.96c0-.71,.01-1.33,.02-2.03h8.58Z"/><path class="cls-35" d="M283.29,29.44c-2.87,0-6.64-3.38-6.64-8.67l-.06-4.93c-.04-3.78,2.87-6.88,6.5-6.91h0c3.63-.03,6.59,3.01,6.63,6.79l.06,4.93c0,4.99-3.42,8.79-6.49,8.79Z"/><path class="cls-3" d="M281.93,25.06s2.12,.35,3.11-.63c0,0,.25,1.88-1.23,2.12-1.47,.25-1.88-1.5-1.88-1.5Z"/><path class="cls-24" d="M287.33,17.2c-.38-.14-.81-.19-1.21-.18-.24,0-.47,.03-.71,.08-.23,.04-.56,.1-.62,.36-.01,.05,0,.11,.04,.14,.18,.16,.42,.08,.63,.04,.18-.03,.37-.05,.56-.05,.4,0,.79,.05,1.19,.13,.17,.03,.47,.13,.54-.11,.07-.25-.25-.35-.42-.41Z"/><path class="cls-24" d="M279.06,17.2c.38-.14,.81-.19,1.21-.18,.24,0,.47,.03,.71,.08,.23,.04,.56,.1,.62,.36,.01,.05,0,.11-.04,.14-.18,.16-.42,.08-.63,.04-.18-.03-.37-.05-.56-.05-.4,0-.79,.05-1.19,.13-.17,.03-.47,.13-.54-.11-.07-.25,.25-.35,.42-.41Z"/><path class="cls-24" d="M280.72,19.56c0,.28-.23,.52-.51,.52-.28,0-.52-.23-.52-.51,0-.28,.23-.52,.51-.52,.28,0,.52,.23,.52,.51Z"/><path class="cls-24" d="M286.53,19.56c0,.28-.23,.52-.51,.52-.28,0-.52-.23-.52-.51,0-.28,.23-.52,.51-.52,.28,0,.52,.23,.52,.51Z"/><g><path class="cls-35" d="M274.7,19.9c.12,1.19,.95,2.07,1.84,1.98,1.66-.17,1.52-1.13,1.4-2.32-.12-1.19-.95-2.07-1.84-1.98-.9,.09-1.52,1.13-1.4,2.32Z"/><path class="cls-13" d="M275.29,19.19c.04-.29,.17-.64,.45-.79,.24-.12,.61,0,.65,.29,0,.06-.09,.08-.1,.02-.04-.14-.17-.21-.31-.2-.15,.02-.27,.13-.34,.25-.15,.26-.18,.59-.13,.89,.05,.3,.19,.6,.42,.8,.1,.1,.23,.17,.37,.2,.12,.02,.28,.02,.38-.05,.04-.03,.11,.01,.08,.07-.07,.12-.16,.2-.3,.22-.14,.02-.29-.02-.42-.08-.29-.14-.5-.41-.63-.69-.13-.29-.18-.62-.14-.94Z"/></g><g><path class="cls-35" d="M291.5,19.9c-.12,1.19-.95,2.07-1.84,1.98-1.66-.17-1.52-1.13-1.4-2.32,.12-1.19,.95-2.07,1.84-1.98,.9,.09,1.52,1.13,1.4,2.32Z"/><path class="cls-13" d="M290.91,19.19c-.04-.29-.17-.64-.45-.79-.24-.12-.61,0-.65,.29,0,.06,.09,.08,.1,.02,.04-.14,.17-.21,.31-.2,.15,.02,.27,.13,.34,.25,.15,.26,.18,.59,.13,.89-.05,.3-.19,.6-.42,.8-.1,.1-.23,.17-.37,.2-.12,.02-.28,.02-.38-.05-.04-.03-.11,.01-.08,.07,.07,.12,.16,.2,.3,.22,.14,.02,.29-.02,.42-.08,.29-.14,.5-.41,.63-.69,.13-.29,.18-.62,.14-.94Z"/></g><path class="cls-24" d="M289.45,19.75c-.02-.72,.15-1.79,.37-2.02,.33-.36,1.04,.19,1.04,.19,0,0,1.37-2.79,.76-5.82-.25-1.22-.86-3.46-1.78-4.17-.43-.34-1.45-.3-1.73-.78-.93-1.55-2.83-1.82-4.9-1.82-5.18,0-7.8,2.5-8.76,6-.96,3.5,.72,6.77,.72,6.77,.4-.61,1.49-.45,1.49-.45l.05,1.75s.11-.85,.53-3.08c.42-2.23,1.59-4.78,3.19-5.95,1.59-1.17,2.44,.21,2.44,.21,0,0,.41,.58,1.81,1.41,1.39,.84,3.11,5.15,4.57,5.61,.11,1.05,.21,2.13,.21,2.13Z"/><path class="cls-24" d="M286.54,9.39c.32,.11-.19,3.23-3.75,6.46-1.72,1.55-6.91,3.1-6.91,3.1,0,0-1.97,.58-1.89-1.72,.08-2.37,1.88-5.37,3.5-7.16,1.64-1.83,6.34-1.63,9.05-.68Z"/><path class="cls-26" d="M274.94,16.71c.56-.16,1.12-.34,1.67-.54,.55-.2,1.09-.41,1.63-.64,.53-.24,1.06-.48,1.57-.76,.51-.27,1.02-.56,1.5-.88,.97-.63,1.86-1.38,2.62-2.26,.37-.44,.7-.92,.99-1.42,.29-.51,.5-1.05,.69-1.61-.1,.58-.29,1.14-.53,1.69-.25,.54-.57,1.05-.93,1.52-.36,.47-.78,.9-1.22,1.3-.44,.4-.92,.75-1.42,1.08-.99,.65-2.06,1.18-3.17,1.6-1.1,.42-2.25,.74-3.41,.92Z"/><path class="cls-36" d="M283.18,23.23c-.2,.07-.37,.01-.5-.16-.11-.15-.22-.34-.26-.52-.09-.43,.18-.81,.39-1.15,.4-.65,.4-1.33,.29-2.06,0-.03-.06-.02-.06,0,0,.5,.03,1.03-.15,1.5-.16,.43-.49,.79-.59,1.24-.1,.41,.03,.79,.28,1.12,.14,.18,.55,.4,.65,.06,0-.02-.02-.05-.04-.04Z"/><path class="cls-42" d="M295.2,61.75c0,.1,2.97,9.87,2.96,16.21-.01,7.11-.5,16.88-.49,17l-8.83-.3-.03-10.73h-10.32l.09,10.38-9.82-.33s-.21-7.4-.23-13.95c-.01-6.5,2.22-18.3,2.17-18.94-.38-3.99-.88-9.43-.88-9.43,0,0-1.6,4-2.59,5.84s-3.82,4.34-6.27,4.05c-3.58-.42-.78-3.77-.78-3.77,.31-3.96,1.38-10.05,6.37-21.45,1.05-2.4,3.25-2.85,4.53-3.23,1.28-.38,6.84-1.92,6.84-1.92,0,0,.61,4.88,5.84,4.79,4.17-.08,3.43-2.57,4.71-4.76l5.64,1.6s4.83,.92,6.72,3.59c.86,1.22-4.1,12.91-4.1,12.91,0,0-1.48,8.19-1.53,12.43Z"/><path class="cls-2" d="M277.41,59.43s-.08-.03-.09-.07l-3.28-13.66,1.83-2.37-2.16-2.38,2.79-9.31c.02-.05,.07-.08,.12-.06,.05,.02,.08,.07,.06,.12l-2.76,9.21,2.2,2.42-1.87,2.42,3.26,13.58c.01,.05-.02,.1-.07,.11h-.02Z"/><path class="cls-2" d="M289.53,58.85h-.02c-.05-.01-.08-.06-.07-.11l2.85-13.37-1.32-2.23,1.56-2.3-3.25-9.27s0-.1,.06-.12c.05-.02,.1,0,.12,.06l3.28,9.36-1.55,2.28,1.3,2.19-2.87,13.44s-.05,.08-.09,.08Z"/><path class="cls-6" d="M261.31,30.18s.24-1.16,1.04-1.85c.8-.68,2.29-1.04,2.37-1.41,.08-.36-.02-.63-.36-.68-.4-.06-2.21,.32-2.37,.36-.16,.04-2.53,.92-2.57,1.69-.04,.76,1.89,1.89,1.89,1.89Z"/><rect class="cls-34" x="263.07" y="27.23" width=".93" height="3.32"/><path class="cls-34" d="M264.63,27.65h-2.19c-.12,0-.21-.09-.21-.21h0c0-.12,.09-.21,.21-.21h2.19c.12,0,.21,.09,.21,.21h0c0,.12-.09,.21-.21,.21Z"/><path class="cls-34" d="M264.32,30.97h-1.57c-.12,0-.21-.09-.21-.21h0c0-.12,.09-.21,.21-.21h1.57c.12,0,.21,.09,.21,.21h0c0,.12-.09,.21-.21,.21Z"/><path class="cls-2" d="M263.93,27.71h-.84s-.06-.03-.06-.06,.03-.06,.06-.06h.84s.06,.03,.06,.06-.03,.06-.06,.06Z"/><path class="cls-2" d="M263.93,30.58h-.84s-.06-.03-.06-.06,.03-.06,.06-.06h.84s.06,.03,.06,.06-.03,.06-.06,.06Z"/><path class="cls-33" d="M263.53,17.03s-.05-.02-.05-.05v-3.82s.02-.05,.05-.05,.05,.02,.05,.05v3.82s-.02,.05-.05,.05Z"/><path class="cls-36" d="M263.99,19.37h-.91s-.08-.03-.08-.08h0s.03-.08,.08-.08h.91s.08,.03,.08,.08h0s-.03,.08-.08,.08Z"/><polygon class="cls-36" points="263.88 19.23 263.19 19.23 263.28 17.32 263.78 17.32 263.88 19.23"/><path class="cls-36" d="M263.67,17.45h-.27v-.34c0-.08,.06-.14,.14-.14h0c.08,0,.14,.06,.14,.14v.34Z"/><rect class="cls-36" x="263.19" y="19.29" width=".68" height=".45"/><path class="cls-34" d="M264.17,19.76v7.63h-1.28v-7.63c0-.08,.07-.15,.15-.15h.97c.08,0,.15,.07,.15,.15Z"/><rect class="cls-25" x="262.9" y="22.93" width="1.28" height="4.31"/><rect class="cls-36" x="262.9" y="22.83" width="1.28" height=".28"/><path class="cls-12" d="M260.02,28.61s-.03,0-.05-.02c0,0-.74-.57-1.16-.6-.04,0-.08-.04-.08-.08,0-.04,.04-.08,.08-.08,.47,.02,1.21,.6,1.25,.63,.03,.03,.04,.08,.01,.11-.02,.02-.04,.03-.06,.03Z"/><path class="cls-35" d="M259.26,34.81l.74,3.7s-4.37,1.88-4.99,.82l.6-5.65,3.66,1.14Z"/><path class="cls-6" d="M255.52,34.05l-.33,2.73s1.16,.06,2.29-.09c1.13-.16,2.17-.31,2.17-.31l-.41-1.95-3.72-.38Z"/><path class="cls-6" d="M255.57,34.43s-.4-1.69-.2-2.69c.2-1,.52-1.41,.52-1.41,0,0-.08-.52,.24-.76,.32-.24,.72-.56,.72-.56,0,0,0-.64,.24-.92,.24-.28,.8-.48,.8-.48,0,0,.92-.92,1.85-1.16,.92-.24,2.7-.43,3.57-.2,.67,.17,.73,.65,.17,.85-.27,.1-1.16,.08-1.88,.29-.77,.23-1.23,.8-1.49,1.02,0,0,.16,0,.68,.48,.52,.48,.72,1.65,.8,1.81,.25,.5,2.21-.04,2.53,.4,.32,.44,.24,.8-.6,1.04-.84,.24-2.29,.36-2.81,.96-.52,.6-1.45,1.16-1.45,1.61s-2.61,1.61-3.69-.28Z"/><path class="cls-15" d="M259.47,33.42c-.07,0-.14-.01-.2-.04-.26-.11-.18-.38-.11-.61,.06-.19,.11-.39,.03-.55-.2-.41-.55-.88-.85-.88-.35,0-1.43,.12-1.44,.12-.04,0-.08-.03-.09-.07s.03-.08,.07-.09c.04,0,1.09-.12,1.45-.12,.47,0,.88,.74,.99,.97s.04,.46-.02,.67c-.07,.26-.09,.37,.02,.42,.13,.06,.35,.02,.55-.11,.29-.19,.46-.49,.46-.82,0-.69-.7-1.92-.71-1.93-.26-.33-1.03-.68-1.04-.69-.04-.02-.06-.07-.04-.11,.02-.04,.07-.06,.11-.04,.03,.01,.81,.37,1.1,.74,.04,.06,.74,1.28,.74,2.02,0,.38-.2,.73-.53,.95-.17,.11-.34,.17-.5,.17Z"/><path class="cls-15" d="M260.87,32.29c-.24,0-.41-.13-.41-.13-.04-.03-.04-.08-.02-.11,.03-.04,.08-.04,.11-.02,.01,.01,.37,.26,.71-.09,.37-.37,.26-1.33,.22-1.44-.28-.82-1.05-1.5-1.38-1.79-.06-.06-.11-.1-.14-.13l-.05-.05,.04-.06s.68-.9,1.45-1.16c.46-.15,.93-.19,1.36-.22,.28-.02,.52-.04,.7-.09,.21-.06,.25-.2,.25-.29,0-.13-.06-.27-.17-.31-.04-.02-.06-.06-.04-.1s.06-.06,.1-.04c.16,.07,.28,.26,.26,.47-.01,.21-.15,.37-.37,.43-.19,.05-.44,.07-.73,.09-.41,.03-.88,.07-1.32,.21-.61,.2-1.17,.85-1.33,1.05,.02,.02,.05,.05,.08,.07,.34,.3,1.13,1,1.43,1.86,.05,.14,.17,1.18-.26,1.61-.18,.18-.36,.23-.51,.23Z"/><path class="cls-42" d="M254.25,38.95s4.37-.15,6.13-1.32c0,0,2.14,11.77,2.87,17.48,.42,3.26-.04,5.56-1.27,6.17-.93,.46-2.1,.57-4.05-1.13-4.54-3.96-3.68-21.2-3.68-21.2Z"/><polygon class="cls-25" points="288.8 83.94 288.46 31.22 287.61 30.84 283.28 35.18 279.04 30.65 277.9 31.19 278.48 83.94 288.8 83.94"/><path class="cls-44" d="M280.71,37.21l-2.69-3.94s-.02-.09,.02-.11c.04-.02,.09-.02,.11,.02l2.59,3.8,2.48-1.87s.08-.02,.11,.02c.03,.04,.02,.08-.02,.11l-2.61,1.97Z"/><path class="cls-44" d="M285.58,37.33l-2.36-2.1s-.04-.08,0-.11c.03-.03,.08-.04,.11,0l2.23,1.98,2.77-3.72s.08-.04,.11-.02c.04,.03,.04,.08,.02,.11l-2.87,3.86Z"/><path class="cls-36" d="M273,38.54c-.08,0-.15-.06-.16-.14,0-.05-.5-4.61,2.74-6.8,.07-.05,.17-.03,.22,.04,.05,.07,.03,.17-.04,.22-3.08,2.09-2.61,6.46-2.61,6.5,.01,.09-.05,.17-.14,.18h-.02Z"/><g><circle class="cls-6" cx="273.27" cy="39.98" r="1.98" transform="translate(171.57 296.76) rotate(-76.72)"/><path class="cls-36" d="M274.18,39.98c0,.5-.41,.91-.91,.91s-.91-.41-.91-.91,.41-.91,.91-.91,.91,.41,.91,.91Z"/></g><path class="cls-37" d="M291.73,51.28s-.04,0-.07-.02c-3.24-1.62-2.3-7.38-2.26-7.63,.01-.08,.09-.14,.17-.12,.08,.01,.14,.09,.12,.17,0,.06-.94,5.79,2.1,7.31,.07,.04,.1,.13,.07,.2-.03,.05-.08,.08-.13,.08Z"/><path class="cls-37" d="M288.84,51.2c-.08,0-.14-.06-.15-.14,0-.08,.05-.15,.14-.16,3.48-.27,4.8-6.23,4.81-6.29,.02-.08,.1-.13,.18-.11,.08,.02,.13,.1,.11,.18-.05,.25-1.39,6.24-5.08,6.52h-.01Z"/><path class="cls-36" d="M293.78,44.91s-.06,0-.09-.02c-.14-.05-.21-.2-.16-.34,.01-.03,1.05-2.96,.18-4.27-.26-.38-.65-.58-1.21-.61-.66-.03-1.18,.16-1.61,.58-1.14,1.13-1.09,3.51-1.08,3.53,0,.15-.11,.27-.26,.27-.14,0-.27-.11-.27-.26,0-.11-.07-2.63,1.24-3.93,.53-.52,1.2-.77,2-.73,.73,.03,1.28,.32,1.63,.84,1.02,1.53-.07,4.61-.12,4.74-.04,.11-.14,.18-.25,.18Z"/><path class="cls-36" d="M292.51,39.63h0c-.12,0-.21-.1-.21-.22,0-.05,.06-5.04-2.3-7.77-.08-.09-.07-.22,.02-.3,.09-.08,.22-.07,.3,.02,2.47,2.86,2.41,7.85,2.41,8.06,0,.12-.1,.21-.21,.21Z"/><circle class="cls-36" cx="288.74" cy="51.01" r=".49"/><path class="cls-7" d="M286.14,150.53s.29-.2,.31,.05c.05,.52,.03,1.47,1.72,1.47,.77,0,1.12-.77,1.85-.99,1.66-.5,3.14-.39,3.63-.39,.7,0,.34,1.77,2.29,2.61,1.95,.84,2.15,1.13,2.98,2.52s0,2.23,0,2.23h-12.82c-.61,0-1.11-.49-1.12-1.11,0-1.86-.18-4.96,1.15-6.39Z"/><path class="cls-7" d="M278.69,150.53s-.29-.2-.31,.05c-.05,.52-.03,1.47-1.72,1.47-.77,0-1.12-.77-1.85-.99-1.66-.5-3.14-.39-3.63-.39-.7,0-.34,1.77-2.29,2.61s-2.15,1.13-2.98,2.52c-.84,1.39,0,2.23,0,2.23h12.82c.61,0,1.11-.49,1.12-1.11,0-1.86,.18-4.96-1.15-6.39Z"/><g><path class="cls-29" d="M282.91,53.93s-2.06,2.35-2.06,8.08,.88,8.08,.88,8.08c0,0-2.2,1.32-2.5,3.6-.29,2.28,1.1,5.87,1.1,5.87,0,0-3.52-2.5-4.99-1.62-1.47,.88,.07,3.08,2.42,3.74s3.96,.88,5.07,.59c1.1-.29,2.64-4.7,2.64-4.7,0,0,1.54,.07,2.13,.07s1.03,2.57,1.03,2.57c0,0-1.39-.29-1.03,1.03s.88,3.08,2.94,2.06c2.06-1.03,2.86-3.08,4.04-7.41s1.17-9.84,1.17-12.55-1.91-8.15-4.04-9.62c-2.13-1.47-8.81,.22-8.81,.22Z"/><path class="cls-29" d="M286.06,48.2s-2.35-2.13-3.08-1.5c-.73,.62,.26,3.49,.26,3.49,0,0,3.19-.99,2.83-1.98Z"/><path class="cls-27" d="M283.59,49.31s-.53-1.98-.23-2.17c.3-.19,1.66,.86,2.02,1.35,0,0-1.49,.52-1.79,.82Z"/><path class="cls-29" d="M289.15,48.57s3.05-2.02,3.45-1.39c.4,.62-.92,3.38-.92,3.38,0,0-2.13-1.1-2.53-1.98Z"/><path class="cls-27" d="M290.01,48.61s1.05,.74,1.39,1.14c0,0,.96-1.79,.67-2-.35-.25-2.06,.86-2.06,.86Z"/><path class="cls-29" d="M287.64,48.09c-1.98-.06-5.18,.51-5.47,3.93-.29,3.41,2.09,4.66,5.58,4.7,3.49,.04,4.59-1.58,4.77-3.74,.18-2.17-1.28-4.77-4.88-4.88Z"/><path class="cls-27" d="M282.17,52.02c-.02,.64,.01,1.28,.21,1.88,.19,.6,.55,1.14,1.04,1.54,.48,.4,1.06,.67,1.67,.84,.61,.18,1.23,.27,1.87,.31,.16,.02,.32,.02,.47,.03,.16,0,.32,.02,.48,0h.47l.47-.05c.63-.07,1.25-.22,1.81-.5,.56-.28,1.02-.74,1.33-1.29,.3-.56,.45-1.19,.53-1.82-.04,.64-.17,1.28-.45,1.86-.3,.57-.77,1.07-1.34,1.37-.57,.31-1.22,.46-1.86,.54l-.48,.04h-.48c-.16,.02-.32,.01-.48,0-.16,0-.32,0-.48-.02-.64-.04-1.28-.15-1.9-.33-.62-.19-1.22-.46-1.71-.9-.49-.42-.86-1-1.03-1.62-.17-.62-.19-1.27-.13-1.91Z"/><path class="cls-27" d="M287.16,54.03c.08-.04,1.17-.24,1.3,.05,.12,.29-.54,.66-.76,.64-.22-.02-.73-.59-.54-.69Z"/><path class="cls-27" d="M287.75,55.44c-.07,0-.14-.06-.14-.13l-.02-.76c0-.08,.06-.14,.13-.14,.07,0,.14,.06,.14,.13l.02,.76c0,.08-.06,.14-.13,.14h0Z"/><path class="cls-27" d="M286.68,55.96c-.36,0-.66-.14-.67-.15-.07-.03-.1-.11-.06-.18,.03-.07,.12-.1,.18-.07,0,0,.51,.24,.91,.05,.27-.13,.6-.42,.6-.42l.12-.11,.09,.14s.37,.54,1.46,.45c.08,0,.14,.05,.15,.13,0,.08-.05,.14-.13,.15-.95,.08-1.43-.27-1.62-.46-.13,.1-.35,.27-.56,.37-.16,.07-.32,.1-.47,.1Z"/><path class="cls-27" d="M290.15,52.3c0,.32-.19,.57-.43,.57s-.43-.26-.43-.57,.19-.57,.43-.57,.43,.26,.43,.57Z"/><path class="cls-27" d="M286.23,52.3c0,.32-.19,.57-.43,.57s-.43-.26-.43-.57,.19-.57,.43-.57,.43,.26,.43,.57Z"/><path class="cls-1" d="M288.04,77.96c-.14-.24-.25-.49-.35-.74-.1-.25-.17-.52-.24-.78-.06-.27-.11-.54-.13-.81-.02-.27-.02-.56,.06-.82,.03,.27,.09,.53,.15,.79,.06,.26,.12,.52,.19,.78,.12,.52,.25,1.04,.32,1.59Z"/><path class="cls-1" d="M285.91,76.17c.02,.13,.01,.26,0,.38-.02,.12-.04,.24-.08,.36-.04,.12-.08,.23-.14,.34-.06,.11-.12,.22-.21,.32-.02-.13-.01-.26,0-.38,.02-.12,.04-.24,.08-.36,.04-.12,.08-.23,.14-.34,.06-.11,.12-.22,.21-.32Z"/></g><path class="cls-6" d="M285.64,59s-6.32-.76-7.63,.76c-1.31,1.53-.54,5.99,1.85,6.76,2.4,.76,6.21-.54,6.21-.54l-.44-6.97Z"/><path class="cls-42" d="M300.82,36.41s9.97,25.53,4.74,29.24c-5.23,3.7-20.27,1.09-20.27,1.09l.2-7.72c0-.31,.26-.55,.57-.54,2.31,.07,11.12,.29,11.36-.55,.5-1.69-1.7-13.41-1.7-13.41l5.09-8.11Z"/><path class="cls-2" d="M295.9,46.74c.23,.59,.41,1.2,.56,1.82,.15,.62,.27,1.24,.31,1.88-.08-.31-.17-.61-.25-.92-.08-.31-.16-.61-.23-.92-.15-.62-.29-1.23-.38-1.86Z"/><path class="cls-29" d="M291.16,58.99s-.7,1.32-.77,2.13c-.07,.81-.73,1.14-.73,1.14,0,0-.07,.73-1.1,.73s-1.5-.92-1.62-1.87c-.11-.95,.51-2.64,.92-3.08s3.3-1.8,3.3,.95Z"/><path class="cls-29" d="M282.24,58.99s-.7,1.32-.77,2.13c-.07,.81-.73,1.14-.73,1.14,0,0-.07,.73-1.1,.73s-1.51-.92-1.62-1.87c-.11-.95,.51-2.64,.92-3.08,.4-.44,3.3-1.8,3.3,.95Z"/><path class="cls-1" d="M279.64,62.99c-.19,.03-.39,.01-.59-.05-.19-.06-.37-.17-.52-.32-.3-.29-.47-.67-.57-1.06-.04-.2-.08-.39-.08-.6,0-.2,.02-.4,.06-.59,.08-.39,.21-.76,.38-1.1-.07,.38-.14,.76-.17,1.13-.04,.38-.02,.73,.08,1.1,.08,.36,.23,.7,.45,.98,.23,.28,.57,.45,.95,.51Z"/><path class="cls-1" d="M282.24,58.99l-.31,.87c-.1,.29-.19,.58-.26,.87-.03,.15-.06,.28-.07,.43-.01,.17-.06,.33-.13,.48-.14,.31-.38,.56-.68,.72l.06-.09c-.03,.15-.09,.27-.17,.38-.08,.11-.19,.19-.31,.25-.12,.06-.24,.09-.37,.1-.06,0-.12,0-.19,0h-.18l.18-.05c.06-.02,.12-.03,.17-.05,.11-.04,.22-.08,.31-.15,.09-.06,.17-.14,.22-.23,.06-.09,.1-.2,.1-.29,0-.04,.02-.07,.05-.08h.01c.23-.15,.43-.38,.54-.63,.05-.13,.09-.26,.11-.4,.02-.15,.05-.32,.09-.47,.09-.3,.21-.59,.35-.87,.14-.28,.29-.55,.47-.8Z"/><path class="cls-1" d="M282.18,58.81c-.07,0-.13-.05-.14-.12-.11-.74-.7-1.08-.71-1.09-.07-.04-.09-.12-.05-.19,.04-.07,.12-.09,.19-.05,.03,.02,.71,.41,.85,1.28,.01,.08-.04,.15-.12,.16h-.02Z"/><path class="cls-1" d="M291.17,58.83s-.02,0-.03,0c-.07-.02-.12-.09-.11-.16,0,0,.08-.41-.17-.75-.19-.26-.52-.43-.98-.49-1.39-.19-2.08,1.1-2.11,1.15-.03,.07-.12,.09-.19,.06-.07-.03-.09-.12-.06-.19,0-.02,.8-1.52,2.39-1.3,.54,.07,.94,.28,1.17,.61,.32,.44,.22,.95,.21,.97-.01,.07-.07,.11-.13,.11Z"/><path class="cls-2" d="M297.49,58.04c.71,.15,1.4,.37,2.08,.65,.67,.28,1.32,.61,1.94,1,.61,.4,1.19,.85,1.69,1.39,.25,.27,.48,.56,.67,.86,.19,.31,.36,.64,.48,.98-.35-.64-.8-1.2-1.31-1.69-.52-.49-1.08-.93-1.69-1.31-.6-.39-1.23-.73-1.88-1.04-.65-.31-1.31-.6-1.99-.84Z"/><path class="cls-2" d="M262.16,47.92c.33,1.02,.58,2.07,.76,3.13,.18,1.06,.31,2.13,.33,3.21-.12-.53-.22-1.05-.31-1.58l-.28-1.58-.27-1.58c-.08-.53-.17-1.06-.23-1.59Z"/><rect class="cls-40" x="263.56" y="86.74" width="38.59" height="14.43"/><polygon class="cls-30" points="261.6 87.33 261.6 158.03 264.12 158.03 265.92 87.33 261.6 87.33"/><polygon class="cls-30" points="304.41 87.33 304.41 158.03 301.89 158.03 300.09 87.33 304.41 87.33"/><rect class="cls-40" x="258.5" y="82.89" width="49.74" height="5.11"/><rect class="cls-23" x="265.93" y="87.92" width="34.1" height=".4"/></g><g><rect class="cls-7" x="80.09" y="7.58" width="3" height="3.33" rx="1.23" ry="1.23"/><rect class="cls-40" x="78.34" y="9.8" width="6.5" height="13.9" rx=".87" ry=".87"/><rect class="cls-30" x="78.34" y="12.18" width="3.79" height="8.86"/><g><rect class="cls-40" x="57.3" y="14.67" width="7.04" height="8.97"/><rect class="cls-3" x="59.08" y="16.38" width="3.49" height=".85"/><rect class="cls-3" x="59.08" y="19.58" width="3.49" height="2.94"/></g><g><rect class="cls-40" x="67.8" y="14.67" width="7.04" height="8.97"/><rect class="cls-3" x="69.58" y="16.38" width="3.49" height=".85"/><rect class="cls-3" x="69.58" y="19.58" width="3.49" height="2.94"/></g><rect class="cls-20" x="53.12" y="23.6" width="37.27" height="4.31"/><ellipse class="cls-14" cx="49.64" cy="157.9" rx="49.64" ry="2.07"/><path class="cls-35" d="M15.73,17.19l-.12,15.81s1.71,2.09,4.28,2.11c2.57,.02,4.49-2.04,4.49-2.04l.07-9.95-8.72-5.93Z"/><path class="cls-35" d="M22.19,148.07s-.59,4.57-.15,4.71c.44,.15,1.91,1.77,4.42,1.47,2.5-.29,3.77-2.22,3.77-2.22l.44-6.97s-8.33,1.09-8.48,3.01Z"/><path class="cls-40" d="M22.01,149.69s1.42,.96,4.08,.96,3.54-.89,4.28-.89,3.54,2.95,5.61,3.84,4.09,.44,4.97,1.92c.89,1.48,0,2.36,0,2.36H22c-.65,0-1.18-.52-1.18-1.18,0-1.97-.22-5.5,1.19-7.02Z"/><path class="cls-35" d="M5.98,148.07s-.53,4.57-.13,4.71c.4,.15,1.72,1.77,3.97,1.47,2.25-.29,3.58-1.47,3.58-1.47l.53-6.92s-7.81,.29-7.95,2.21Z"/><path class="cls-40" d="M5.53,149.94s.3-.21,.33,.05c.05,.55,.03,1.55,1.83,1.55,.81,0,1.19-.82,1.96-1.05,1.76-.52,3.33-.41,3.84-.41,.74,0,.36,1.88,2.42,2.76s2.27,1.19,3.16,2.67,0,2.36,0,2.36H5.49c-.65,0-1.18-.52-1.18-1.18,0-1.97-.19-5.26,1.22-6.77Z"/><path class="cls-7" d="M31.12,73.61s1.77,29.61,1.77,41.54-1.57,33.07-1.57,33.07c-.02,.27-9.66,.27-9.64,0l-.72-71.52,10.16-3.09Z"/><path class="cls-7" d="M20.96,74.49c1.81,11.34-6.63,74.24-6.63,74.24H5.2l3.39-78.21s10.56-7.37,12.37,3.98Z"/><path class="cls-7" d="M32.62,91.16l-1.73-28.85-21.75-.53s-2.07,13.41-3.6,29.38h27.08Z"/><polygon class="cls-43" points="15.22 71.62 28.32 71.62 27.29 32.09 21.43 32.93 14.36 31.88 15.22 71.62"/><path class="cls-43" d="M15.68,28.08s1.79,1.44,5.81,4.43c0,0,3.04-1.33,2.92-4.2l1.61,1.38s.26,4.3-.84,5.95c-1.11-1.54-3.69-2.52-3.69-2.52,0,0-2.54,1.39-3.69,2.89,0,0-3.43-5.16-3.56-5.98-.38-2.31,1.44-1.95,1.44-1.95Z"/><path class="cls-23" d="M17.8,36.21h0c-.06,0-.12-.04-.16-.09-.35-.53-3.46-5.22-3.59-6.06l.39-.06c.09,.55,2.02,3.61,3.38,5.68,1.22-1.42,3.47-2.67,3.57-2.73,.05-.03,.11-.03,.17-.01,.1,.04,2.39,.92,3.59,2.35,.89-1.73,.67-5.55,.67-5.59l.4-.02c.01,.18,.25,4.38-.88,6.08-.04,.05-.1,.09-.16,.09-.07,0-.13-.03-.16-.08-.95-1.31-3.06-2.23-3.51-2.42-.44,.25-2.55,1.49-3.54,2.79-.04,.05-.1,.08-.16,.08Z"/><path class="cls-42" d="M30.56,29.81l13.43,10.44,10.21,1.77,7.16,3.44s-2.41,1.36-8.98,6.26c-4.94,3.69-22.79-8.34-22.79-8.34l.96-13.57Z"/><path class="cls-42" d="M27.09,109.97l7.52-.2c-.3-8.89-1.54-39.68-2.13-50.26-.29-5.27-.45-10.84-.68-14.55-.74-11.97-1.24-15.15-1.24-15.15l-5.57-1.03s.98,17.14,1.94,39.25c.33,7.6,.31,34.7,.17,41.94Z"/><path class="cls-2" d="M25.28,28.86l.85,1.88,.84,1.88,1.66,3.78,.02,.05-.03,.05-1.54,2.7-.02-.15,1.97,2.01,.05,.05v.06l-.41,3.34c-.14,1.11-.26,2.22-.41,3.33l-.43,3.33c-.15,1.11-.29,2.22-.45,3.33,.1-1.12,.21-2.23,.32-3.34l.35-3.34c.11-1.11,.24-2.23,.37-3.34l.38-3.34,.04,.11-1.95-2.02-.07-.07,.05-.08,1.56-2.69v.1l-1.59-3.81-.78-1.91-.77-1.91Z"/><path class="cls-42" d="M5.59,63.99c-.71,6.42-1.92,31.19-2.64,46.15H19.25c-.08-16.69-.15-44.47-.15-49.05,0-21.72-4.28-32.95-4.28-32.95-3.39,1.15-11.12,4.52-11.12,4.52,0,0,3.47,17.07,1.89,31.32Z"/><path class="cls-2" d="M13.72,28.85l-.39,2.95-.41,2.95-.02-.08,1.12,1.3,1.11,1.3,.07,.08-.07,.08-1.46,1.72,.03-.12c.41,1.27,.81,2.54,1.21,3.82l1.19,3.82,1.16,3.83c.38,1.28,.76,2.56,1.13,3.84-.43-1.26-.86-2.53-1.28-3.8l-1.25-3.81-1.22-3.82c-.41-1.27-.81-2.55-1.2-3.82l-.02-.07,.05-.05,1.48-1.71v.16l-1.1-1.31-1.09-1.32-.03-.03v-.04l.49-2.94,.51-2.93Z"/><path class="cls-8" d="M4.92,80.47c.6-.02,1.2-.03,1.8-.04,.6-.01,1.2-.03,1.8-.03l1.8-.02h1.8l.13-.02v.13c.09,1.4,.09,2.81,0,4.21-.04,.7-.12,1.4-.23,2.1-.11,.7-.26,1.39-.49,2.06-.11,.34-.25,.67-.43,.98-.17,.32-.39,.62-.66,.86-.53,.5-1.21,.8-1.9,.97-.69,.17-1.4,.2-2.1,.17-.7-.04-1.4-.13-2.08-.31,1.37,.25,2.8,.3,4.13-.04,.66-.18,1.3-.49,1.77-.96,.48-.47,.76-1.11,.98-1.76,.41-1.31,.58-2.7,.68-4.09,.05-.69,.07-1.39,.08-2.09,0-.7,0-1.39-.03-2.09l.13,.13-1.8-.03-1.8-.03c-.6,0-1.2-.03-1.8-.05-.6-.02-1.2-.03-1.8-.06Z"/><path class="cls-8" d="M33.15,80.47c-.23,.02-.46,.03-.69,.05-.23,.01-.46,.03-.69,.04-.46,.02-.92,.04-1.39,.06l.11-.11c-.05,1.01-.05,2.03-.02,3.05,.04,1.01,.11,2.03,.25,3.03,.15,1,.35,2,.77,2.91,.1,.23,.23,.44,.36,.65,.14,.2,.3,.39,.49,.56,.19,.16,.39,.31,.61,.44,.22,.13,.45,.24,.68,.34-.25-.06-.49-.15-.73-.26-.24-.11-.46-.24-.66-.41-.41-.32-.74-.76-.96-1.23-.44-.94-.66-1.96-.82-2.97-.15-1.02-.22-2.04-.25-3.06-.03-1.02-.01-2.04,.05-3.07v-.11h.11c.46,0,.93,.02,1.39,.03,.23,0,.46,.01,.69,.02,.23,0,.46,.02,.69,.03Z"/><path class="cls-35" d="M63.67,47.44s-3.9-1.99-4.38-.56c-.33,.99,2.82,2.28,3.83,2.5,3.14,.69,3.7-1.74,3.62-2.3-.03-.23-3.07,.36-3.07,.36Z"/><g><path class="cls-25" d="M50.25,62.76s-4.69,.47-4.49,4.98c.2,4.52,2.95,5.7,4.52,3.93,1.57-1.77-1.37-3.54,.39-4.71,1.77-1.18,7.27-1.18,7.27-1.18,0,0-1.23-5.06-7.69-3.02Z"/><path class="cls-25" d="M93.86,78.73c-1.16,1.32-2.42,1.66-2.42,1.66,0,0-.12-.11-1.36,1.13-1.24,1.24-2.74,.21-2.74,.21,0,0-.93,1.55-3.34,1.42-2.94-.17-3.66-.08-3.66-.08-.19,.23-1.51,.08-2.42,.08h-17.02s-.16-1.05,.25-2.21c.41-1.16,2.64-1.41,2.64-1.41,0,0-1.07-1.16-1.49-2.73-.41-1.57-.33-3.88-.33-3.88l-1.9-2.48s-.66,6.03-1.16,8.18c-.5,2.15-1.74,4.38-4.21,4.38h-4.05s-.74-.5-.25-1.98c.5-1.49,2.73-1.32,2.73-1.32,0,0,1.32-2.89,1.49-6.61,.17-3.72-2.07-8.51-2.07-8.51,0,0-1.41-1.08-2.31-1.82-.91-.74-1.16-2.31-1.16-2.31,0,0-.66,.99-.83,.33-.17-.66-.33-2.64-.33-2.64l-.91,.25c-.41-.91-.33-2.4,.41-3.88,.74-1.49,.08-6.28-.33-8.84-.41-2.56-3.06-3.06-5.12-5.29-1.04-1.12-1.49-2.72-1.5-4.06,0-1.32,.43-2.39,1.17-2.47,.73-.08,1.42,.16,2.18,.39,.78,.24,1.64,.48,2.69,.35,2.07-.25,3.15-2.71,6.69-2.48,8.14,.54,8.35,8.51,9.09,12.1,.74,3.59,2.91,5.2,10.91,12.02,10.45,8.91,9.17,22.14,9.17,22.14,6.94,1.04,10.34-4.15,10.79-4.32,.93-.35,1.84,3.36,.68,4.68Z"/><path class="cls-22" d="M50.38,62.74c.37,.08,.71,.26,1.02,.48,.31,.22,.58,.49,.82,.78,.24,.29,.44,.61,.6,.95,.09,.17,.15,.34,.22,.52,.06,.18,.11,.36,.15,.54-.11-.15-.21-.31-.31-.46-.11-.15-.2-.31-.3-.45-.2-.3-.42-.59-.64-.86-.23-.27-.46-.54-.72-.79-.26-.25-.53-.49-.83-.7Z"/><path class="cls-22" d="M67.81,67.03c-.72,.19-1.4,.47-2.05,.81-.64,.34-1.24,.76-1.76,1.26-.52,.5-.95,1.08-1.29,1.72-.33,.65-.56,1.34-.73,2.07,.01-.74,.17-1.49,.47-2.19,.15-.35,.34-.68,.55-1,.22-.31,.47-.6,.74-.87,.55-.52,1.2-.95,1.89-1.25,.69-.3,1.43-.5,2.17-.55Z"/><path class="cls-22" d="M60.19,70.16c-.01-.28,.02-.55,.08-.82,.06-.27,.13-.53,.24-.79,.1-.26,.23-.5,.39-.73,.16-.23,.35-.45,.58-.6-.12,.25-.23,.49-.33,.73-.1,.24-.2,.49-.3,.73-.2,.49-.39,.99-.66,1.48Z"/><path class="cls-22" d="M64.04,79.45c.23,.1,.44,.2,.65,.29,.21,.1,.42,.19,.63,.27,.21,.09,.42,.17,.63,.25,.21,.08,.43,.15,.66,.24-.24,.06-.49,.07-.73,.04-.24-.03-.48-.09-.71-.19-.23-.09-.44-.22-.63-.37-.19-.15-.37-.32-.5-.54Z"/><path class="cls-16" d="M55.5,37.02s-.74,8.92-.12,10.78c.62,1.86,5.7-1.36,7.06-4.59,1.36-3.22-1.36-7.56-3.97-7.93-2.6-.37-2.97,1.74-2.97,1.74Z"/><path class="cls-7" d="M50.66,36.18c0,.46-.25,.84-.56,.84s-.56-.37-.56-.84,.25-.84,.56-.84,.56,.37,.56,.84Z"/><path class="cls-7" d="M42.61,35.97c-.91,.44-1.64,.44-2.12,.34,0-1.32,.43-2.39,1.17-2.47,.73-.08,1.42,.16,2.18,.39,.09,.48,0,1.14-1.23,1.74Z"/><path class="cls-4" d="M44.06,40.24c-1.41,0-2.5-.52-2.57-.55l.12-.25s2.26,1.07,4.41,.12l.11,.25c-.71,.32-1.43,.43-2.07,.43Z"/></g><path class="cls-11" d="M35.05,65.08c-2.07,0-3.94-.69-5.56-2.07-3.28-2.79-5.55-8.26-6.76-16.28-.9-5.95-.84-11.15-.84-11.2,0-.14,.12-.25,.25-.25h0c.14,0,.25,.12,.25,.26,0,.21-.18,20.62,7.43,27.09,1.95,1.66,4.28,2.26,6.92,1.8,5.85-1.03,6.24-9.97,6.24-10.06,0-.14,.13-.25,.26-.25,.14,0,.25,.12,.25,.26,0,.09-.41,9.44-6.66,10.55-.61,.11-1.2,.16-1.78,.16Z"/><polygon class="cls-35" points="30.81 55.94 37.47 55.79 39.5 60.25 29.65 62.63 30.81 55.94"/><path class="cls-9" d="M32.68,64.81c-1.91,.38-13.62,2.02-20.05,1.53-4.36-.33-5.65-5.11-6.66-8.12,.04-1.1,0-1.72,.03-2.94l13.06,2.78,7.48,1.51,5.48,1.11,.56,.77c.06,1.11,.03,2.02,.1,3.37Z"/><path class="cls-42" d="M3.37,48.68c4.08,10.36,4.36,15.27,9.09,16.29,8.17,1.76,24.1-1.72,24.1-1.72l-.34-7.64s-17.35-.43-18.59-.89c-.49-.18-3.23-8.07-5.83-15.79-1.75-5.22-7.05-6.99-8.1-6.27C-.11,35.28-.02,40.05,3.37,48.68Z"/><path class="cls-8" d="M36.22,55.7h0c-.71-.02-17.3-.4-18.54-.85-.55-.2-3.3-7.54-4.98-13.31-.01-.05,.01-.1,.06-.11,.05-.01,.1,.01,.11,.06,1.82,6.23,4.44,12.96,4.87,13.19,1.22,.44,18.31,.84,18.48,.84,.05,0,.09,.04,.09,.09,0,.05-.04,.09-.09,.09Z"/><path class="cls-3" d="M49.17,53.16c.56,1.22,.66,2.37,.24,2.57-.43,.19-1.23-.64-1.78-1.86-.56-1.22-.66-2.37-.24-2.57,.43-.19,1.23,.64,1.78,1.86Z"/><g><path class="cls-35" d="M37.47,55.79s1.55-.64,2.78-1.79c1.23-1.16,1.6-2.1,2.45-2.23,.84-.13,3.04,.09,3.96,.68s1.5,1.02,1.75,1.44c.25,.42,.45,1.04,.05,1.26s-.84-.2-.84-.2l-.33-.19s-.2,.65-.32,1.05c-.12,.4-.64,.62-.64,.62,0,0,.06,.78-.19,.92s-.55,.26-.55,.26c0,0,.31,.72-.2,.94-.51,.22-1.45,.16-1.91,.24-.45,.09-2.55,1.74-4.36,1.56-1.81-.18-3.08-2.86-1.67-4.57Z"/><path class="cls-13" d="M47.3,54.89c-.06,0-.12-.05-.14-.11-.04-.18-.18-.67-.43-.78-.29-.13-1.73-.42-2.25-.52-.07-.01-.12-.09-.11-.16,.01-.07,.09-.12,.16-.11,.08,.01,1.94,.37,2.32,.54,.42,.19,.57,.9,.59,.98,.01,.07-.03,.15-.11,.16,0,0-.02,0-.03,0Z"/><path class="cls-13" d="M45.84,56.05s-.07-.01-.1-.04c-.05-.05-.05-.14,0-.2l.25-.25c-.3-.02-.71,.05-.88,.09-.07,.02-.15-.03-.16-.1-.02-.07,.03-.15,.1-.16,.09-.02,.9-.19,1.27-.03l.18,.08-.56,.57s-.06,.04-.1,.04Z"/><path class="cls-13" d="M46.34,56.57s-.08-.02-.11-.05c-.08-.09-.81-.59-1.48-1.02-.06-.04-.08-.13-.04-.19,.04-.06,.13-.08,.19-.04,.33,.21,1.42,.91,1.55,1.08,.05,.06,.04,.15-.03,.19-.03,.02-.05,.03-.08,.03Z"/><path class="cls-13" d="M45.6,57.75s-.06-.01-.09-.03l-.97-.83c-.06-.05-.07-.14-.02-.19,.05-.06,.14-.07,.19-.02l.97,.83c.06,.05,.07,.14,.02,.19-.03,.03-.07,.05-.11,.05Z"/></g><rect class="cls-8" x="31.63" y="39.47" width=".18" height="5.72" transform="translate(-1.24 .96) rotate(-1.7)"/><path class="cls-3" d="M24.75,32.54s-.05,0-.08-.02c-.1-.04-.14-.16-.1-.25,.95-2.12,.82-7.6,.81-7.65,0-.11,.08-.19,.19-.2,.11,0,.19,.08,.2,.19,0,.23,.14,5.62-.85,7.82-.03,.07-.1,.11-.17,.11Z"/><path class="cls-11" d="M22.14,35.78c-2.7,0-4.03-2.82-4.08-2.94-.06-.13,0-.28,.12-.34,.13-.06,.28,0,.34,.12,.01,.03,1.25,2.64,3.62,2.64,1.69,0,2.31-2.83,2.32-2.86,.03-.14,.16-.23,.3-.2,.14,.03,.23,.16,.2,.3-.03,.13-.71,3.26-2.82,3.26Z"/><g><path class="cls-39" d="M15.38,21.22l-1.22-3.65,.99,.72s.37,1.42,.49,2.33c.11,.9-.26,.6-.26,.6Z"/><path class="cls-35" d="M21.29,26.58c-4.07-.29-6.41-4.43-6.13-8.28l.44-6.12c.28-3.86,3.49-6.77,7.19-6.5h0c3.7,.26,6.47,3.6,6.19,7.46l-.44,6.12c-.28,3.86-3.18,7.62-7.25,7.33Z"/><path class="cls-13" d="M16.71,23.22c.43,1.02,2.55,4.84,7.71,3.71,0,0,.02-.94,0-.98-4.06,1.43-7.08-1.95-7.71-2.73Z"/><path class="cls-39" d="M24.98,18.48c-.04-.25-.15-.48-.25-.72-.1-.25-.2-.5-.28-.76-.18-.54-.3-1.09-.42-1.64-.02-.07-.14-.06-.13,.02,.11,.91,.38,1.79,.7,2.64,.14,.37,.29,.85-.15,1.07-.31,.16-.67,.08-1,.1-.17,0-.23,.27-.04,.32,.7,.17,1.7-.14,1.56-1.02Z"/><path class="cls-3" d="M23.91,21.55s-2.54-.9-3.36-2.03c0,0,.58,2.35,1.51,2.74,.93,.39,1.85-.71,1.85-.71Z"/><path class="cls-39" d="M20.95,15.32c-.02,.29-.27,.51-.56,.49-.29-.02-.51-.27-.49-.56,.02-.29,.27-.51,.56-.49,.29,.02,.51,.27,.49,.56Z"/><path class="cls-39" d="M26.81,15.81c-.02,.29-.27,.51-.56,.49-.29-.02-.51-.27-.49-.56,.02-.29,.27-.51,.56-.49,.29,.02,.51,.27,.49,.56Z"/><path class="cls-35" d="M13.08,16c-.09,1.22,.59,2.25,1.5,2.32,1.71,.12,1.73-.87,1.82-2.08,.09-1.22-.59-2.25-1.5-2.32-.92-.07-1.73,.87-1.82,2.08Z"/><path class="cls-13" d="M13.8,15.4c.09-.29,.28-.62,.59-.71,.27-.08,.61,.11,.6,.41,0,.06-.1,.07-.1,0-.01-.15-.13-.24-.28-.25-.15-.01-.29,.09-.38,.2-.2,.24-.28,.57-.29,.87,0,.31,.09,.63,.28,.88,.09,.11,.2,.21,.34,.27,.11,.05,.28,.07,.4,.02,.05-.02,.11,.04,.07,.08-.09,.1-.2,.18-.34,.17-.15,0-.29-.08-.41-.16-.27-.19-.43-.5-.51-.81-.08-.32-.07-.66,.03-.97Z"/><path class="cls-39" d="M26.56,3.19c-3.11-1.63-7.22-.88-8.65,.16-.88,.64-1.75,1.54-2.41,3.62-.1-1.24,.19-2.49,.96-3.5,.83-1.1,2.12-1.79,3.47-1.99,.08-.01,.08-.15,0-.15-1.44,.08-2.78,.83-3.65,1.97-.83,1.09-1.2,2.56-.96,3.92-.39,.12-1.43-.26-1.64,.98-.31,1.91-.11,5.08,.38,5.93,.8-.34,1.17,.05,1.18,.16,.04,1.32,.11,2.15,.11,2.15h.78s-.04-1.13,.15-2.11c.19-.98,.23-1.46,1.56-2.06,1.33-.61,.56-3.63,.56-3.63,0,0,1.65,1.21,4.24,1.35,2.5,.13,3.3,.14,3.64,.35,2.79,1.72,4.24,.55,4.54-.35,.59-1.76-.88-5.01-4.25-6.78Z"/><path class="cls-38" d="M18.21,6.91c.78,.37,1.59,.66,2.41,.87,.82,.22,1.66,.36,2.51,.4,.84,.06,1.7,.03,2.54-.09l.32-.04,.16-.02,.16-.03,.63-.14c.21-.03,.41-.11,.62-.17,.21-.06,.41-.12,.62-.18-.19,.09-.39,.18-.59,.27-.2,.09-.39,.18-.6,.24l-.62,.2c-.05,.02-.1,.03-.16,.05l-.16,.03-.32,.07c-.43,.11-.86,.13-1.3,.18-.22,.02-.44,0-.66,.02h-.33l-.33-.02c-.44-.02-.87-.09-1.3-.16l-.64-.15c-.21-.05-.42-.12-.63-.19-.83-.27-1.63-.64-2.33-1.15Z"/><path class="cls-39" d="M27.86,13.97c-.25-.42-.75-.63-1.22-.67-.47-.04-.94,.09-1.3,.4-.17,.14,.04,.39,.22,.26,.3-.21,.68-.28,1.04-.23,.38,.06,.66,.26,.95,.5,.16,.13,.42-.08,.31-.26Z"/><path class="cls-39" d="M21.76,13.63c-.04-.06-.04-.13-.09-.18-.04-.05-.09-.08-.14-.12-.09-.07-.2-.13-.3-.18-.21-.09-.45-.15-.68-.17-.45-.03-.95,.08-1.27,.41-.09,.09,0,.23,.12,.19,.35-.13,.72-.21,1.1-.18,.18,.02,.35,.06,.52,.13,.08,.04,.17,.07,.25,.12,.04,.02,.07,.05,.11,.07,.03,.02,.06,.04,.09,.05,.03,.01,.08,0,.1,.02,.1,.06,.28-.04,.2-.17Z"/></g><path class="cls-35" d="M71.16,50.94c-.13-.16-.5-.33-1.03-.04,.48-.42,.76-1.09-.02-1.65-.46-.34-.96-.14-.96-.14,.38-.51,.12-.9-.53-1.27-.28-.16-1.02-.01-1.02-.01,.37-.5,.31-.64-.48-1.13-.78-.49-4.77,1.93-3.71,3.14,.39,.44,1.01,.32,1.64-.01-.31,.45-.41,.89-.1,1.23,.37,.42,.94,.35,1.54,.06-.39,.49-.55,.99-.21,1.37,.47,.53,1.26,.27,2.02-.2-.45,.47-.67,.96-.35,1.32,.9,1.02,2.88-1.15,2.88-1.15,.31-.42,.79-.97,.34-1.53Z"/><path class="cls-3" d="M18.29,32.92c-.06,0-.13-.03-.16-.09-2.09-3.48-4.08-11.63-4.51-14.84-.13-.99,.62-1.67,.65-1.7,.08-.07,.2-.06,.27,.02,.07,.08,.06,.2-.02,.27h0s-.63,.57-.52,1.36c.43,3.18,2.39,11.26,4.46,14.7,.05,.09,.03,.21-.07,.26-.03,.02-.06,.03-.1,.03Z"/><path class="cls-13" d="M65.05,49.83c.19-.2,.4-.38,.6-.55,.21-.17,.42-.34,.64-.5,.22-.16,.43-.32,.66-.47,.22-.16,.44-.3,.65-.48-.12,.25-.32,.45-.52,.64-.2,.19-.41,.36-.63,.52-.22,.16-.44,.31-.68,.45-.23,.14-.47,.27-.73,.38Z"/><path class="cls-13" d="M66.53,51.03c.2-.18,.4-.34,.61-.49,.21-.15,.42-.3,.64-.44,.22-.14,.43-.28,.65-.42,.22-.14,.43-.27,.65-.43-.13,.24-.32,.43-.52,.6-.2,.18-.41,.33-.63,.48-.22,.14-.44,.28-.68,.4-.23,.12-.47,.23-.73,.31Z"/><path class="cls-13" d="M68.28,52.39c.24-.33,.52-.61,.83-.86,.15-.12,.31-.24,.48-.35,.17-.11,.34-.21,.54-.27-.26,.32-.54,.58-.84,.83-.15,.12-.31,.24-.48,.35-.16,.11-.33,.21-.52,.29Z"/><rect class="cls-40" x="49.88" y="86.79" width="38.59" height="14.43"/><polygon class="cls-30" points="50.45 157.59 52.24 87.38 47.92 87.38 47.92 157.59 50.45 157.59"/><polygon class="cls-30" points="90.73 157.59 90.73 87.38 86.41 87.38 88.2 157.59 90.73 157.59"/><rect class="cls-40" x="44.82" y="82.94" width="49.74" height="5.11"/><rect class="cls-23" x="52.27" y="87.97" width="34.03" height=".4"/></g></g></g></svg>